<mxfile host="Electron" modified="2024-04-30T18:35:43.082Z" agent="Mozilla/5.0 (Windows NT 10.0; Win64; x64) AppleWebKit/537.36 (KHTML, like Gecko) draw.io/22.0.2 Chrome/114.0.5735.289 Electron/25.8.4 Safari/537.36" etag="VB8WUUv9kdcGRd_phRgm" version="22.0.2" type="device" pages="3">
  <diagram id="C5RBs43oDa-KdzZeNtuy" name="Page-1">
    <mxGraphModel dx="2418" dy="1918" grid="1" gridSize="10" guides="1" tooltips="1" connect="1" arrows="1" fold="1" page="1" pageScale="1" pageWidth="827" pageHeight="1169" math="0" shadow="0">
      <root>
        <mxCell id="WIyWlLk6GJQsqaUBKTNV-0" />
        <mxCell id="WIyWlLk6GJQsqaUBKTNV-1" parent="WIyWlLk6GJQsqaUBKTNV-0" />
        <mxCell id="zkfFHV4jXpPFQw0GAbJ--17" value="Segment Flight Activity Fact" style="swimlane;fontStyle=0;align=center;verticalAlign=top;childLayout=stackLayout;horizontal=1;startSize=26;horizontalStack=0;resizeParent=1;resizeLast=0;collapsible=1;marginBottom=0;rounded=0;shadow=0;strokeWidth=1;fillColor=#17FF2E;" parent="WIyWlLk6GJQsqaUBKTNV-1" vertex="1">
          <mxGeometry x="-150" y="-760" width="240" height="502" as="geometry">
            <mxRectangle x="550" y="140" width="160" height="26" as="alternateBounds" />
          </mxGeometry>
        </mxCell>
        <mxCell id="zkfFHV4jXpPFQw0GAbJ--22" value="Scheduled Departure Date Key (FK)&#xa;" style="text;align=left;verticalAlign=top;spacingLeft=4;spacingRight=4;overflow=hidden;rotatable=0;points=[[0,0.5],[1,0.5]];portConstraint=eastwest;rounded=0;shadow=0;html=0;" parent="zkfFHV4jXpPFQw0GAbJ--17" vertex="1">
          <mxGeometry y="26" width="240" height="26" as="geometry" />
        </mxCell>
        <mxCell id="W-7zjK3m3vh-udBXuYau-0" value="Scheduled Departure Time Key (FK) &#xa;" style="text;align=left;verticalAlign=top;spacingLeft=4;spacingRight=4;overflow=hidden;rotatable=0;points=[[0,0.5],[1,0.5]];portConstraint=eastwest;rounded=0;shadow=0;html=0;" parent="zkfFHV4jXpPFQw0GAbJ--17" vertex="1">
          <mxGeometry y="52" width="240" height="26" as="geometry" />
        </mxCell>
        <mxCell id="W-7zjK3m3vh-udBXuYau-2" value="Actual Departure Date Key (FK) &#xa;" style="text;align=left;verticalAlign=top;spacingLeft=4;spacingRight=4;overflow=hidden;rotatable=0;points=[[0,0.5],[1,0.5]];portConstraint=eastwest;rounded=0;shadow=0;html=0;" parent="zkfFHV4jXpPFQw0GAbJ--17" vertex="1">
          <mxGeometry y="78" width="240" height="26" as="geometry" />
        </mxCell>
        <mxCell id="W-7zjK3m3vh-udBXuYau-3" value="Actual Departure Time Key (FK) &#xa;" style="text;align=left;verticalAlign=top;spacingLeft=4;spacingRight=4;overflow=hidden;rotatable=0;points=[[0,0.5],[1,0.5]];portConstraint=eastwest;rounded=0;shadow=0;html=0;" parent="zkfFHV4jXpPFQw0GAbJ--17" vertex="1">
          <mxGeometry y="104" width="240" height="26" as="geometry" />
        </mxCell>
        <mxCell id="W-7zjK3m3vh-udBXuYau-4" value="Passenger Key (FK) &#xa;" style="text;align=left;verticalAlign=top;spacingLeft=4;spacingRight=4;overflow=hidden;rotatable=0;points=[[0,0.5],[1,0.5]];portConstraint=eastwest;rounded=0;shadow=0;html=0;" parent="zkfFHV4jXpPFQw0GAbJ--17" vertex="1">
          <mxGeometry y="130" width="240" height="26" as="geometry" />
        </mxCell>
        <mxCell id="RJxt_zE2Anig8mFrYcpk-22" value="Passenger Profile Key (PK)&#xa;" style="text;align=left;verticalAlign=top;spacingLeft=4;spacingRight=4;overflow=hidden;rotatable=0;points=[[0,0.5],[1,0.5]];portConstraint=eastwest;rounded=0;shadow=0;html=0;" parent="zkfFHV4jXpPFQw0GAbJ--17" vertex="1">
          <mxGeometry y="156" width="240" height="26" as="geometry" />
        </mxCell>
        <mxCell id="W-7zjK3m3vh-udBXuYau-5" value="Segment Origin Airport Key (FK) &#xa;" style="text;align=left;verticalAlign=top;spacingLeft=4;spacingRight=4;overflow=hidden;rotatable=0;points=[[0,0.5],[1,0.5]];portConstraint=eastwest;rounded=0;shadow=0;html=0;" parent="zkfFHV4jXpPFQw0GAbJ--17" vertex="1">
          <mxGeometry y="182" width="240" height="26" as="geometry" />
        </mxCell>
        <mxCell id="W-7zjK3m3vh-udBXuYau-6" value="Segment Destination Airport Key (FK) &#xa;" style="text;align=left;verticalAlign=top;spacingLeft=4;spacingRight=4;overflow=hidden;rotatable=0;points=[[0,0.5],[1,0.5]];portConstraint=eastwest;rounded=0;shadow=0;html=0;" parent="zkfFHV4jXpPFQw0GAbJ--17" vertex="1">
          <mxGeometry y="208" width="240" height="26" as="geometry" />
        </mxCell>
        <mxCell id="W-7zjK3m3vh-udBXuYau-7" value="Aircraft Key (FK) &#xa;" style="text;align=left;verticalAlign=top;spacingLeft=4;spacingRight=4;overflow=hidden;rotatable=0;points=[[0,0.5],[1,0.5]];portConstraint=eastwest;rounded=0;shadow=0;html=0;" parent="zkfFHV4jXpPFQw0GAbJ--17" vertex="1">
          <mxGeometry y="234" width="240" height="26" as="geometry" />
        </mxCell>
        <mxCell id="W-7zjK3m3vh-udBXuYau-8" value="Class of Service Flown Key (FK) &#xa;" style="text;align=left;verticalAlign=top;spacingLeft=4;spacingRight=4;overflow=hidden;rotatable=0;points=[[0,0.5],[1,0.5]];portConstraint=eastwest;rounded=0;shadow=0;html=0;" parent="zkfFHV4jXpPFQw0GAbJ--17" vertex="1">
          <mxGeometry y="260" width="240" height="26" as="geometry" />
        </mxCell>
        <mxCell id="W-7zjK3m3vh-udBXuYau-11" value="Flight Number (DD) &#xa;" style="text;align=left;verticalAlign=top;spacingLeft=4;spacingRight=4;overflow=hidden;rotatable=0;points=[[0,0.5],[1,0.5]];portConstraint=eastwest;rounded=0;shadow=0;html=0;" parent="zkfFHV4jXpPFQw0GAbJ--17" vertex="1">
          <mxGeometry y="286" width="240" height="26" as="geometry" />
        </mxCell>
        <mxCell id="W-7zjK3m3vh-udBXuYau-13" value="Ticket Number (DD) &#xa;" style="text;align=left;verticalAlign=top;spacingLeft=4;spacingRight=4;overflow=hidden;rotatable=0;points=[[0,0.5],[1,0.5]];portConstraint=eastwest;rounded=0;shadow=0;html=0;" parent="zkfFHV4jXpPFQw0GAbJ--17" vertex="1">
          <mxGeometry y="312" width="240" height="26" as="geometry" />
        </mxCell>
        <mxCell id="W-7zjK3m3vh-udBXuYau-14" value="Segment Number (DD) &#xa;" style="text;align=left;verticalAlign=top;spacingLeft=4;spacingRight=4;overflow=hidden;rotatable=0;points=[[0,0.5],[1,0.5]];portConstraint=eastwest;rounded=0;shadow=0;html=0;" parent="zkfFHV4jXpPFQw0GAbJ--17" vertex="1">
          <mxGeometry y="338" width="240" height="26" as="geometry" />
        </mxCell>
        <mxCell id="ty1mplgX7pY2eagSN2k1-3" value="" style="line;html=1;strokeWidth=1;align=left;verticalAlign=middle;spacingTop=-1;spacingLeft=3;spacingRight=3;rotatable=0;labelPosition=right;points=[];portConstraint=eastwest;" parent="zkfFHV4jXpPFQw0GAbJ--17" vertex="1">
          <mxGeometry y="364" width="240" height="8" as="geometry" />
        </mxCell>
        <mxCell id="W-7zjK3m3vh-udBXuYau-18" value="Flight Duration&#xa;" style="text;align=left;verticalAlign=top;spacingLeft=4;spacingRight=4;overflow=hidden;rotatable=0;points=[[0,0.5],[1,0.5]];portConstraint=eastwest;rounded=0;shadow=0;html=0;" parent="zkfFHV4jXpPFQw0GAbJ--17" vertex="1">
          <mxGeometry y="372" width="240" height="26" as="geometry" />
        </mxCell>
        <mxCell id="W-7zjK3m3vh-udBXuYau-19" value="Flight Cost&#xa;" style="text;align=left;verticalAlign=top;spacingLeft=4;spacingRight=4;overflow=hidden;rotatable=0;points=[[0,0.5],[1,0.5]];portConstraint=eastwest;rounded=0;shadow=0;html=0;" parent="zkfFHV4jXpPFQw0GAbJ--17" vertex="1">
          <mxGeometry y="398" width="240" height="26" as="geometry" />
        </mxCell>
        <mxCell id="W-7zjK3m3vh-udBXuYau-26" value="Flight Revenue&#xa;" style="text;align=left;verticalAlign=top;spacingLeft=4;spacingRight=4;overflow=hidden;rotatable=0;points=[[0,0.5],[1,0.5]];portConstraint=eastwest;rounded=0;shadow=0;html=0;" parent="zkfFHV4jXpPFQw0GAbJ--17" vertex="1">
          <mxGeometry y="424" width="240" height="26" as="geometry" />
        </mxCell>
        <mxCell id="W-7zjK3m3vh-udBXuYau-25" value="Flight Miles&#xa;" style="text;align=left;verticalAlign=top;spacingLeft=4;spacingRight=4;overflow=hidden;rotatable=0;points=[[0,0.5],[1,0.5]];portConstraint=eastwest;rounded=0;shadow=0;html=0;" parent="zkfFHV4jXpPFQw0GAbJ--17" vertex="1">
          <mxGeometry y="450" width="240" height="26" as="geometry" />
        </mxCell>
        <mxCell id="bSDjbHyKN4QFsdx5JjcP-0" value="overnight stay" style="text;align=left;verticalAlign=top;spacingLeft=4;spacingRight=4;overflow=hidden;rotatable=0;points=[[0,0.5],[1,0.5]];portConstraint=eastwest;rounded=0;shadow=0;html=0;" parent="zkfFHV4jXpPFQw0GAbJ--17" vertex="1">
          <mxGeometry y="476" width="240" height="26" as="geometry" />
        </mxCell>
        <mxCell id="W-7zjK3m3vh-udBXuYau-22" value="Time" style="swimlane;fontStyle=2;align=center;verticalAlign=top;childLayout=stackLayout;horizontal=1;startSize=26;horizontalStack=0;resizeParent=1;resizeLast=0;collapsible=1;marginBottom=0;rounded=0;shadow=0;strokeWidth=1;" parent="WIyWlLk6GJQsqaUBKTNV-1" vertex="1">
          <mxGeometry x="-637" y="-853" width="160" height="180" as="geometry">
            <mxRectangle x="230" y="140" width="160" height="26" as="alternateBounds" />
          </mxGeometry>
        </mxCell>
        <mxCell id="W-7zjK3m3vh-udBXuYau-23" value="" style="line;html=1;strokeWidth=1;align=left;verticalAlign=middle;spacingTop=-1;spacingLeft=3;spacingRight=3;rotatable=0;labelPosition=right;points=[];portConstraint=eastwest;" parent="W-7zjK3m3vh-udBXuYau-22" vertex="1">
          <mxGeometry y="26" width="160" height="8" as="geometry" />
        </mxCell>
        <mxCell id="MFzZag6xlqpPsapnR9Ad-29" value="Time Key (PK)&#xa;" style="text;align=left;verticalAlign=top;spacingLeft=4;spacingRight=4;overflow=hidden;rotatable=0;points=[[0,0.5],[1,0.5]];portConstraint=eastwest;rounded=0;shadow=0;html=0;" parent="W-7zjK3m3vh-udBXuYau-22" vertex="1">
          <mxGeometry y="34" width="160" height="26" as="geometry" />
        </mxCell>
        <mxCell id="MFzZag6xlqpPsapnR9Ad-30" value="Time&#xa;" style="text;align=left;verticalAlign=top;spacingLeft=4;spacingRight=4;overflow=hidden;rotatable=0;points=[[0,0.5],[1,0.5]];portConstraint=eastwest;rounded=0;shadow=0;html=0;" parent="W-7zjK3m3vh-udBXuYau-22" vertex="1">
          <mxGeometry y="60" width="160" height="30" as="geometry" />
        </mxCell>
        <mxCell id="MFzZag6xlqpPsapnR9Ad-31" value="Hour&#xa;" style="text;align=left;verticalAlign=top;spacingLeft=4;spacingRight=4;overflow=hidden;rotatable=0;points=[[0,0.5],[1,0.5]];portConstraint=eastwest;rounded=0;shadow=0;html=0;" parent="W-7zjK3m3vh-udBXuYau-22" vertex="1">
          <mxGeometry y="90" width="160" height="30" as="geometry" />
        </mxCell>
        <mxCell id="MFzZag6xlqpPsapnR9Ad-32" value="Minute&#xa;" style="text;align=left;verticalAlign=top;spacingLeft=4;spacingRight=4;overflow=hidden;rotatable=0;points=[[0,0.5],[1,0.5]];portConstraint=eastwest;rounded=0;shadow=0;html=0;" parent="W-7zjK3m3vh-udBXuYau-22" vertex="1">
          <mxGeometry y="120" width="160" height="30" as="geometry" />
        </mxCell>
        <mxCell id="MFzZag6xlqpPsapnR9Ad-33" value="Hour of Day&#xa;" style="text;align=left;verticalAlign=top;spacingLeft=4;spacingRight=4;overflow=hidden;rotatable=0;points=[[0,0.5],[1,0.5]];portConstraint=eastwest;rounded=0;shadow=0;html=0;" parent="W-7zjK3m3vh-udBXuYau-22" vertex="1">
          <mxGeometry y="150" width="160" height="30" as="geometry" />
        </mxCell>
        <mxCell id="W-7zjK3m3vh-udBXuYau-33" value="Airport" style="swimlane;fontStyle=2;align=center;verticalAlign=top;childLayout=stackLayout;horizontal=1;startSize=26;horizontalStack=0;resizeParent=1;resizeLast=0;collapsible=1;marginBottom=0;rounded=0;shadow=0;strokeWidth=1;" parent="WIyWlLk6GJQsqaUBKTNV-1" vertex="1">
          <mxGeometry x="-697" y="-578" width="160" height="268" as="geometry">
            <mxRectangle x="230" y="140" width="160" height="26" as="alternateBounds" />
          </mxGeometry>
        </mxCell>
        <mxCell id="W-7zjK3m3vh-udBXuYau-34" value="" style="line;html=1;strokeWidth=1;align=left;verticalAlign=middle;spacingTop=-1;spacingLeft=3;spacingRight=3;rotatable=0;labelPosition=right;points=[];portConstraint=eastwest;" parent="W-7zjK3m3vh-udBXuYau-33" vertex="1">
          <mxGeometry y="26" width="160" height="8" as="geometry" />
        </mxCell>
        <mxCell id="MFzZag6xlqpPsapnR9Ad-48" value="Airport Key (PK)&#xa;" style="text;align=left;verticalAlign=top;spacingLeft=4;spacingRight=4;overflow=hidden;rotatable=0;points=[[0,0.5],[1,0.5]];portConstraint=eastwest;rounded=0;shadow=0;html=0;" parent="W-7zjK3m3vh-udBXuYau-33" vertex="1">
          <mxGeometry y="34" width="160" height="26" as="geometry" />
        </mxCell>
        <mxCell id="MFzZag6xlqpPsapnR9Ad-49" value="Airport Code&#xa;" style="text;align=left;verticalAlign=top;spacingLeft=4;spacingRight=4;overflow=hidden;rotatable=0;points=[[0,0.5],[1,0.5]];portConstraint=eastwest;rounded=0;shadow=0;html=0;" parent="W-7zjK3m3vh-udBXuYau-33" vertex="1">
          <mxGeometry y="60" width="160" height="26" as="geometry" />
        </mxCell>
        <mxCell id="MFzZag6xlqpPsapnR9Ad-50" value="Airport Name&#xa;" style="text;align=left;verticalAlign=top;spacingLeft=4;spacingRight=4;overflow=hidden;rotatable=0;points=[[0,0.5],[1,0.5]];portConstraint=eastwest;rounded=0;shadow=0;html=0;" parent="W-7zjK3m3vh-udBXuYau-33" vertex="1">
          <mxGeometry y="86" width="160" height="26" as="geometry" />
        </mxCell>
        <mxCell id="MFzZag6xlqpPsapnR9Ad-51" value="City&#xa;" style="text;align=left;verticalAlign=top;spacingLeft=4;spacingRight=4;overflow=hidden;rotatable=0;points=[[0,0.5],[1,0.5]];portConstraint=eastwest;rounded=0;shadow=0;html=0;" parent="W-7zjK3m3vh-udBXuYau-33" vertex="1">
          <mxGeometry y="112" width="160" height="26" as="geometry" />
        </mxCell>
        <mxCell id="MFzZag6xlqpPsapnR9Ad-52" value="Country&#xa;" style="text;align=left;verticalAlign=top;spacingLeft=4;spacingRight=4;overflow=hidden;rotatable=0;points=[[0,0.5],[1,0.5]];portConstraint=eastwest;rounded=0;shadow=0;html=0;" parent="W-7zjK3m3vh-udBXuYau-33" vertex="1">
          <mxGeometry y="138" width="160" height="26" as="geometry" />
        </mxCell>
        <mxCell id="MFzZag6xlqpPsapnR9Ad-53" value="Timezone&#xa;" style="text;align=left;verticalAlign=top;spacingLeft=4;spacingRight=4;overflow=hidden;rotatable=0;points=[[0,0.5],[1,0.5]];portConstraint=eastwest;rounded=0;shadow=0;html=0;" parent="W-7zjK3m3vh-udBXuYau-33" vertex="1">
          <mxGeometry y="164" width="160" height="26" as="geometry" />
        </mxCell>
        <mxCell id="MFzZag6xlqpPsapnR9Ad-54" value="Latitude&#xa;" style="text;align=left;verticalAlign=top;spacingLeft=4;spacingRight=4;overflow=hidden;rotatable=0;points=[[0,0.5],[1,0.5]];portConstraint=eastwest;rounded=0;shadow=0;html=0;" parent="W-7zjK3m3vh-udBXuYau-33" vertex="1">
          <mxGeometry y="190" width="160" height="26" as="geometry" />
        </mxCell>
        <mxCell id="MFzZag6xlqpPsapnR9Ad-55" value="Longitude&#xa;" style="text;align=left;verticalAlign=top;spacingLeft=4;spacingRight=4;overflow=hidden;rotatable=0;points=[[0,0.5],[1,0.5]];portConstraint=eastwest;rounded=0;shadow=0;html=0;" parent="W-7zjK3m3vh-udBXuYau-33" vertex="1">
          <mxGeometry y="216" width="160" height="26" as="geometry" />
        </mxCell>
        <mxCell id="MFzZag6xlqpPsapnR9Ad-56" value="Airport Type&#xa;" style="text;align=left;verticalAlign=top;spacingLeft=4;spacingRight=4;overflow=hidden;rotatable=0;points=[[0,0.5],[1,0.5]];portConstraint=eastwest;rounded=0;shadow=0;html=0;" parent="W-7zjK3m3vh-udBXuYau-33" vertex="1">
          <mxGeometry y="242" width="160" height="26" as="geometry" />
        </mxCell>
        <mxCell id="W-7zjK3m3vh-udBXuYau-37" value="Aircraft" style="swimlane;fontStyle=2;align=center;verticalAlign=top;childLayout=stackLayout;horizontal=1;startSize=26;horizontalStack=0;resizeParent=1;resizeLast=0;collapsible=1;marginBottom=0;rounded=0;shadow=0;strokeWidth=1;" parent="WIyWlLk6GJQsqaUBKTNV-1" vertex="1">
          <mxGeometry x="-677" y="-218" width="160" height="304" as="geometry">
            <mxRectangle x="230" y="140" width="160" height="26" as="alternateBounds" />
          </mxGeometry>
        </mxCell>
        <mxCell id="W-7zjK3m3vh-udBXuYau-38" value="" style="line;html=1;strokeWidth=1;align=left;verticalAlign=middle;spacingTop=-1;spacingLeft=3;spacingRight=3;rotatable=0;labelPosition=right;points=[];portConstraint=eastwest;" parent="W-7zjK3m3vh-udBXuYau-37" vertex="1">
          <mxGeometry y="26" width="160" height="8" as="geometry" />
        </mxCell>
        <mxCell id="MFzZag6xlqpPsapnR9Ad-34" value="Aircraft Key (PK)&#xa;" style="text;align=left;verticalAlign=top;spacingLeft=4;spacingRight=4;overflow=hidden;rotatable=0;points=[[0,0.5],[1,0.5]];portConstraint=eastwest;rounded=0;shadow=0;html=0;" parent="W-7zjK3m3vh-udBXuYau-37" vertex="1">
          <mxGeometry y="34" width="160" height="30" as="geometry" />
        </mxCell>
        <mxCell id="MFzZag6xlqpPsapnR9Ad-66" value="Aircraft Code&#xa;" style="text;align=left;verticalAlign=top;spacingLeft=4;spacingRight=4;overflow=hidden;rotatable=0;points=[[0,0.5],[1,0.5]];portConstraint=eastwest;rounded=0;shadow=0;html=0;" parent="W-7zjK3m3vh-udBXuYau-37" vertex="1">
          <mxGeometry y="64" width="160" height="30" as="geometry" />
        </mxCell>
        <mxCell id="MFzZag6xlqpPsapnR9Ad-67" value="Aircraft Type&#xa;" style="text;align=left;verticalAlign=top;spacingLeft=4;spacingRight=4;overflow=hidden;rotatable=0;points=[[0,0.5],[1,0.5]];portConstraint=eastwest;rounded=0;shadow=0;html=0;" parent="W-7zjK3m3vh-udBXuYau-37" vertex="1">
          <mxGeometry y="94" width="160" height="30" as="geometry" />
        </mxCell>
        <mxCell id="MFzZag6xlqpPsapnR9Ad-68" value="Manufacturer&#xa;" style="text;align=left;verticalAlign=top;spacingLeft=4;spacingRight=4;overflow=hidden;rotatable=0;points=[[0,0.5],[1,0.5]];portConstraint=eastwest;rounded=0;shadow=0;html=0;" parent="W-7zjK3m3vh-udBXuYau-37" vertex="1">
          <mxGeometry y="124" width="160" height="30" as="geometry" />
        </mxCell>
        <mxCell id="MFzZag6xlqpPsapnR9Ad-69" value="Model&#xa;" style="text;align=left;verticalAlign=top;spacingLeft=4;spacingRight=4;overflow=hidden;rotatable=0;points=[[0,0.5],[1,0.5]];portConstraint=eastwest;rounded=0;shadow=0;html=0;" parent="W-7zjK3m3vh-udBXuYau-37" vertex="1">
          <mxGeometry y="154" width="160" height="30" as="geometry" />
        </mxCell>
        <mxCell id="MFzZag6xlqpPsapnR9Ad-70" value="Year of Manufacture&#xa;" style="text;align=left;verticalAlign=top;spacingLeft=4;spacingRight=4;overflow=hidden;rotatable=0;points=[[0,0.5],[1,0.5]];portConstraint=eastwest;rounded=0;shadow=0;html=0;" parent="W-7zjK3m3vh-udBXuYau-37" vertex="1">
          <mxGeometry y="184" width="160" height="30" as="geometry" />
        </mxCell>
        <mxCell id="MFzZag6xlqpPsapnR9Ad-71" value="Seating Capacity&#xa;" style="text;align=left;verticalAlign=top;spacingLeft=4;spacingRight=4;overflow=hidden;rotatable=0;points=[[0,0.5],[1,0.5]];portConstraint=eastwest;rounded=0;shadow=0;html=0;" parent="W-7zjK3m3vh-udBXuYau-37" vertex="1">
          <mxGeometry y="214" width="160" height="30" as="geometry" />
        </mxCell>
        <mxCell id="MFzZag6xlqpPsapnR9Ad-72" value="Maximum Range&#xa;" style="text;align=left;verticalAlign=top;spacingLeft=4;spacingRight=4;overflow=hidden;rotatable=0;points=[[0,0.5],[1,0.5]];portConstraint=eastwest;rounded=0;shadow=0;html=0;" parent="W-7zjK3m3vh-udBXuYau-37" vertex="1">
          <mxGeometry y="244" width="160" height="30" as="geometry" />
        </mxCell>
        <mxCell id="MFzZag6xlqpPsapnR9Ad-73" value="Operating Weight&#xa;" style="text;align=left;verticalAlign=top;spacingLeft=4;spacingRight=4;overflow=hidden;rotatable=0;points=[[0,0.5],[1,0.5]];portConstraint=eastwest;rounded=0;shadow=0;html=0;" parent="W-7zjK3m3vh-udBXuYau-37" vertex="1">
          <mxGeometry y="274" width="160" height="30" as="geometry" />
        </mxCell>
        <mxCell id="W-7zjK3m3vh-udBXuYau-45" value="Fare basis" style="swimlane;fontStyle=2;align=center;verticalAlign=top;childLayout=stackLayout;horizontal=1;startSize=26;horizontalStack=0;resizeParent=1;resizeLast=0;collapsible=1;marginBottom=0;rounded=0;shadow=0;strokeWidth=1;" parent="WIyWlLk6GJQsqaUBKTNV-1" vertex="1">
          <mxGeometry x="320" y="-88" width="240" height="198" as="geometry">
            <mxRectangle x="230" y="140" width="160" height="26" as="alternateBounds" />
          </mxGeometry>
        </mxCell>
        <mxCell id="W-7zjK3m3vh-udBXuYau-46" value="" style="line;html=1;strokeWidth=1;align=left;verticalAlign=middle;spacingTop=-1;spacingLeft=3;spacingRight=3;rotatable=0;labelPosition=right;points=[];portConstraint=eastwest;" parent="W-7zjK3m3vh-udBXuYau-45" vertex="1">
          <mxGeometry y="26" width="240" height="8" as="geometry" />
        </mxCell>
        <mxCell id="MFzZag6xlqpPsapnR9Ad-57" value="Fare Basis Key (PK)&#xa;" style="text;align=left;verticalAlign=top;spacingLeft=4;spacingRight=4;overflow=hidden;rotatable=0;points=[[0,0.5],[1,0.5]];portConstraint=eastwest;rounded=0;shadow=0;html=0;" parent="W-7zjK3m3vh-udBXuYau-45" vertex="1">
          <mxGeometry y="34" width="240" height="26" as="geometry" />
        </mxCell>
        <mxCell id="MFzZag6xlqpPsapnR9Ad-61" value="Fare Basis Code&#xa;" style="text;align=left;verticalAlign=top;spacingLeft=4;spacingRight=4;overflow=hidden;rotatable=0;points=[[0,0.5],[1,0.5]];portConstraint=eastwest;rounded=0;shadow=0;html=0;" parent="W-7zjK3m3vh-udBXuYau-45" vertex="1">
          <mxGeometry y="60" width="240" height="26" as="geometry" />
        </mxCell>
        <mxCell id="MFzZag6xlqpPsapnR9Ad-62" value="Fare Description&#xa;" style="text;align=left;verticalAlign=top;spacingLeft=4;spacingRight=4;overflow=hidden;rotatable=0;points=[[0,0.5],[1,0.5]];portConstraint=eastwest;rounded=0;shadow=0;html=0;" parent="W-7zjK3m3vh-udBXuYau-45" vertex="1">
          <mxGeometry y="86" width="240" height="26" as="geometry" />
        </mxCell>
        <mxCell id="MFzZag6xlqpPsapnR9Ad-63" value="Fare Type&#xa;" style="text;align=left;verticalAlign=top;spacingLeft=4;spacingRight=4;overflow=hidden;rotatable=0;points=[[0,0.5],[1,0.5]];portConstraint=eastwest;rounded=0;shadow=0;html=0;" parent="W-7zjK3m3vh-udBXuYau-45" vertex="1">
          <mxGeometry y="112" width="240" height="26" as="geometry" />
        </mxCell>
        <mxCell id="MFzZag6xlqpPsapnR9Ad-65" value="Restriction" style="text;align=left;verticalAlign=top;spacingLeft=4;spacingRight=4;overflow=hidden;rotatable=0;points=[[0,0.5],[1,0.5]];portConstraint=eastwest;rounded=0;shadow=0;html=0;" parent="W-7zjK3m3vh-udBXuYau-45" vertex="1">
          <mxGeometry y="138" width="240" height="26" as="geometry" />
        </mxCell>
        <mxCell id="bSDjbHyKN4QFsdx5JjcP-7" value="Discount Percentage&#xa;" style="text;align=left;verticalAlign=top;spacingLeft=4;spacingRight=4;overflow=hidden;rotatable=0;points=[[0,0.5],[1,0.5]];portConstraint=eastwest;rounded=0;shadow=0;html=0;" parent="W-7zjK3m3vh-udBXuYau-45" vertex="1">
          <mxGeometry y="164" width="240" height="26" as="geometry" />
        </mxCell>
        <mxCell id="zkfFHV4jXpPFQw0GAbJ--0" value="Date Dimension" style="swimlane;fontStyle=2;align=center;verticalAlign=top;childLayout=stackLayout;horizontal=1;startSize=26;horizontalStack=0;resizeParent=1;resizeLast=0;collapsible=1;marginBottom=0;rounded=0;shadow=0;strokeWidth=1;" parent="WIyWlLk6GJQsqaUBKTNV-1" vertex="1">
          <mxGeometry x="418" y="-868" width="270" height="250" as="geometry">
            <mxRectangle x="230" y="140" width="160" height="26" as="alternateBounds" />
          </mxGeometry>
        </mxCell>
        <mxCell id="zkfFHV4jXpPFQw0GAbJ--4" value="" style="line;html=1;strokeWidth=1;align=left;verticalAlign=middle;spacingTop=-1;spacingLeft=3;spacingRight=3;rotatable=0;labelPosition=right;points=[];portConstraint=eastwest;" parent="zkfFHV4jXpPFQw0GAbJ--0" vertex="1">
          <mxGeometry y="26" width="270" height="8" as="geometry" />
        </mxCell>
        <mxCell id="MFzZag6xlqpPsapnR9Ad-17" value="Date Key (PK)&#xa;" style="text;align=left;verticalAlign=top;spacingLeft=4;spacingRight=4;overflow=hidden;rotatable=0;points=[[0,0.5],[1,0.5]];portConstraint=eastwest;rounded=0;shadow=0;html=0;" parent="zkfFHV4jXpPFQw0GAbJ--0" vertex="1">
          <mxGeometry y="34" width="270" height="26" as="geometry" />
        </mxCell>
        <mxCell id="MFzZag6xlqpPsapnR9Ad-21" value="Date&#xa;" style="text;align=left;verticalAlign=top;spacingLeft=4;spacingRight=4;overflow=hidden;rotatable=0;points=[[0,0.5],[1,0.5]];portConstraint=eastwest;rounded=0;shadow=0;html=0;" parent="zkfFHV4jXpPFQw0GAbJ--0" vertex="1">
          <mxGeometry y="60" width="270" height="26" as="geometry" />
        </mxCell>
        <mxCell id="MFzZag6xlqpPsapnR9Ad-22" value="Day&#xa;" style="text;align=left;verticalAlign=top;spacingLeft=4;spacingRight=4;overflow=hidden;rotatable=0;points=[[0,0.5],[1,0.5]];portConstraint=eastwest;rounded=0;shadow=0;html=0;" parent="zkfFHV4jXpPFQw0GAbJ--0" vertex="1">
          <mxGeometry y="86" width="270" height="26" as="geometry" />
        </mxCell>
        <mxCell id="MFzZag6xlqpPsapnR9Ad-23" value="Day of Week&#xa;" style="text;align=left;verticalAlign=top;spacingLeft=4;spacingRight=4;overflow=hidden;rotatable=0;points=[[0,0.5],[1,0.5]];portConstraint=eastwest;rounded=0;shadow=0;html=0;" parent="zkfFHV4jXpPFQw0GAbJ--0" vertex="1">
          <mxGeometry y="112" width="270" height="26" as="geometry" />
        </mxCell>
        <mxCell id="MFzZag6xlqpPsapnR9Ad-27" value="Month&#xa;" style="text;align=left;verticalAlign=top;spacingLeft=4;spacingRight=4;overflow=hidden;rotatable=0;points=[[0,0.5],[1,0.5]];portConstraint=eastwest;rounded=0;shadow=0;html=0;" parent="zkfFHV4jXpPFQw0GAbJ--0" vertex="1">
          <mxGeometry y="138" width="270" height="26" as="geometry" />
        </mxCell>
        <mxCell id="MFzZag6xlqpPsapnR9Ad-24" value="Quarter&#xa;" style="text;align=left;verticalAlign=top;spacingLeft=4;spacingRight=4;overflow=hidden;rotatable=0;points=[[0,0.5],[1,0.5]];portConstraint=eastwest;rounded=0;shadow=0;html=0;" parent="zkfFHV4jXpPFQw0GAbJ--0" vertex="1">
          <mxGeometry y="164" width="270" height="26" as="geometry" />
        </mxCell>
        <mxCell id="MFzZag6xlqpPsapnR9Ad-25" value="Holiday Indicator&#xa;" style="text;align=left;verticalAlign=top;spacingLeft=4;spacingRight=4;overflow=hidden;rotatable=0;points=[[0,0.5],[1,0.5]];portConstraint=eastwest;rounded=0;shadow=0;html=0;" parent="zkfFHV4jXpPFQw0GAbJ--0" vertex="1">
          <mxGeometry y="190" width="270" height="26" as="geometry" />
        </mxCell>
        <mxCell id="MFzZag6xlqpPsapnR9Ad-26" value="Season&#xa;" style="text;align=left;verticalAlign=top;spacingLeft=4;spacingRight=4;overflow=hidden;rotatable=0;points=[[0,0.5],[1,0.5]];portConstraint=eastwest;rounded=0;shadow=0;html=0;" parent="zkfFHV4jXpPFQw0GAbJ--0" vertex="1">
          <mxGeometry y="216" width="270" height="26" as="geometry" />
        </mxCell>
        <mxCell id="W-7zjK3m3vh-udBXuYau-30" value="Passenger" style="swimlane;fontStyle=2;align=center;verticalAlign=top;childLayout=stackLayout;horizontal=1;startSize=26;horizontalStack=0;resizeParent=1;resizeLast=0;collapsible=1;marginBottom=0;rounded=0;shadow=0;strokeWidth=1;" parent="WIyWlLk6GJQsqaUBKTNV-1" vertex="1">
          <mxGeometry x="473" y="-584" width="160" height="250" as="geometry">
            <mxRectangle x="230" y="140" width="160" height="26" as="alternateBounds" />
          </mxGeometry>
        </mxCell>
        <mxCell id="W-7zjK3m3vh-udBXuYau-31" value="" style="line;html=1;strokeWidth=1;align=left;verticalAlign=middle;spacingTop=-1;spacingLeft=3;spacingRight=3;rotatable=0;labelPosition=right;points=[];portConstraint=eastwest;" parent="W-7zjK3m3vh-udBXuYau-30" vertex="1">
          <mxGeometry y="26" width="160" height="8" as="geometry" />
        </mxCell>
        <mxCell id="i0Kg-5B-pk0rvpehtaZk-32" value="Passenger Key (PK)&#xa;" style="text;align=left;verticalAlign=top;spacingLeft=4;spacingRight=4;overflow=hidden;rotatable=0;points=[[0,0.5],[1,0.5]];portConstraint=eastwest;rounded=0;shadow=0;html=0;" parent="W-7zjK3m3vh-udBXuYau-30" vertex="1">
          <mxGeometry y="34" width="160" height="26" as="geometry" />
        </mxCell>
        <mxCell id="i0Kg-5B-pk0rvpehtaZk-33" value="Passenger ID&#xa;" style="text;align=left;verticalAlign=top;spacingLeft=4;spacingRight=4;overflow=hidden;rotatable=0;points=[[0,0.5],[1,0.5]];portConstraint=eastwest;rounded=0;shadow=0;html=0;" parent="W-7zjK3m3vh-udBXuYau-30" vertex="1">
          <mxGeometry y="60" width="160" height="26" as="geometry" />
        </mxCell>
        <mxCell id="i0Kg-5B-pk0rvpehtaZk-38" value="First Name&#xa;" style="text;align=left;verticalAlign=top;spacingLeft=4;spacingRight=4;overflow=hidden;rotatable=0;points=[[0,0.5],[1,0.5]];portConstraint=eastwest;rounded=0;shadow=0;html=0;" parent="W-7zjK3m3vh-udBXuYau-30" vertex="1">
          <mxGeometry y="86" width="160" height="26" as="geometry" />
        </mxCell>
        <mxCell id="i0Kg-5B-pk0rvpehtaZk-39" value="Last Name&#xa;" style="text;align=left;verticalAlign=top;spacingLeft=4;spacingRight=4;overflow=hidden;rotatable=0;points=[[0,0.5],[1,0.5]];portConstraint=eastwest;rounded=0;shadow=0;html=0;" parent="W-7zjK3m3vh-udBXuYau-30" vertex="1">
          <mxGeometry y="112" width="160" height="26" as="geometry" />
        </mxCell>
        <mxCell id="i0Kg-5B-pk0rvpehtaZk-40" value="Date of Birth&#xa;" style="text;align=left;verticalAlign=top;spacingLeft=4;spacingRight=4;overflow=hidden;rotatable=0;points=[[0,0.5],[1,0.5]];portConstraint=eastwest;rounded=0;shadow=0;html=0;" parent="W-7zjK3m3vh-udBXuYau-30" vertex="1">
          <mxGeometry y="138" width="160" height="26" as="geometry" />
        </mxCell>
        <mxCell id="i0Kg-5B-pk0rvpehtaZk-41" value="Gender&#xa;" style="text;align=left;verticalAlign=top;spacingLeft=4;spacingRight=4;overflow=hidden;rotatable=0;points=[[0,0.5],[1,0.5]];portConstraint=eastwest;rounded=0;shadow=0;html=0;" parent="W-7zjK3m3vh-udBXuYau-30" vertex="1">
          <mxGeometry y="164" width="160" height="26" as="geometry" />
        </mxCell>
        <mxCell id="i0Kg-5B-pk0rvpehtaZk-42" value="Email Address&#xa;" style="text;align=left;verticalAlign=top;spacingLeft=4;spacingRight=4;overflow=hidden;rotatable=0;points=[[0,0.5],[1,0.5]];portConstraint=eastwest;rounded=0;shadow=0;html=0;" parent="W-7zjK3m3vh-udBXuYau-30" vertex="1">
          <mxGeometry y="190" width="160" height="26" as="geometry" />
        </mxCell>
        <mxCell id="i0Kg-5B-pk0rvpehtaZk-43" value="Address&#xa;" style="text;align=left;verticalAlign=top;spacingLeft=4;spacingRight=4;overflow=hidden;rotatable=0;points=[[0,0.5],[1,0.5]];portConstraint=eastwest;rounded=0;shadow=0;html=0;" parent="W-7zjK3m3vh-udBXuYau-30" vertex="1">
          <mxGeometry y="216" width="160" height="26" as="geometry" />
        </mxCell>
        <mxCell id="W-7zjK3m3vh-udBXuYau-40" value="Class of Service Flown Dimension" style="swimlane;fontStyle=2;align=center;verticalAlign=top;childLayout=stackLayout;horizontal=1;startSize=26;horizontalStack=0;resizeParent=1;resizeLast=0;collapsible=1;marginBottom=0;rounded=0;shadow=0;strokeWidth=1;" parent="WIyWlLk6GJQsqaUBKTNV-1" vertex="1">
          <mxGeometry x="-642" y="212" width="210" height="172" as="geometry">
            <mxRectangle x="230" y="140" width="160" height="26" as="alternateBounds" />
          </mxGeometry>
        </mxCell>
        <mxCell id="W-7zjK3m3vh-udBXuYau-41" value="" style="line;html=1;strokeWidth=1;align=left;verticalAlign=middle;spacingTop=-1;spacingLeft=3;spacingRight=3;rotatable=0;labelPosition=right;points=[];portConstraint=eastwest;" parent="W-7zjK3m3vh-udBXuYau-40" vertex="1">
          <mxGeometry y="26" width="210" height="8" as="geometry" />
        </mxCell>
        <mxCell id="MFzZag6xlqpPsapnR9Ad-38" value="Class Key (PK)&#xa;" style="text;align=left;verticalAlign=top;spacingLeft=4;spacingRight=4;overflow=hidden;rotatable=0;points=[[0,0.5],[1,0.5]];portConstraint=eastwest;rounded=0;shadow=0;html=0;" parent="W-7zjK3m3vh-udBXuYau-40" vertex="1">
          <mxGeometry y="34" width="210" height="26" as="geometry" />
        </mxCell>
        <mxCell id="MFzZag6xlqpPsapnR9Ad-42" value="Class Purchased&#xa;" style="text;align=left;verticalAlign=top;spacingLeft=4;spacingRight=4;overflow=hidden;rotatable=0;points=[[0,0.5],[1,0.5]];portConstraint=eastwest;rounded=0;shadow=0;html=0;" parent="W-7zjK3m3vh-udBXuYau-40" vertex="1">
          <mxGeometry y="60" width="210" height="26" as="geometry" />
        </mxCell>
        <mxCell id="MFzZag6xlqpPsapnR9Ad-43" value="Class Flown" style="text;align=left;verticalAlign=top;spacingLeft=4;spacingRight=4;overflow=hidden;rotatable=0;points=[[0,0.5],[1,0.5]];portConstraint=eastwest;rounded=0;shadow=0;html=0;" parent="W-7zjK3m3vh-udBXuYau-40" vertex="1">
          <mxGeometry y="86" width="210" height="26" as="geometry" />
        </mxCell>
        <mxCell id="MFzZag6xlqpPsapnR9Ad-44" value="Purchased-Flown Group" style="text;align=left;verticalAlign=top;spacingLeft=4;spacingRight=4;overflow=hidden;rotatable=0;points=[[0,0.5],[1,0.5]];portConstraint=eastwest;rounded=0;shadow=0;html=0;" parent="W-7zjK3m3vh-udBXuYau-40" vertex="1">
          <mxGeometry y="112" width="210" height="26" as="geometry" />
        </mxCell>
        <mxCell id="MFzZag6xlqpPsapnR9Ad-45" value="Class Change Indicator" style="text;align=left;verticalAlign=top;spacingLeft=4;spacingRight=4;overflow=hidden;rotatable=0;points=[[0,0.5],[1,0.5]];portConstraint=eastwest;rounded=0;shadow=0;html=0;" parent="W-7zjK3m3vh-udBXuYau-40" vertex="1">
          <mxGeometry y="138" width="210" height="26" as="geometry" />
        </mxCell>
        <mxCell id="RJxt_zE2Anig8mFrYcpk-1" style="edgeStyle=orthogonalEdgeStyle;rounded=0;orthogonalLoop=1;jettySize=auto;html=1;exitX=1;exitY=0.5;exitDx=0;exitDy=0;entryX=0;entryY=0.5;entryDx=0;entryDy=0;" parent="WIyWlLk6GJQsqaUBKTNV-1" source="MFzZag6xlqpPsapnR9Ad-29" target="W-7zjK3m3vh-udBXuYau-0" edge="1">
          <mxGeometry relative="1" as="geometry" />
        </mxCell>
        <mxCell id="RJxt_zE2Anig8mFrYcpk-2" style="edgeStyle=orthogonalEdgeStyle;rounded=0;orthogonalLoop=1;jettySize=auto;html=1;exitX=1;exitY=0.5;exitDx=0;exitDy=0;entryX=0;entryY=0.5;entryDx=0;entryDy=0;" parent="WIyWlLk6GJQsqaUBKTNV-1" source="MFzZag6xlqpPsapnR9Ad-30" target="W-7zjK3m3vh-udBXuYau-3" edge="1">
          <mxGeometry relative="1" as="geometry" />
        </mxCell>
        <mxCell id="RJxt_zE2Anig8mFrYcpk-3" style="edgeStyle=orthogonalEdgeStyle;rounded=0;orthogonalLoop=1;jettySize=auto;html=1;exitX=0;exitY=0.5;exitDx=0;exitDy=0;" parent="WIyWlLk6GJQsqaUBKTNV-1" source="MFzZag6xlqpPsapnR9Ad-17" target="zkfFHV4jXpPFQw0GAbJ--22" edge="1">
          <mxGeometry relative="1" as="geometry" />
        </mxCell>
        <mxCell id="RJxt_zE2Anig8mFrYcpk-4" style="edgeStyle=orthogonalEdgeStyle;rounded=0;orthogonalLoop=1;jettySize=auto;html=1;exitX=0;exitY=0.5;exitDx=0;exitDy=0;entryX=1;entryY=0.5;entryDx=0;entryDy=0;" parent="WIyWlLk6GJQsqaUBKTNV-1" source="MFzZag6xlqpPsapnR9Ad-21" target="W-7zjK3m3vh-udBXuYau-2" edge="1">
          <mxGeometry relative="1" as="geometry" />
        </mxCell>
        <mxCell id="RJxt_zE2Anig8mFrYcpk-5" style="edgeStyle=orthogonalEdgeStyle;rounded=0;orthogonalLoop=1;jettySize=auto;html=1;exitX=0;exitY=0.5;exitDx=0;exitDy=0;entryX=1;entryY=0.5;entryDx=0;entryDy=0;" parent="WIyWlLk6GJQsqaUBKTNV-1" source="i0Kg-5B-pk0rvpehtaZk-32" target="W-7zjK3m3vh-udBXuYau-4" edge="1">
          <mxGeometry relative="1" as="geometry" />
        </mxCell>
        <mxCell id="RJxt_zE2Anig8mFrYcpk-6" style="edgeStyle=orthogonalEdgeStyle;rounded=0;orthogonalLoop=1;jettySize=auto;html=1;exitX=1;exitY=0.5;exitDx=0;exitDy=0;entryX=0;entryY=0.5;entryDx=0;entryDy=0;" parent="WIyWlLk6GJQsqaUBKTNV-1" source="MFzZag6xlqpPsapnR9Ad-49" target="W-7zjK3m3vh-udBXuYau-6" edge="1">
          <mxGeometry relative="1" as="geometry" />
        </mxCell>
        <mxCell id="RJxt_zE2Anig8mFrYcpk-7" style="edgeStyle=orthogonalEdgeStyle;rounded=0;orthogonalLoop=1;jettySize=auto;html=1;exitX=1;exitY=0.5;exitDx=0;exitDy=0;entryX=0;entryY=0.5;entryDx=0;entryDy=0;" parent="WIyWlLk6GJQsqaUBKTNV-1" source="MFzZag6xlqpPsapnR9Ad-48" target="W-7zjK3m3vh-udBXuYau-5" edge="1">
          <mxGeometry relative="1" as="geometry" />
        </mxCell>
        <mxCell id="RJxt_zE2Anig8mFrYcpk-8" style="edgeStyle=orthogonalEdgeStyle;rounded=0;orthogonalLoop=1;jettySize=auto;html=1;exitX=1;exitY=0.5;exitDx=0;exitDy=0;entryX=0;entryY=0.5;entryDx=0;entryDy=0;" parent="WIyWlLk6GJQsqaUBKTNV-1" source="MFzZag6xlqpPsapnR9Ad-34" target="W-7zjK3m3vh-udBXuYau-7" edge="1">
          <mxGeometry relative="1" as="geometry" />
        </mxCell>
        <mxCell id="RJxt_zE2Anig8mFrYcpk-10" style="edgeStyle=orthogonalEdgeStyle;rounded=0;orthogonalLoop=1;jettySize=auto;html=1;exitX=1;exitY=0.5;exitDx=0;exitDy=0;entryX=0;entryY=0.5;entryDx=0;entryDy=0;" parent="WIyWlLk6GJQsqaUBKTNV-1" source="MFzZag6xlqpPsapnR9Ad-42" target="W-7zjK3m3vh-udBXuYau-8" edge="1">
          <mxGeometry relative="1" as="geometry" />
        </mxCell>
        <mxCell id="RJxt_zE2Anig8mFrYcpk-11" value="Passenger Profile" style="swimlane;fontStyle=2;align=center;verticalAlign=top;childLayout=stackLayout;horizontal=1;startSize=26;horizontalStack=0;resizeParent=1;resizeLast=0;collapsible=1;marginBottom=0;rounded=0;shadow=0;strokeWidth=1;" parent="WIyWlLk6GJQsqaUBKTNV-1" vertex="1">
          <mxGeometry x="473" y="-290" width="160" height="170" as="geometry">
            <mxRectangle x="230" y="140" width="160" height="26" as="alternateBounds" />
          </mxGeometry>
        </mxCell>
        <mxCell id="RJxt_zE2Anig8mFrYcpk-12" value="" style="line;html=1;strokeWidth=1;align=left;verticalAlign=middle;spacingTop=-1;spacingLeft=3;spacingRight=3;rotatable=0;labelPosition=right;points=[];portConstraint=eastwest;" parent="RJxt_zE2Anig8mFrYcpk-11" vertex="1">
          <mxGeometry y="26" width="160" height="8" as="geometry" />
        </mxCell>
        <mxCell id="RJxt_zE2Anig8mFrYcpk-13" value="Passenger Profile Key (PK)&#xa;" style="text;align=left;verticalAlign=top;spacingLeft=4;spacingRight=4;overflow=hidden;rotatable=0;points=[[0,0.5],[1,0.5]];portConstraint=eastwest;rounded=0;shadow=0;html=0;" parent="RJxt_zE2Anig8mFrYcpk-11" vertex="1">
          <mxGeometry y="34" width="160" height="26" as="geometry" />
        </mxCell>
        <mxCell id="RJxt_zE2Anig8mFrYcpk-14" value="Frequent Flyer Tier" style="text;align=left;verticalAlign=top;spacingLeft=4;spacingRight=4;overflow=hidden;rotatable=0;points=[[0,0.5],[1,0.5]];portConstraint=eastwest;rounded=0;shadow=0;html=0;" parent="RJxt_zE2Anig8mFrYcpk-11" vertex="1">
          <mxGeometry y="60" width="160" height="26" as="geometry" />
        </mxCell>
        <mxCell id="RJxt_zE2Anig8mFrYcpk-15" value="Home Airport" style="text;align=left;verticalAlign=top;spacingLeft=4;spacingRight=4;overflow=hidden;rotatable=0;points=[[0,0.5],[1,0.5]];portConstraint=eastwest;rounded=0;shadow=0;html=0;" parent="RJxt_zE2Anig8mFrYcpk-11" vertex="1">
          <mxGeometry y="86" width="160" height="26" as="geometry" />
        </mxCell>
        <mxCell id="RJxt_zE2Anig8mFrYcpk-16" value="Club Membership Status" style="text;align=left;verticalAlign=top;spacingLeft=4;spacingRight=4;overflow=hidden;rotatable=0;points=[[0,0.5],[1,0.5]];portConstraint=eastwest;rounded=0;shadow=0;html=0;" parent="RJxt_zE2Anig8mFrYcpk-11" vertex="1">
          <mxGeometry y="112" width="160" height="26" as="geometry" />
        </mxCell>
        <mxCell id="RJxt_zE2Anig8mFrYcpk-17" value="Lifetime Mileage Tier" style="text;align=left;verticalAlign=top;spacingLeft=4;spacingRight=4;overflow=hidden;rotatable=0;points=[[0,0.5],[1,0.5]];portConstraint=eastwest;rounded=0;shadow=0;html=0;" parent="RJxt_zE2Anig8mFrYcpk-11" vertex="1">
          <mxGeometry y="138" width="160" height="26" as="geometry" />
        </mxCell>
        <mxCell id="RJxt_zE2Anig8mFrYcpk-23" style="edgeStyle=orthogonalEdgeStyle;rounded=0;orthogonalLoop=1;jettySize=auto;html=1;exitX=0;exitY=0.5;exitDx=0;exitDy=0;entryX=1;entryY=0.5;entryDx=0;entryDy=0;" parent="WIyWlLk6GJQsqaUBKTNV-1" source="RJxt_zE2Anig8mFrYcpk-13" target="RJxt_zE2Anig8mFrYcpk-22" edge="1">
          <mxGeometry relative="1" as="geometry" />
        </mxCell>
        <mxCell id="7-RHD1cQxyTfnaaGWEE9-0" value="Reservation Fact" style="swimlane;fontStyle=0;align=center;verticalAlign=top;childLayout=stackLayout;horizontal=1;startSize=26;horizontalStack=0;resizeParent=1;resizeLast=0;collapsible=1;marginBottom=0;rounded=0;shadow=0;strokeWidth=1;fillColor=#FF250D;" parent="WIyWlLk6GJQsqaUBKTNV-1" vertex="1">
          <mxGeometry x="-155" y="-190" width="250" height="450" as="geometry">
            <mxRectangle x="550" y="140" width="160" height="26" as="alternateBounds" />
          </mxGeometry>
        </mxCell>
        <mxCell id="7-RHD1cQxyTfnaaGWEE9-1" value="Date Key (FK) &#xa;" style="text;align=left;verticalAlign=top;spacingLeft=4;spacingRight=4;overflow=hidden;rotatable=0;points=[[0,0.5],[1,0.5]];portConstraint=eastwest;rounded=0;shadow=0;html=0;" parent="7-RHD1cQxyTfnaaGWEE9-0" vertex="1">
          <mxGeometry y="26" width="250" height="26" as="geometry" />
        </mxCell>
        <mxCell id="7-RHD1cQxyTfnaaGWEE9-2" value="Scheduled Departure Date Key (FK)&#xa;" style="text;align=left;verticalAlign=top;spacingLeft=4;spacingRight=4;overflow=hidden;rotatable=0;points=[[0,0.5],[1,0.5]];portConstraint=eastwest;rounded=0;shadow=0;html=0;" parent="7-RHD1cQxyTfnaaGWEE9-0" vertex="1">
          <mxGeometry y="52" width="250" height="26" as="geometry" />
        </mxCell>
        <mxCell id="7-RHD1cQxyTfnaaGWEE9-3" value="Scheduled Departure Time Key (FK) &#xa;" style="text;align=left;verticalAlign=top;spacingLeft=4;spacingRight=4;overflow=hidden;rotatable=0;points=[[0,0.5],[1,0.5]];portConstraint=eastwest;rounded=0;shadow=0;html=0;" parent="7-RHD1cQxyTfnaaGWEE9-0" vertex="1">
          <mxGeometry y="78" width="250" height="26" as="geometry" />
        </mxCell>
        <mxCell id="7-RHD1cQxyTfnaaGWEE9-4" value="Passenger Key (FK) &#xa;" style="text;align=left;verticalAlign=top;spacingLeft=4;spacingRight=4;overflow=hidden;rotatable=0;points=[[0,0.5],[1,0.5]];portConstraint=eastwest;rounded=0;shadow=0;html=0;" parent="7-RHD1cQxyTfnaaGWEE9-0" vertex="1">
          <mxGeometry y="104" width="250" height="26" as="geometry" />
        </mxCell>
        <mxCell id="7-RHD1cQxyTfnaaGWEE9-5" value="Trip Origin Airport Key (FK) &#xa;" style="text;align=left;verticalAlign=top;spacingLeft=4;spacingRight=4;overflow=hidden;rotatable=0;points=[[0,0.5],[1,0.5]];portConstraint=eastwest;rounded=0;shadow=0;html=0;" parent="7-RHD1cQxyTfnaaGWEE9-0" vertex="1">
          <mxGeometry y="130" width="250" height="26" as="geometry" />
        </mxCell>
        <mxCell id="7-RHD1cQxyTfnaaGWEE9-6" value="Trip Destination Airport Key (FK) &#xa;" style="text;align=left;verticalAlign=top;spacingLeft=4;spacingRight=4;overflow=hidden;rotatable=0;points=[[0,0.5],[1,0.5]];portConstraint=eastwest;rounded=0;shadow=0;html=0;" parent="7-RHD1cQxyTfnaaGWEE9-0" vertex="1">
          <mxGeometry y="156" width="250" height="26" as="geometry" />
        </mxCell>
        <mxCell id="7-RHD1cQxyTfnaaGWEE9-7" value="Aircraft Key (FK) &#xa;" style="text;align=left;verticalAlign=top;spacingLeft=4;spacingRight=4;overflow=hidden;rotatable=0;points=[[0,0.5],[1,0.5]];portConstraint=eastwest;rounded=0;shadow=0;html=0;" parent="7-RHD1cQxyTfnaaGWEE9-0" vertex="1">
          <mxGeometry y="182" width="250" height="26" as="geometry" />
        </mxCell>
        <mxCell id="7-RHD1cQxyTfnaaGWEE9-9" value="Fare Basis Key (FK) &#xa;" style="text;align=left;verticalAlign=top;spacingLeft=4;spacingRight=4;overflow=hidden;rotatable=0;points=[[0,0.5],[1,0.5]];portConstraint=eastwest;rounded=0;shadow=0;html=0;" parent="7-RHD1cQxyTfnaaGWEE9-0" vertex="1">
          <mxGeometry y="208" width="250" height="26" as="geometry" />
        </mxCell>
        <mxCell id="7-RHD1cQxyTfnaaGWEE9-10" value="Booking Channel Key (FK) &#xa;" style="text;align=left;verticalAlign=top;spacingLeft=4;spacingRight=4;overflow=hidden;rotatable=0;points=[[0,0.5],[1,0.5]];portConstraint=eastwest;rounded=0;shadow=0;html=0;" parent="7-RHD1cQxyTfnaaGWEE9-0" vertex="1">
          <mxGeometry y="234" width="250" height="26" as="geometry" />
        </mxCell>
        <mxCell id="7-RHD1cQxyTfnaaGWEE9-13" value="Confirmation Number (DD) &#xa;" style="text;align=left;verticalAlign=top;spacingLeft=4;spacingRight=4;overflow=hidden;rotatable=0;points=[[0,0.5],[1,0.5]];portConstraint=eastwest;rounded=0;shadow=0;html=0;" parent="7-RHD1cQxyTfnaaGWEE9-0" vertex="1">
          <mxGeometry y="260" width="250" height="26" as="geometry" />
        </mxCell>
        <mxCell id="7-RHD1cQxyTfnaaGWEE9-14" value="Ticket Number (DD) &#xa;" style="text;align=left;verticalAlign=top;spacingLeft=4;spacingRight=4;overflow=hidden;rotatable=0;points=[[0,0.5],[1,0.5]];portConstraint=eastwest;rounded=0;shadow=0;html=0;" parent="7-RHD1cQxyTfnaaGWEE9-0" vertex="1">
          <mxGeometry y="286" width="250" height="26" as="geometry" />
        </mxCell>
        <mxCell id="7-RHD1cQxyTfnaaGWEE9-18" value="Canceled (DD)" style="text;align=left;verticalAlign=top;spacingLeft=4;spacingRight=4;overflow=hidden;rotatable=0;points=[[0,0.5],[1,0.5]];portConstraint=eastwest;rounded=0;shadow=0;html=0;" parent="7-RHD1cQxyTfnaaGWEE9-0" vertex="1">
          <mxGeometry y="312" width="250" height="26" as="geometry" />
        </mxCell>
        <mxCell id="ty1mplgX7pY2eagSN2k1-1" value="" style="line;html=1;strokeWidth=1;align=left;verticalAlign=middle;spacingTop=-1;spacingLeft=3;spacingRight=3;rotatable=0;labelPosition=right;points=[];portConstraint=eastwest;" parent="7-RHD1cQxyTfnaaGWEE9-0" vertex="1">
          <mxGeometry y="338" width="250" height="8" as="geometry" />
        </mxCell>
        <mxCell id="7-RHD1cQxyTfnaaGWEE9-16" value="Used Points" style="text;align=left;verticalAlign=top;spacingLeft=4;spacingRight=4;overflow=hidden;rotatable=0;points=[[0,0.5],[1,0.5]];portConstraint=eastwest;rounded=0;shadow=0;html=0;" parent="7-RHD1cQxyTfnaaGWEE9-0" vertex="1">
          <mxGeometry y="346" width="250" height="26" as="geometry" />
        </mxCell>
        <mxCell id="W-7zjK3m3vh-udBXuYau-28" value="Points Earned " style="text;align=left;verticalAlign=top;spacingLeft=4;spacingRight=4;overflow=hidden;rotatable=0;points=[[0,0.5],[1,0.5]];portConstraint=eastwest;rounded=0;shadow=0;html=0;" parent="7-RHD1cQxyTfnaaGWEE9-0" vertex="1">
          <mxGeometry y="372" width="250" height="26" as="geometry" />
        </mxCell>
        <mxCell id="7-RHD1cQxyTfnaaGWEE9-17" value="Discount" style="text;align=left;verticalAlign=top;spacingLeft=4;spacingRight=4;overflow=hidden;rotatable=0;points=[[0,0.5],[1,0.5]];portConstraint=eastwest;rounded=0;shadow=0;html=0;" parent="7-RHD1cQxyTfnaaGWEE9-0" vertex="1">
          <mxGeometry y="398" width="250" height="26" as="geometry" />
        </mxCell>
        <mxCell id="7-RHD1cQxyTfnaaGWEE9-15" value="Revenue" style="text;align=left;verticalAlign=top;spacingLeft=4;spacingRight=4;overflow=hidden;rotatable=0;points=[[0,0.5],[1,0.5]];portConstraint=eastwest;rounded=0;shadow=0;html=0;" parent="7-RHD1cQxyTfnaaGWEE9-0" vertex="1">
          <mxGeometry y="424" width="250" height="26" as="geometry" />
        </mxCell>
        <mxCell id="7-RHD1cQxyTfnaaGWEE9-19" value="channel" style="swimlane;fontStyle=0;childLayout=stackLayout;horizontal=1;startSize=26;fillColor=none;horizontalStack=0;resizeParent=1;resizeParentMax=0;resizeLast=0;collapsible=1;marginBottom=0;whiteSpace=wrap;html=1;" parent="WIyWlLk6GJQsqaUBKTNV-1" vertex="1">
          <mxGeometry x="370" y="276" width="140" height="84" as="geometry">
            <mxRectangle x="500" y="410" width="80" height="30" as="alternateBounds" />
          </mxGeometry>
        </mxCell>
        <mxCell id="7-RHD1cQxyTfnaaGWEE9-20" value="channel key (PK)" style="text;strokeColor=none;fillColor=none;align=left;verticalAlign=top;spacingLeft=4;spacingRight=4;overflow=hidden;rotatable=0;points=[[0,0.5],[1,0.5]];portConstraint=eastwest;whiteSpace=wrap;html=1;" parent="7-RHD1cQxyTfnaaGWEE9-19" vertex="1">
          <mxGeometry y="26" width="140" height="32" as="geometry" />
        </mxCell>
        <mxCell id="7-RHD1cQxyTfnaaGWEE9-21" value="channel type" style="text;strokeColor=none;fillColor=none;align=left;verticalAlign=top;spacingLeft=4;spacingRight=4;overflow=hidden;rotatable=0;points=[[0,0.5],[1,0.5]];portConstraint=eastwest;whiteSpace=wrap;html=1;" parent="7-RHD1cQxyTfnaaGWEE9-19" vertex="1">
          <mxGeometry y="58" width="140" height="26" as="geometry" />
        </mxCell>
        <mxCell id="7-RHD1cQxyTfnaaGWEE9-43" style="edgeStyle=orthogonalEdgeStyle;rounded=0;orthogonalLoop=1;jettySize=auto;html=1;exitX=0;exitY=0.5;exitDx=0;exitDy=0;" parent="WIyWlLk6GJQsqaUBKTNV-1" source="MFzZag6xlqpPsapnR9Ad-17" target="7-RHD1cQxyTfnaaGWEE9-1" edge="1">
          <mxGeometry relative="1" as="geometry" />
        </mxCell>
        <mxCell id="7-RHD1cQxyTfnaaGWEE9-44" style="edgeStyle=orthogonalEdgeStyle;rounded=0;orthogonalLoop=1;jettySize=auto;html=1;exitX=0;exitY=0.5;exitDx=0;exitDy=0;entryX=1;entryY=0.5;entryDx=0;entryDy=0;" parent="WIyWlLk6GJQsqaUBKTNV-1" source="MFzZag6xlqpPsapnR9Ad-17" target="7-RHD1cQxyTfnaaGWEE9-2" edge="1">
          <mxGeometry relative="1" as="geometry" />
        </mxCell>
        <mxCell id="7-RHD1cQxyTfnaaGWEE9-45" style="edgeStyle=orthogonalEdgeStyle;rounded=0;orthogonalLoop=1;jettySize=auto;html=1;exitX=1;exitY=0.5;exitDx=0;exitDy=0;" parent="WIyWlLk6GJQsqaUBKTNV-1" source="MFzZag6xlqpPsapnR9Ad-29" target="7-RHD1cQxyTfnaaGWEE9-3" edge="1">
          <mxGeometry relative="1" as="geometry" />
        </mxCell>
        <mxCell id="7-RHD1cQxyTfnaaGWEE9-46" style="edgeStyle=orthogonalEdgeStyle;rounded=0;orthogonalLoop=1;jettySize=auto;html=1;exitX=0;exitY=0.5;exitDx=0;exitDy=0;entryX=1;entryY=0.5;entryDx=0;entryDy=0;" parent="WIyWlLk6GJQsqaUBKTNV-1" source="i0Kg-5B-pk0rvpehtaZk-32" target="7-RHD1cQxyTfnaaGWEE9-4" edge="1">
          <mxGeometry relative="1" as="geometry">
            <mxPoint x="100" y="-80" as="targetPoint" />
          </mxGeometry>
        </mxCell>
        <mxCell id="7-RHD1cQxyTfnaaGWEE9-47" style="edgeStyle=orthogonalEdgeStyle;rounded=0;orthogonalLoop=1;jettySize=auto;html=1;exitX=1;exitY=0.5;exitDx=0;exitDy=0;entryX=0;entryY=0.5;entryDx=0;entryDy=0;" parent="WIyWlLk6GJQsqaUBKTNV-1" source="MFzZag6xlqpPsapnR9Ad-48" target="7-RHD1cQxyTfnaaGWEE9-5" edge="1">
          <mxGeometry relative="1" as="geometry" />
        </mxCell>
        <mxCell id="7-RHD1cQxyTfnaaGWEE9-48" style="edgeStyle=orthogonalEdgeStyle;rounded=0;orthogonalLoop=1;jettySize=auto;html=1;exitX=1;exitY=0.5;exitDx=0;exitDy=0;entryX=0;entryY=0.5;entryDx=0;entryDy=0;" parent="WIyWlLk6GJQsqaUBKTNV-1" source="MFzZag6xlqpPsapnR9Ad-48" target="7-RHD1cQxyTfnaaGWEE9-6" edge="1">
          <mxGeometry relative="1" as="geometry" />
        </mxCell>
        <mxCell id="7-RHD1cQxyTfnaaGWEE9-49" style="edgeStyle=orthogonalEdgeStyle;rounded=0;orthogonalLoop=1;jettySize=auto;html=1;exitX=1;exitY=0.5;exitDx=0;exitDy=0;entryX=0;entryY=0.5;entryDx=0;entryDy=0;" parent="WIyWlLk6GJQsqaUBKTNV-1" source="MFzZag6xlqpPsapnR9Ad-34" target="7-RHD1cQxyTfnaaGWEE9-7" edge="1">
          <mxGeometry relative="1" as="geometry" />
        </mxCell>
        <mxCell id="7-RHD1cQxyTfnaaGWEE9-51" style="edgeStyle=orthogonalEdgeStyle;rounded=0;orthogonalLoop=1;jettySize=auto;html=1;exitX=0;exitY=0.5;exitDx=0;exitDy=0;" parent="WIyWlLk6GJQsqaUBKTNV-1" source="MFzZag6xlqpPsapnR9Ad-57" target="7-RHD1cQxyTfnaaGWEE9-9" edge="1">
          <mxGeometry relative="1" as="geometry" />
        </mxCell>
        <mxCell id="7-RHD1cQxyTfnaaGWEE9-52" style="edgeStyle=orthogonalEdgeStyle;rounded=0;orthogonalLoop=1;jettySize=auto;html=1;exitX=0;exitY=0.5;exitDx=0;exitDy=0;entryX=1;entryY=0.5;entryDx=0;entryDy=0;" parent="WIyWlLk6GJQsqaUBKTNV-1" source="7-RHD1cQxyTfnaaGWEE9-20" target="7-RHD1cQxyTfnaaGWEE9-10" edge="1">
          <mxGeometry relative="1" as="geometry" />
        </mxCell>
        <mxCell id="7-RHD1cQxyTfnaaGWEE9-64" value="Customer Service&amp;nbsp;" style="swimlane;fontStyle=0;childLayout=stackLayout;horizontal=1;startSize=26;fillColor=none;horizontalStack=0;resizeParent=1;resizeParentMax=0;resizeLast=0;collapsible=1;marginBottom=0;whiteSpace=wrap;html=1;" parent="WIyWlLk6GJQsqaUBKTNV-1" vertex="1">
          <mxGeometry x="-567" y="632" width="140" height="260" as="geometry" />
        </mxCell>
        <mxCell id="7-RHD1cQxyTfnaaGWEE9-65" value="Employee Key" style="text;strokeColor=none;fillColor=none;align=left;verticalAlign=top;spacingLeft=4;spacingRight=4;overflow=hidden;rotatable=0;points=[[0,0.5],[1,0.5]];portConstraint=eastwest;whiteSpace=wrap;html=1;" parent="7-RHD1cQxyTfnaaGWEE9-64" vertex="1">
          <mxGeometry y="26" width="140" height="26" as="geometry" />
        </mxCell>
        <mxCell id="7-RHD1cQxyTfnaaGWEE9-66" value="Employee id" style="text;strokeColor=none;fillColor=none;align=left;verticalAlign=top;spacingLeft=4;spacingRight=4;overflow=hidden;rotatable=0;points=[[0,0.5],[1,0.5]];portConstraint=eastwest;whiteSpace=wrap;html=1;" parent="7-RHD1cQxyTfnaaGWEE9-64" vertex="1">
          <mxGeometry y="52" width="140" height="26" as="geometry" />
        </mxCell>
        <mxCell id="7-RHD1cQxyTfnaaGWEE9-67" value="Employee Name" style="text;strokeColor=none;fillColor=none;align=left;verticalAlign=top;spacingLeft=4;spacingRight=4;overflow=hidden;rotatable=0;points=[[0,0.5],[1,0.5]];portConstraint=eastwest;whiteSpace=wrap;html=1;" parent="7-RHD1cQxyTfnaaGWEE9-64" vertex="1">
          <mxGeometry y="78" width="140" height="26" as="geometry" />
        </mxCell>
        <mxCell id="bSDjbHyKN4QFsdx5JjcP-1" value="Department" style="text;strokeColor=none;fillColor=none;align=left;verticalAlign=top;spacingLeft=4;spacingRight=4;overflow=hidden;rotatable=0;points=[[0,0.5],[1,0.5]];portConstraint=eastwest;whiteSpace=wrap;html=1;" parent="7-RHD1cQxyTfnaaGWEE9-64" vertex="1">
          <mxGeometry y="104" width="140" height="26" as="geometry" />
        </mxCell>
        <mxCell id="bSDjbHyKN4QFsdx5JjcP-2" value="Position" style="text;strokeColor=none;fillColor=none;align=left;verticalAlign=top;spacingLeft=4;spacingRight=4;overflow=hidden;rotatable=0;points=[[0,0.5],[1,0.5]];portConstraint=eastwest;whiteSpace=wrap;html=1;" parent="7-RHD1cQxyTfnaaGWEE9-64" vertex="1">
          <mxGeometry y="130" width="140" height="26" as="geometry" />
        </mxCell>
        <mxCell id="bSDjbHyKN4QFsdx5JjcP-3" value="Hire Date" style="text;strokeColor=none;fillColor=none;align=left;verticalAlign=top;spacingLeft=4;spacingRight=4;overflow=hidden;rotatable=0;points=[[0,0.5],[1,0.5]];portConstraint=eastwest;whiteSpace=wrap;html=1;" parent="7-RHD1cQxyTfnaaGWEE9-64" vertex="1">
          <mxGeometry y="156" width="140" height="26" as="geometry" />
        </mxCell>
        <mxCell id="bSDjbHyKN4QFsdx5JjcP-4" value="Email" style="text;strokeColor=none;fillColor=none;align=left;verticalAlign=top;spacingLeft=4;spacingRight=4;overflow=hidden;rotatable=0;points=[[0,0.5],[1,0.5]];portConstraint=eastwest;whiteSpace=wrap;html=1;" parent="7-RHD1cQxyTfnaaGWEE9-64" vertex="1">
          <mxGeometry y="182" width="140" height="26" as="geometry" />
        </mxCell>
        <mxCell id="bSDjbHyKN4QFsdx5JjcP-5" value="Phone Number" style="text;strokeColor=none;fillColor=none;align=left;verticalAlign=top;spacingLeft=4;spacingRight=4;overflow=hidden;rotatable=0;points=[[0,0.5],[1,0.5]];portConstraint=eastwest;whiteSpace=wrap;html=1;" parent="7-RHD1cQxyTfnaaGWEE9-64" vertex="1">
          <mxGeometry y="208" width="140" height="26" as="geometry" />
        </mxCell>
        <mxCell id="bSDjbHyKN4QFsdx5JjcP-6" value="Supervisor id" style="text;strokeColor=none;fillColor=none;align=left;verticalAlign=top;spacingLeft=4;spacingRight=4;overflow=hidden;rotatable=0;points=[[0,0.5],[1,0.5]];portConstraint=eastwest;whiteSpace=wrap;html=1;" parent="7-RHD1cQxyTfnaaGWEE9-64" vertex="1">
          <mxGeometry y="234" width="140" height="26" as="geometry" />
        </mxCell>
        <mxCell id="7-RHD1cQxyTfnaaGWEE9-68" value="problem" style="swimlane;fontStyle=0;childLayout=stackLayout;horizontal=1;startSize=26;fillColor=none;horizontalStack=0;resizeParent=1;resizeParentMax=0;resizeLast=0;collapsible=1;marginBottom=0;whiteSpace=wrap;html=1;" parent="WIyWlLk6GJQsqaUBKTNV-1" vertex="1">
          <mxGeometry x="370" y="480" width="140" height="130" as="geometry" />
        </mxCell>
        <mxCell id="7-RHD1cQxyTfnaaGWEE9-69" value="problem key" style="text;strokeColor=none;fillColor=none;align=left;verticalAlign=top;spacingLeft=4;spacingRight=4;overflow=hidden;rotatable=0;points=[[0,0.5],[1,0.5]];portConstraint=eastwest;whiteSpace=wrap;html=1;" parent="7-RHD1cQxyTfnaaGWEE9-68" vertex="1">
          <mxGeometry y="26" width="140" height="26" as="geometry" />
        </mxCell>
        <mxCell id="7-RHD1cQxyTfnaaGWEE9-70" value="problem id" style="text;strokeColor=none;fillColor=none;align=left;verticalAlign=top;spacingLeft=4;spacingRight=4;overflow=hidden;rotatable=0;points=[[0,0.5],[1,0.5]];portConstraint=eastwest;whiteSpace=wrap;html=1;" parent="7-RHD1cQxyTfnaaGWEE9-68" vertex="1">
          <mxGeometry y="52" width="140" height="26" as="geometry" />
        </mxCell>
        <mxCell id="7-RHD1cQxyTfnaaGWEE9-71" value="problem type" style="text;strokeColor=none;fillColor=none;align=left;verticalAlign=top;spacingLeft=4;spacingRight=4;overflow=hidden;rotatable=0;points=[[0,0.5],[1,0.5]];portConstraint=eastwest;whiteSpace=wrap;html=1;" parent="7-RHD1cQxyTfnaaGWEE9-68" vertex="1">
          <mxGeometry y="78" width="140" height="26" as="geometry" />
        </mxCell>
        <mxCell id="7-RHD1cQxyTfnaaGWEE9-72" value="problem seevrity" style="text;strokeColor=none;fillColor=none;align=left;verticalAlign=top;spacingLeft=4;spacingRight=4;overflow=hidden;rotatable=0;points=[[0,0.5],[1,0.5]];portConstraint=eastwest;whiteSpace=wrap;html=1;" parent="7-RHD1cQxyTfnaaGWEE9-68" vertex="1">
          <mxGeometry y="104" width="140" height="26" as="geometry" />
        </mxCell>
        <mxCell id="7-RHD1cQxyTfnaaGWEE9-73" value="interaction" style="swimlane;fontStyle=0;childLayout=stackLayout;horizontal=1;startSize=26;fillColor=none;horizontalStack=0;resizeParent=1;resizeParentMax=0;resizeLast=0;collapsible=1;marginBottom=0;whiteSpace=wrap;html=1;" parent="WIyWlLk6GJQsqaUBKTNV-1" vertex="1">
          <mxGeometry x="-597" y="432" width="140" height="104" as="geometry" />
        </mxCell>
        <mxCell id="7-RHD1cQxyTfnaaGWEE9-74" value="interaction key" style="text;strokeColor=none;fillColor=none;align=left;verticalAlign=top;spacingLeft=4;spacingRight=4;overflow=hidden;rotatable=0;points=[[0,0.5],[1,0.5]];portConstraint=eastwest;whiteSpace=wrap;html=1;" parent="7-RHD1cQxyTfnaaGWEE9-73" vertex="1">
          <mxGeometry y="26" width="140" height="26" as="geometry" />
        </mxCell>
        <mxCell id="7-RHD1cQxyTfnaaGWEE9-75" value="interaction id" style="text;strokeColor=none;fillColor=none;align=left;verticalAlign=top;spacingLeft=4;spacingRight=4;overflow=hidden;rotatable=0;points=[[0,0.5],[1,0.5]];portConstraint=eastwest;whiteSpace=wrap;html=1;" parent="7-RHD1cQxyTfnaaGWEE9-73" vertex="1">
          <mxGeometry y="52" width="140" height="26" as="geometry" />
        </mxCell>
        <mxCell id="7-RHD1cQxyTfnaaGWEE9-76" value="type" style="text;strokeColor=none;fillColor=none;align=left;verticalAlign=top;spacingLeft=4;spacingRight=4;overflow=hidden;rotatable=0;points=[[0,0.5],[1,0.5]];portConstraint=eastwest;whiteSpace=wrap;html=1;" parent="7-RHD1cQxyTfnaaGWEE9-73" vertex="1">
          <mxGeometry y="78" width="140" height="26" as="geometry" />
        </mxCell>
        <mxCell id="7-RHD1cQxyTfnaaGWEE9-78" style="edgeStyle=orthogonalEdgeStyle;rounded=0;orthogonalLoop=1;jettySize=auto;html=1;exitX=0;exitY=0.5;exitDx=0;exitDy=0;" parent="WIyWlLk6GJQsqaUBKTNV-1" source="MFzZag6xlqpPsapnR9Ad-17" target="7-RHD1cQxyTfnaaGWEE9-55" edge="1">
          <mxGeometry relative="1" as="geometry" />
        </mxCell>
        <mxCell id="7-RHD1cQxyTfnaaGWEE9-80" style="edgeStyle=orthogonalEdgeStyle;rounded=0;orthogonalLoop=1;jettySize=auto;html=1;exitX=1;exitY=0.5;exitDx=0;exitDy=0;entryX=0;entryY=0.5;entryDx=0;entryDy=0;" parent="WIyWlLk6GJQsqaUBKTNV-1" source="7-RHD1cQxyTfnaaGWEE9-74" target="7-RHD1cQxyTfnaaGWEE9-58" edge="1">
          <mxGeometry relative="1" as="geometry" />
        </mxCell>
        <mxCell id="7-RHD1cQxyTfnaaGWEE9-81" style="edgeStyle=orthogonalEdgeStyle;rounded=0;orthogonalLoop=1;jettySize=auto;html=1;exitX=1;exitY=0.5;exitDx=0;exitDy=0;entryX=0;entryY=0.5;entryDx=0;entryDy=0;" parent="WIyWlLk6GJQsqaUBKTNV-1" source="7-RHD1cQxyTfnaaGWEE9-65" target="7-RHD1cQxyTfnaaGWEE9-59" edge="1">
          <mxGeometry relative="1" as="geometry" />
        </mxCell>
        <mxCell id="7-RHD1cQxyTfnaaGWEE9-82" style="edgeStyle=orthogonalEdgeStyle;rounded=0;orthogonalLoop=1;jettySize=auto;html=1;exitX=0;exitY=0.5;exitDx=0;exitDy=0;" parent="WIyWlLk6GJQsqaUBKTNV-1" source="7-RHD1cQxyTfnaaGWEE9-69" target="7-RHD1cQxyTfnaaGWEE9-60" edge="1">
          <mxGeometry relative="1" as="geometry" />
        </mxCell>
        <mxCell id="7-RHD1cQxyTfnaaGWEE9-54" value="Customer Care" style="swimlane;fontStyle=0;align=center;verticalAlign=top;childLayout=stackLayout;horizontal=1;startSize=26;horizontalStack=0;resizeParent=1;resizeLast=0;collapsible=1;marginBottom=0;rounded=0;shadow=0;strokeWidth=1;fillColor=#6EECFF;" parent="WIyWlLk6GJQsqaUBKTNV-1" vertex="1">
          <mxGeometry x="-140" y="360" width="220" height="190" as="geometry">
            <mxRectangle x="550" y="140" width="160" height="26" as="alternateBounds" />
          </mxGeometry>
        </mxCell>
        <mxCell id="7-RHD1cQxyTfnaaGWEE9-55" value="date key" style="text;align=left;verticalAlign=top;spacingLeft=4;spacingRight=4;overflow=hidden;rotatable=0;points=[[0,0.5],[1,0.5]];portConstraint=eastwest;" parent="7-RHD1cQxyTfnaaGWEE9-54" vertex="1">
          <mxGeometry y="26" width="220" height="22" as="geometry" />
        </mxCell>
        <mxCell id="7-RHD1cQxyTfnaaGWEE9-56" value="passanger key" style="text;align=left;verticalAlign=top;spacingLeft=4;spacingRight=4;overflow=hidden;rotatable=0;points=[[0,0.5],[1,0.5]];portConstraint=eastwest;rounded=0;shadow=0;html=0;" parent="7-RHD1cQxyTfnaaGWEE9-54" vertex="1">
          <mxGeometry y="48" width="220" height="26" as="geometry" />
        </mxCell>
        <mxCell id="7-RHD1cQxyTfnaaGWEE9-58" value="interaction key" style="text;align=left;verticalAlign=top;spacingLeft=4;spacingRight=4;overflow=hidden;rotatable=0;points=[[0,0.5],[1,0.5]];portConstraint=eastwest;rounded=0;shadow=0;html=0;" parent="7-RHD1cQxyTfnaaGWEE9-54" vertex="1">
          <mxGeometry y="74" width="220" height="26" as="geometry" />
        </mxCell>
        <mxCell id="7-RHD1cQxyTfnaaGWEE9-59" value="employee key" style="text;align=left;verticalAlign=top;spacingLeft=4;spacingRight=4;overflow=hidden;rotatable=0;points=[[0,0.5],[1,0.5]];portConstraint=eastwest;" parent="7-RHD1cQxyTfnaaGWEE9-54" vertex="1">
          <mxGeometry y="100" width="220" height="22" as="geometry" />
        </mxCell>
        <mxCell id="7-RHD1cQxyTfnaaGWEE9-60" value="problem key" style="text;align=left;verticalAlign=top;spacingLeft=4;spacingRight=4;overflow=hidden;rotatable=0;points=[[0,0.5],[1,0.5]];portConstraint=eastwest;rounded=0;shadow=0;html=0;" parent="7-RHD1cQxyTfnaaGWEE9-54" vertex="1">
          <mxGeometry y="122" width="220" height="26" as="geometry" />
        </mxCell>
        <mxCell id="7-RHD1cQxyTfnaaGWEE9-62" value="" style="line;html=1;strokeWidth=1;align=left;verticalAlign=middle;spacingTop=-1;spacingLeft=3;spacingRight=3;rotatable=0;labelPosition=right;points=[];portConstraint=eastwest;" parent="7-RHD1cQxyTfnaaGWEE9-54" vertex="1">
          <mxGeometry y="148" width="220" height="8" as="geometry" />
        </mxCell>
        <mxCell id="7-RHD1cQxyTfnaaGWEE9-63" value="feedback  rate" style="text;align=left;verticalAlign=top;spacingLeft=4;spacingRight=4;overflow=hidden;rotatable=0;points=[[0,0.5],[1,0.5]];portConstraint=eastwest;" parent="7-RHD1cQxyTfnaaGWEE9-54" vertex="1">
          <mxGeometry y="156" width="220" height="26" as="geometry" />
        </mxCell>
      </root>
    </mxGraphModel>
  </diagram>
  <diagram name="Copy of Page-1" id="AYsnuXGGPl6GWToCq4Rd">
    <mxGraphModel dx="3311" dy="2307" grid="1" gridSize="10" guides="1" tooltips="1" connect="1" arrows="1" fold="1" page="1" pageScale="1" pageWidth="827" pageHeight="1169" math="0" shadow="0">
      <root>
        <mxCell id="OHE5dgSZfzQ-zJ2fqGM1-0" />
        <mxCell id="OHE5dgSZfzQ-zJ2fqGM1-1" parent="OHE5dgSZfzQ-zJ2fqGM1-0" />
        <mxCell id="OHE5dgSZfzQ-zJ2fqGM1-31" value="Segment Flight Activity Fact" style="swimlane;fontStyle=0;align=center;verticalAlign=top;childLayout=stackLayout;horizontal=1;startSize=26;horizontalStack=0;resizeParent=1;resizeLast=0;collapsible=1;marginBottom=0;rounded=0;shadow=0;strokeWidth=1;" vertex="1" parent="OHE5dgSZfzQ-zJ2fqGM1-1">
          <mxGeometry x="110" y="-40" width="319" height="620" as="geometry">
            <mxRectangle x="550" y="140" width="160" height="26" as="alternateBounds" />
          </mxGeometry>
        </mxCell>
        <mxCell id="OHE5dgSZfzQ-zJ2fqGM1-32" value="Scheduled Departure Date Key (FK)&#xa;" style="text;align=left;verticalAlign=top;spacingLeft=4;spacingRight=4;overflow=hidden;rotatable=0;points=[[0,0.5],[1,0.5]];portConstraint=eastwest;rounded=0;shadow=0;html=0;" vertex="1" parent="OHE5dgSZfzQ-zJ2fqGM1-31">
          <mxGeometry y="26" width="319" height="26" as="geometry" />
        </mxCell>
        <mxCell id="OHE5dgSZfzQ-zJ2fqGM1-33" value="Actual Departure Date Key (FK) &#xa;" style="text;align=left;verticalAlign=top;spacingLeft=4;spacingRight=4;overflow=hidden;rotatable=0;points=[[0,0.5],[1,0.5]];portConstraint=eastwest;rounded=0;shadow=0;html=0;" vertex="1" parent="OHE5dgSZfzQ-zJ2fqGM1-31">
          <mxGeometry y="52" width="319" height="26" as="geometry" />
        </mxCell>
        <mxCell id="OHE5dgSZfzQ-zJ2fqGM1-34" value="Scheduled Departure Time Key (FK) &#xa;" style="text;align=left;verticalAlign=top;spacingLeft=4;spacingRight=4;overflow=hidden;rotatable=0;points=[[0,0.5],[1,0.5]];portConstraint=eastwest;rounded=0;shadow=0;html=0;" vertex="1" parent="OHE5dgSZfzQ-zJ2fqGM1-31">
          <mxGeometry y="78" width="319" height="26" as="geometry" />
        </mxCell>
        <mxCell id="OHE5dgSZfzQ-zJ2fqGM1-35" value="Actual Departure Time Key (FK) &#xa;" style="text;align=left;verticalAlign=top;spacingLeft=4;spacingRight=4;overflow=hidden;rotatable=0;points=[[0,0.5],[1,0.5]];portConstraint=eastwest;rounded=0;shadow=0;html=0;" vertex="1" parent="OHE5dgSZfzQ-zJ2fqGM1-31">
          <mxGeometry y="104" width="319" height="26" as="geometry" />
        </mxCell>
        <mxCell id="OHE5dgSZfzQ-zJ2fqGM1-36" value="Passenger Key (FK) &#xa;" style="text;align=left;verticalAlign=top;spacingLeft=4;spacingRight=4;overflow=hidden;rotatable=0;points=[[0,0.5],[1,0.5]];portConstraint=eastwest;rounded=0;shadow=0;html=0;" vertex="1" parent="OHE5dgSZfzQ-zJ2fqGM1-31">
          <mxGeometry y="130" width="319" height="26" as="geometry" />
        </mxCell>
        <mxCell id="OHE5dgSZfzQ-zJ2fqGM1-37" value="Segment Origin Airport Key (FK) &#xa;" style="text;align=left;verticalAlign=top;spacingLeft=4;spacingRight=4;overflow=hidden;rotatable=0;points=[[0,0.5],[1,0.5]];portConstraint=eastwest;rounded=0;shadow=0;html=0;" vertex="1" parent="OHE5dgSZfzQ-zJ2fqGM1-31">
          <mxGeometry y="156" width="319" height="26" as="geometry" />
        </mxCell>
        <mxCell id="OHE5dgSZfzQ-zJ2fqGM1-38" value="Segment Destination Airport Key (FK) &#xa;" style="text;align=left;verticalAlign=top;spacingLeft=4;spacingRight=4;overflow=hidden;rotatable=0;points=[[0,0.5],[1,0.5]];portConstraint=eastwest;rounded=0;shadow=0;html=0;" vertex="1" parent="OHE5dgSZfzQ-zJ2fqGM1-31">
          <mxGeometry y="182" width="319" height="26" as="geometry" />
        </mxCell>
        <mxCell id="OHE5dgSZfzQ-zJ2fqGM1-39" value="Aircraft Key (FK) &#xa;" style="text;align=left;verticalAlign=top;spacingLeft=4;spacingRight=4;overflow=hidden;rotatable=0;points=[[0,0.5],[1,0.5]];portConstraint=eastwest;rounded=0;shadow=0;html=0;" vertex="1" parent="OHE5dgSZfzQ-zJ2fqGM1-31">
          <mxGeometry y="208" width="319" height="26" as="geometry" />
        </mxCell>
        <mxCell id="OHE5dgSZfzQ-zJ2fqGM1-40" value="Class of Service Flown Key (FK) &#xa;" style="text;align=left;verticalAlign=top;spacingLeft=4;spacingRight=4;overflow=hidden;rotatable=0;points=[[0,0.5],[1,0.5]];portConstraint=eastwest;rounded=0;shadow=0;html=0;" vertex="1" parent="OHE5dgSZfzQ-zJ2fqGM1-31">
          <mxGeometry y="234" width="319" height="26" as="geometry" />
        </mxCell>
        <mxCell id="OHE5dgSZfzQ-zJ2fqGM1-41" value="Fare Basis Key (FK) &#xa;" style="text;align=left;verticalAlign=top;spacingLeft=4;spacingRight=4;overflow=hidden;rotatable=0;points=[[0,0.5],[1,0.5]];portConstraint=eastwest;rounded=0;shadow=0;html=0;" vertex="1" parent="OHE5dgSZfzQ-zJ2fqGM1-31">
          <mxGeometry y="260" width="319" height="26" as="geometry" />
        </mxCell>
        <mxCell id="OHE5dgSZfzQ-zJ2fqGM1-42" value="Booking Channel Key (FK) &#xa;" style="text;align=left;verticalAlign=top;spacingLeft=4;spacingRight=4;overflow=hidden;rotatable=0;points=[[0,0.5],[1,0.5]];portConstraint=eastwest;rounded=0;shadow=0;html=0;" vertex="1" parent="OHE5dgSZfzQ-zJ2fqGM1-31">
          <mxGeometry y="286" width="319" height="26" as="geometry" />
        </mxCell>
        <mxCell id="OHE5dgSZfzQ-zJ2fqGM1-43" value="Flight Number (FK,TRIP ORIGN AND DES) &#xa;" style="text;align=left;verticalAlign=top;spacingLeft=4;spacingRight=4;overflow=hidden;rotatable=0;points=[[0,0.5],[1,0.5]];portConstraint=eastwest;rounded=0;shadow=0;html=0;" vertex="1" parent="OHE5dgSZfzQ-zJ2fqGM1-31">
          <mxGeometry y="312" width="319" height="26" as="geometry" />
        </mxCell>
        <mxCell id="OHE5dgSZfzQ-zJ2fqGM1-44" value="Confirmation Number (DD) &#xa;" style="text;align=left;verticalAlign=top;spacingLeft=4;spacingRight=4;overflow=hidden;rotatable=0;points=[[0,0.5],[1,0.5]];portConstraint=eastwest;rounded=0;shadow=0;html=0;" vertex="1" parent="OHE5dgSZfzQ-zJ2fqGM1-31">
          <mxGeometry y="338" width="319" height="26" as="geometry" />
        </mxCell>
        <mxCell id="OHE5dgSZfzQ-zJ2fqGM1-45" value="Ticket Number (DD) &#xa;" style="text;align=left;verticalAlign=top;spacingLeft=4;spacingRight=4;overflow=hidden;rotatable=0;points=[[0,0.5],[1,0.5]];portConstraint=eastwest;rounded=0;shadow=0;html=0;" vertex="1" parent="OHE5dgSZfzQ-zJ2fqGM1-31">
          <mxGeometry y="364" width="319" height="26" as="geometry" />
        </mxCell>
        <mxCell id="OHE5dgSZfzQ-zJ2fqGM1-46" value="Segment Number (DD) &#xa;" style="text;align=left;verticalAlign=top;spacingLeft=4;spacingRight=4;overflow=hidden;rotatable=0;points=[[0,0.5],[1,0.5]];portConstraint=eastwest;rounded=0;shadow=0;html=0;" vertex="1" parent="OHE5dgSZfzQ-zJ2fqGM1-31">
          <mxGeometry y="390" width="319" height="26" as="geometry" />
        </mxCell>
        <mxCell id="OHE5dgSZfzQ-zJ2fqGM1-47" value="Flight Number (DD) &#xa;" style="text;align=left;verticalAlign=top;spacingLeft=4;spacingRight=4;overflow=hidden;rotatable=0;points=[[0,0.5],[1,0.5]];portConstraint=eastwest;rounded=0;shadow=0;html=0;" vertex="1" parent="OHE5dgSZfzQ-zJ2fqGM1-31">
          <mxGeometry y="416" width="319" height="26" as="geometry" />
        </mxCell>
        <mxCell id="OHE5dgSZfzQ-zJ2fqGM1-48" value="Flight Duration&#xa;" style="text;align=left;verticalAlign=top;spacingLeft=4;spacingRight=4;overflow=hidden;rotatable=0;points=[[0,0.5],[1,0.5]];portConstraint=eastwest;rounded=0;shadow=0;html=0;" vertex="1" parent="OHE5dgSZfzQ-zJ2fqGM1-31">
          <mxGeometry y="442" width="319" height="26" as="geometry" />
        </mxCell>
        <mxCell id="OHE5dgSZfzQ-zJ2fqGM1-49" value="Flight Cost&#xa;" style="text;align=left;verticalAlign=top;spacingLeft=4;spacingRight=4;overflow=hidden;rotatable=0;points=[[0,0.5],[1,0.5]];portConstraint=eastwest;rounded=0;shadow=0;html=0;" vertex="1" parent="OHE5dgSZfzQ-zJ2fqGM1-31">
          <mxGeometry y="468" width="319" height="26" as="geometry" />
        </mxCell>
        <mxCell id="OHE5dgSZfzQ-zJ2fqGM1-50" value="Flight Revenue&#xa;" style="text;align=left;verticalAlign=top;spacingLeft=4;spacingRight=4;overflow=hidden;rotatable=0;points=[[0,0.5],[1,0.5]];portConstraint=eastwest;rounded=0;shadow=0;html=0;" vertex="1" parent="OHE5dgSZfzQ-zJ2fqGM1-31">
          <mxGeometry y="494" width="319" height="26" as="geometry" />
        </mxCell>
        <mxCell id="OHE5dgSZfzQ-zJ2fqGM1-51" value="Flight Miles&#xa;" style="text;align=left;verticalAlign=top;spacingLeft=4;spacingRight=4;overflow=hidden;rotatable=0;points=[[0,0.5],[1,0.5]];portConstraint=eastwest;rounded=0;shadow=0;html=0;" vertex="1" parent="OHE5dgSZfzQ-zJ2fqGM1-31">
          <mxGeometry y="520" width="319" height="26" as="geometry" />
        </mxCell>
        <mxCell id="OHE5dgSZfzQ-zJ2fqGM1-52" value="Flight Profit&#xa;" style="text;align=left;verticalAlign=top;spacingLeft=4;spacingRight=4;overflow=hidden;rotatable=0;points=[[0,0.5],[1,0.5]];portConstraint=eastwest;rounded=0;shadow=0;html=0;" vertex="1" parent="OHE5dgSZfzQ-zJ2fqGM1-31">
          <mxGeometry y="546" width="319" height="26" as="geometry" />
        </mxCell>
        <mxCell id="OHE5dgSZfzQ-zJ2fqGM1-53" value="Flight Points Earned " style="text;align=left;verticalAlign=top;spacingLeft=4;spacingRight=4;overflow=hidden;rotatable=0;points=[[0,0.5],[1,0.5]];portConstraint=eastwest;rounded=0;shadow=0;html=0;" vertex="1" parent="OHE5dgSZfzQ-zJ2fqGM1-31">
          <mxGeometry y="572" width="319" height="26" as="geometry" />
        </mxCell>
        <mxCell id="OHE5dgSZfzQ-zJ2fqGM1-54" value="Time" style="swimlane;fontStyle=2;align=center;verticalAlign=top;childLayout=stackLayout;horizontal=1;startSize=26;horizontalStack=0;resizeParent=1;resizeLast=0;collapsible=1;marginBottom=0;rounded=0;shadow=0;strokeWidth=1;" vertex="1" parent="OHE5dgSZfzQ-zJ2fqGM1-1">
          <mxGeometry x="-380" y="-470" width="160" height="226" as="geometry">
            <mxRectangle x="230" y="140" width="160" height="26" as="alternateBounds" />
          </mxGeometry>
        </mxCell>
        <mxCell id="OHE5dgSZfzQ-zJ2fqGM1-55" value="" style="line;html=1;strokeWidth=1;align=left;verticalAlign=middle;spacingTop=-1;spacingLeft=3;spacingRight=3;rotatable=0;labelPosition=right;points=[];portConstraint=eastwest;" vertex="1" parent="OHE5dgSZfzQ-zJ2fqGM1-54">
          <mxGeometry y="26" width="160" height="8" as="geometry" />
        </mxCell>
        <mxCell id="OHE5dgSZfzQ-zJ2fqGM1-56" value="Time Key (PK)&#xa;" style="text;align=left;verticalAlign=top;spacingLeft=4;spacingRight=4;overflow=hidden;rotatable=0;points=[[0,0.5],[1,0.5]];portConstraint=eastwest;rounded=0;shadow=0;html=0;" vertex="1" parent="OHE5dgSZfzQ-zJ2fqGM1-54">
          <mxGeometry y="34" width="160" height="26" as="geometry" />
        </mxCell>
        <mxCell id="OHE5dgSZfzQ-zJ2fqGM1-57" value="Time&#xa;" style="text;align=left;verticalAlign=top;spacingLeft=4;spacingRight=4;overflow=hidden;rotatable=0;points=[[0,0.5],[1,0.5]];portConstraint=eastwest;rounded=0;shadow=0;html=0;" vertex="1" parent="OHE5dgSZfzQ-zJ2fqGM1-54">
          <mxGeometry y="60" width="160" height="30" as="geometry" />
        </mxCell>
        <mxCell id="OHE5dgSZfzQ-zJ2fqGM1-58" value="Hour&#xa;" style="text;align=left;verticalAlign=top;spacingLeft=4;spacingRight=4;overflow=hidden;rotatable=0;points=[[0,0.5],[1,0.5]];portConstraint=eastwest;rounded=0;shadow=0;html=0;" vertex="1" parent="OHE5dgSZfzQ-zJ2fqGM1-54">
          <mxGeometry y="90" width="160" height="30" as="geometry" />
        </mxCell>
        <mxCell id="OHE5dgSZfzQ-zJ2fqGM1-59" value="Minute&#xa;" style="text;align=left;verticalAlign=top;spacingLeft=4;spacingRight=4;overflow=hidden;rotatable=0;points=[[0,0.5],[1,0.5]];portConstraint=eastwest;rounded=0;shadow=0;html=0;" vertex="1" parent="OHE5dgSZfzQ-zJ2fqGM1-54">
          <mxGeometry y="120" width="160" height="30" as="geometry" />
        </mxCell>
        <mxCell id="OHE5dgSZfzQ-zJ2fqGM1-60" value="Hour of Day&#xa;" style="text;align=left;verticalAlign=top;spacingLeft=4;spacingRight=4;overflow=hidden;rotatable=0;points=[[0,0.5],[1,0.5]];portConstraint=eastwest;rounded=0;shadow=0;html=0;" vertex="1" parent="OHE5dgSZfzQ-zJ2fqGM1-54">
          <mxGeometry y="150" width="160" height="30" as="geometry" />
        </mxCell>
        <mxCell id="OHE5dgSZfzQ-zJ2fqGM1-61" value="Airport" style="swimlane;fontStyle=2;align=center;verticalAlign=top;childLayout=stackLayout;horizontal=1;startSize=26;horizontalStack=0;resizeParent=1;resizeLast=0;collapsible=1;marginBottom=0;rounded=0;shadow=0;strokeWidth=1;" vertex="1" parent="OHE5dgSZfzQ-zJ2fqGM1-1">
          <mxGeometry x="565" y="-580" width="160" height="268" as="geometry">
            <mxRectangle x="230" y="140" width="160" height="26" as="alternateBounds" />
          </mxGeometry>
        </mxCell>
        <mxCell id="OHE5dgSZfzQ-zJ2fqGM1-62" value="" style="line;html=1;strokeWidth=1;align=left;verticalAlign=middle;spacingTop=-1;spacingLeft=3;spacingRight=3;rotatable=0;labelPosition=right;points=[];portConstraint=eastwest;" vertex="1" parent="OHE5dgSZfzQ-zJ2fqGM1-61">
          <mxGeometry y="26" width="160" height="8" as="geometry" />
        </mxCell>
        <mxCell id="OHE5dgSZfzQ-zJ2fqGM1-63" value="Airport Key (PK)&#xa;" style="text;align=left;verticalAlign=top;spacingLeft=4;spacingRight=4;overflow=hidden;rotatable=0;points=[[0,0.5],[1,0.5]];portConstraint=eastwest;rounded=0;shadow=0;html=0;" vertex="1" parent="OHE5dgSZfzQ-zJ2fqGM1-61">
          <mxGeometry y="34" width="160" height="26" as="geometry" />
        </mxCell>
        <mxCell id="OHE5dgSZfzQ-zJ2fqGM1-64" value="Airport Code&#xa;" style="text;align=left;verticalAlign=top;spacingLeft=4;spacingRight=4;overflow=hidden;rotatable=0;points=[[0,0.5],[1,0.5]];portConstraint=eastwest;rounded=0;shadow=0;html=0;" vertex="1" parent="OHE5dgSZfzQ-zJ2fqGM1-61">
          <mxGeometry y="60" width="160" height="26" as="geometry" />
        </mxCell>
        <mxCell id="OHE5dgSZfzQ-zJ2fqGM1-65" value="Airport Name&#xa;" style="text;align=left;verticalAlign=top;spacingLeft=4;spacingRight=4;overflow=hidden;rotatable=0;points=[[0,0.5],[1,0.5]];portConstraint=eastwest;rounded=0;shadow=0;html=0;" vertex="1" parent="OHE5dgSZfzQ-zJ2fqGM1-61">
          <mxGeometry y="86" width="160" height="26" as="geometry" />
        </mxCell>
        <mxCell id="OHE5dgSZfzQ-zJ2fqGM1-66" value="City&#xa;" style="text;align=left;verticalAlign=top;spacingLeft=4;spacingRight=4;overflow=hidden;rotatable=0;points=[[0,0.5],[1,0.5]];portConstraint=eastwest;rounded=0;shadow=0;html=0;" vertex="1" parent="OHE5dgSZfzQ-zJ2fqGM1-61">
          <mxGeometry y="112" width="160" height="26" as="geometry" />
        </mxCell>
        <mxCell id="OHE5dgSZfzQ-zJ2fqGM1-67" value="Country&#xa;" style="text;align=left;verticalAlign=top;spacingLeft=4;spacingRight=4;overflow=hidden;rotatable=0;points=[[0,0.5],[1,0.5]];portConstraint=eastwest;rounded=0;shadow=0;html=0;" vertex="1" parent="OHE5dgSZfzQ-zJ2fqGM1-61">
          <mxGeometry y="138" width="160" height="26" as="geometry" />
        </mxCell>
        <mxCell id="OHE5dgSZfzQ-zJ2fqGM1-68" value="Timezone&#xa;" style="text;align=left;verticalAlign=top;spacingLeft=4;spacingRight=4;overflow=hidden;rotatable=0;points=[[0,0.5],[1,0.5]];portConstraint=eastwest;rounded=0;shadow=0;html=0;" vertex="1" parent="OHE5dgSZfzQ-zJ2fqGM1-61">
          <mxGeometry y="164" width="160" height="26" as="geometry" />
        </mxCell>
        <mxCell id="OHE5dgSZfzQ-zJ2fqGM1-69" value="Latitude&#xa;" style="text;align=left;verticalAlign=top;spacingLeft=4;spacingRight=4;overflow=hidden;rotatable=0;points=[[0,0.5],[1,0.5]];portConstraint=eastwest;rounded=0;shadow=0;html=0;" vertex="1" parent="OHE5dgSZfzQ-zJ2fqGM1-61">
          <mxGeometry y="190" width="160" height="26" as="geometry" />
        </mxCell>
        <mxCell id="OHE5dgSZfzQ-zJ2fqGM1-70" value="Longitude&#xa;" style="text;align=left;verticalAlign=top;spacingLeft=4;spacingRight=4;overflow=hidden;rotatable=0;points=[[0,0.5],[1,0.5]];portConstraint=eastwest;rounded=0;shadow=0;html=0;" vertex="1" parent="OHE5dgSZfzQ-zJ2fqGM1-61">
          <mxGeometry y="216" width="160" height="26" as="geometry" />
        </mxCell>
        <mxCell id="OHE5dgSZfzQ-zJ2fqGM1-71" value="Airport Type&#xa;" style="text;align=left;verticalAlign=top;spacingLeft=4;spacingRight=4;overflow=hidden;rotatable=0;points=[[0,0.5],[1,0.5]];portConstraint=eastwest;rounded=0;shadow=0;html=0;" vertex="1" parent="OHE5dgSZfzQ-zJ2fqGM1-61">
          <mxGeometry y="242" width="160" height="26" as="geometry" />
        </mxCell>
        <mxCell id="OHE5dgSZfzQ-zJ2fqGM1-72" value="Aircraft" style="swimlane;fontStyle=2;align=center;verticalAlign=top;childLayout=stackLayout;horizontal=1;startSize=26;horizontalStack=0;resizeParent=1;resizeLast=0;collapsible=1;marginBottom=0;rounded=0;shadow=0;strokeWidth=1;" vertex="1" parent="OHE5dgSZfzQ-zJ2fqGM1-1">
          <mxGeometry x="-380" y="-170" width="160" height="304" as="geometry">
            <mxRectangle x="230" y="140" width="160" height="26" as="alternateBounds" />
          </mxGeometry>
        </mxCell>
        <mxCell id="OHE5dgSZfzQ-zJ2fqGM1-73" value="" style="line;html=1;strokeWidth=1;align=left;verticalAlign=middle;spacingTop=-1;spacingLeft=3;spacingRight=3;rotatable=0;labelPosition=right;points=[];portConstraint=eastwest;" vertex="1" parent="OHE5dgSZfzQ-zJ2fqGM1-72">
          <mxGeometry y="26" width="160" height="8" as="geometry" />
        </mxCell>
        <mxCell id="OHE5dgSZfzQ-zJ2fqGM1-74" value="Aircraft Key (PK)&#xa;" style="text;align=left;verticalAlign=top;spacingLeft=4;spacingRight=4;overflow=hidden;rotatable=0;points=[[0,0.5],[1,0.5]];portConstraint=eastwest;rounded=0;shadow=0;html=0;" vertex="1" parent="OHE5dgSZfzQ-zJ2fqGM1-72">
          <mxGeometry y="34" width="160" height="30" as="geometry" />
        </mxCell>
        <mxCell id="OHE5dgSZfzQ-zJ2fqGM1-75" value="Aircraft Code&#xa;" style="text;align=left;verticalAlign=top;spacingLeft=4;spacingRight=4;overflow=hidden;rotatable=0;points=[[0,0.5],[1,0.5]];portConstraint=eastwest;rounded=0;shadow=0;html=0;" vertex="1" parent="OHE5dgSZfzQ-zJ2fqGM1-72">
          <mxGeometry y="64" width="160" height="30" as="geometry" />
        </mxCell>
        <mxCell id="OHE5dgSZfzQ-zJ2fqGM1-76" value="Aircraft Type&#xa;" style="text;align=left;verticalAlign=top;spacingLeft=4;spacingRight=4;overflow=hidden;rotatable=0;points=[[0,0.5],[1,0.5]];portConstraint=eastwest;rounded=0;shadow=0;html=0;" vertex="1" parent="OHE5dgSZfzQ-zJ2fqGM1-72">
          <mxGeometry y="94" width="160" height="30" as="geometry" />
        </mxCell>
        <mxCell id="OHE5dgSZfzQ-zJ2fqGM1-77" value="Manufacturer&#xa;" style="text;align=left;verticalAlign=top;spacingLeft=4;spacingRight=4;overflow=hidden;rotatable=0;points=[[0,0.5],[1,0.5]];portConstraint=eastwest;rounded=0;shadow=0;html=0;" vertex="1" parent="OHE5dgSZfzQ-zJ2fqGM1-72">
          <mxGeometry y="124" width="160" height="30" as="geometry" />
        </mxCell>
        <mxCell id="OHE5dgSZfzQ-zJ2fqGM1-78" value="Model&#xa;" style="text;align=left;verticalAlign=top;spacingLeft=4;spacingRight=4;overflow=hidden;rotatable=0;points=[[0,0.5],[1,0.5]];portConstraint=eastwest;rounded=0;shadow=0;html=0;" vertex="1" parent="OHE5dgSZfzQ-zJ2fqGM1-72">
          <mxGeometry y="154" width="160" height="30" as="geometry" />
        </mxCell>
        <mxCell id="OHE5dgSZfzQ-zJ2fqGM1-79" value="Year of Manufacture&#xa;" style="text;align=left;verticalAlign=top;spacingLeft=4;spacingRight=4;overflow=hidden;rotatable=0;points=[[0,0.5],[1,0.5]];portConstraint=eastwest;rounded=0;shadow=0;html=0;" vertex="1" parent="OHE5dgSZfzQ-zJ2fqGM1-72">
          <mxGeometry y="184" width="160" height="30" as="geometry" />
        </mxCell>
        <mxCell id="OHE5dgSZfzQ-zJ2fqGM1-80" value="Seating Capacity&#xa;" style="text;align=left;verticalAlign=top;spacingLeft=4;spacingRight=4;overflow=hidden;rotatable=0;points=[[0,0.5],[1,0.5]];portConstraint=eastwest;rounded=0;shadow=0;html=0;" vertex="1" parent="OHE5dgSZfzQ-zJ2fqGM1-72">
          <mxGeometry y="214" width="160" height="30" as="geometry" />
        </mxCell>
        <mxCell id="OHE5dgSZfzQ-zJ2fqGM1-81" value="Maximum Range&#xa;" style="text;align=left;verticalAlign=top;spacingLeft=4;spacingRight=4;overflow=hidden;rotatable=0;points=[[0,0.5],[1,0.5]];portConstraint=eastwest;rounded=0;shadow=0;html=0;" vertex="1" parent="OHE5dgSZfzQ-zJ2fqGM1-72">
          <mxGeometry y="244" width="160" height="30" as="geometry" />
        </mxCell>
        <mxCell id="OHE5dgSZfzQ-zJ2fqGM1-82" value="Operating Weight&#xa;" style="text;align=left;verticalAlign=top;spacingLeft=4;spacingRight=4;overflow=hidden;rotatable=0;points=[[0,0.5],[1,0.5]];portConstraint=eastwest;rounded=0;shadow=0;html=0;" vertex="1" parent="OHE5dgSZfzQ-zJ2fqGM1-72">
          <mxGeometry y="274" width="160" height="30" as="geometry" />
        </mxCell>
        <mxCell id="OHE5dgSZfzQ-zJ2fqGM1-83" value="Fare basis" style="swimlane;fontStyle=2;align=center;verticalAlign=top;childLayout=stackLayout;horizontal=1;startSize=26;horizontalStack=0;resizeParent=1;resizeLast=0;collapsible=1;marginBottom=0;rounded=0;shadow=0;strokeWidth=1;" vertex="1" parent="OHE5dgSZfzQ-zJ2fqGM1-1">
          <mxGeometry x="565" y="730" width="160" height="190" as="geometry">
            <mxRectangle x="230" y="140" width="160" height="26" as="alternateBounds" />
          </mxGeometry>
        </mxCell>
        <mxCell id="OHE5dgSZfzQ-zJ2fqGM1-84" value="" style="line;html=1;strokeWidth=1;align=left;verticalAlign=middle;spacingTop=-1;spacingLeft=3;spacingRight=3;rotatable=0;labelPosition=right;points=[];portConstraint=eastwest;" vertex="1" parent="OHE5dgSZfzQ-zJ2fqGM1-83">
          <mxGeometry y="26" width="160" height="8" as="geometry" />
        </mxCell>
        <mxCell id="OHE5dgSZfzQ-zJ2fqGM1-85" value="Fare Basis Key (PK)&#xa;" style="text;align=left;verticalAlign=top;spacingLeft=4;spacingRight=4;overflow=hidden;rotatable=0;points=[[0,0.5],[1,0.5]];portConstraint=eastwest;rounded=0;shadow=0;html=0;" vertex="1" parent="OHE5dgSZfzQ-zJ2fqGM1-83">
          <mxGeometry y="34" width="160" height="26" as="geometry" />
        </mxCell>
        <mxCell id="OHE5dgSZfzQ-zJ2fqGM1-86" value="Fare Basis Code&#xa;" style="text;align=left;verticalAlign=top;spacingLeft=4;spacingRight=4;overflow=hidden;rotatable=0;points=[[0,0.5],[1,0.5]];portConstraint=eastwest;rounded=0;shadow=0;html=0;" vertex="1" parent="OHE5dgSZfzQ-zJ2fqGM1-83">
          <mxGeometry y="60" width="160" height="26" as="geometry" />
        </mxCell>
        <mxCell id="OHE5dgSZfzQ-zJ2fqGM1-87" value="Fare Description&#xa;" style="text;align=left;verticalAlign=top;spacingLeft=4;spacingRight=4;overflow=hidden;rotatable=0;points=[[0,0.5],[1,0.5]];portConstraint=eastwest;rounded=0;shadow=0;html=0;" vertex="1" parent="OHE5dgSZfzQ-zJ2fqGM1-83">
          <mxGeometry y="86" width="160" height="26" as="geometry" />
        </mxCell>
        <mxCell id="OHE5dgSZfzQ-zJ2fqGM1-88" value="Fare Type&#xa;" style="text;align=left;verticalAlign=top;spacingLeft=4;spacingRight=4;overflow=hidden;rotatable=0;points=[[0,0.5],[1,0.5]];portConstraint=eastwest;rounded=0;shadow=0;html=0;" vertex="1" parent="OHE5dgSZfzQ-zJ2fqGM1-83">
          <mxGeometry y="112" width="160" height="26" as="geometry" />
        </mxCell>
        <mxCell id="OHE5dgSZfzQ-zJ2fqGM1-89" value="Restrictions&#xa;" style="text;align=left;verticalAlign=top;spacingLeft=4;spacingRight=4;overflow=hidden;rotatable=0;points=[[0,0.5],[1,0.5]];portConstraint=eastwest;rounded=0;shadow=0;html=0;" vertex="1" parent="OHE5dgSZfzQ-zJ2fqGM1-83">
          <mxGeometry y="138" width="160" height="26" as="geometry" />
        </mxCell>
        <mxCell id="OHE5dgSZfzQ-zJ2fqGM1-90" value="Discount Percentage&#xa;" style="text;align=left;verticalAlign=top;spacingLeft=4;spacingRight=4;overflow=hidden;rotatable=0;points=[[0,0.5],[1,0.5]];portConstraint=eastwest;rounded=0;shadow=0;html=0;" vertex="1" parent="OHE5dgSZfzQ-zJ2fqGM1-83">
          <mxGeometry y="164" width="160" height="26" as="geometry" />
        </mxCell>
        <mxCell id="OHE5dgSZfzQ-zJ2fqGM1-91" value="flight" style="swimlane;fontStyle=0;childLayout=stackLayout;horizontal=1;startSize=26;fillColor=none;horizontalStack=0;resizeParent=1;resizeParentMax=0;resizeLast=0;collapsible=1;marginBottom=0;whiteSpace=wrap;html=1;" vertex="1" parent="OHE5dgSZfzQ-zJ2fqGM1-1">
          <mxGeometry x="-385" y="210" width="170" height="182" as="geometry" />
        </mxCell>
        <mxCell id="OHE5dgSZfzQ-zJ2fqGM1-92" value="Flight id (PK)" style="text;strokeColor=none;fillColor=none;align=left;verticalAlign=top;spacingLeft=4;spacingRight=4;overflow=hidden;rotatable=0;points=[[0,0.5],[1,0.5]];portConstraint=eastwest;whiteSpace=wrap;html=1;" vertex="1" parent="OHE5dgSZfzQ-zJ2fqGM1-91">
          <mxGeometry y="26" width="170" height="26" as="geometry" />
        </mxCell>
        <mxCell id="OHE5dgSZfzQ-zJ2fqGM1-93" value="Departure city" style="text;strokeColor=none;fillColor=none;align=left;verticalAlign=top;spacingLeft=4;spacingRight=4;overflow=hidden;rotatable=0;points=[[0,0.5],[1,0.5]];portConstraint=eastwest;whiteSpace=wrap;html=1;" vertex="1" parent="OHE5dgSZfzQ-zJ2fqGM1-91">
          <mxGeometry y="52" width="170" height="26" as="geometry" />
        </mxCell>
        <mxCell id="OHE5dgSZfzQ-zJ2fqGM1-94" value="Arrival city" style="text;strokeColor=none;fillColor=none;align=left;verticalAlign=top;spacingLeft=4;spacingRight=4;overflow=hidden;rotatable=0;points=[[0,0.5],[1,0.5]];portConstraint=eastwest;whiteSpace=wrap;html=1;" vertex="1" parent="OHE5dgSZfzQ-zJ2fqGM1-91">
          <mxGeometry y="78" width="170" height="26" as="geometry" />
        </mxCell>
        <mxCell id="OHE5dgSZfzQ-zJ2fqGM1-95" value="Departure Date and Time" style="text;strokeColor=none;fillColor=none;align=left;verticalAlign=top;spacingLeft=4;spacingRight=4;overflow=hidden;rotatable=0;points=[[0,0.5],[1,0.5]];portConstraint=eastwest;whiteSpace=wrap;html=1;" vertex="1" parent="OHE5dgSZfzQ-zJ2fqGM1-91">
          <mxGeometry y="104" width="170" height="26" as="geometry" />
        </mxCell>
        <mxCell id="OHE5dgSZfzQ-zJ2fqGM1-96" value="Arrival Date and Time" style="text;strokeColor=none;fillColor=none;align=left;verticalAlign=top;spacingLeft=4;spacingRight=4;overflow=hidden;rotatable=0;points=[[0,0.5],[1,0.5]];portConstraint=eastwest;whiteSpace=wrap;html=1;" vertex="1" parent="OHE5dgSZfzQ-zJ2fqGM1-91">
          <mxGeometry y="130" width="170" height="26" as="geometry" />
        </mxCell>
        <mxCell id="OHE5dgSZfzQ-zJ2fqGM1-97" value="Aircraft Type" style="text;strokeColor=none;fillColor=none;align=left;verticalAlign=top;spacingLeft=4;spacingRight=4;overflow=hidden;rotatable=0;points=[[0,0.5],[1,0.5]];portConstraint=eastwest;whiteSpace=wrap;html=1;" vertex="1" parent="OHE5dgSZfzQ-zJ2fqGM1-91">
          <mxGeometry y="156" width="170" height="26" as="geometry" />
        </mxCell>
        <mxCell id="OHE5dgSZfzQ-zJ2fqGM1-98" value="Customer Care" style="swimlane;fontStyle=0;align=center;verticalAlign=top;childLayout=stackLayout;horizontal=1;startSize=26;horizontalStack=0;resizeParent=1;resizeLast=0;collapsible=1;marginBottom=0;rounded=0;shadow=0;strokeWidth=1;" vertex="1" parent="OHE5dgSZfzQ-zJ2fqGM1-1">
          <mxGeometry x="99" y="630" width="330" height="280" as="geometry">
            <mxRectangle x="550" y="140" width="160" height="26" as="alternateBounds" />
          </mxGeometry>
        </mxCell>
        <mxCell id="OHE5dgSZfzQ-zJ2fqGM1-99" value="date key (FK)" style="text;align=left;verticalAlign=top;spacingLeft=4;spacingRight=4;overflow=hidden;rotatable=0;points=[[0,0.5],[1,0.5]];portConstraint=eastwest;" vertex="1" parent="OHE5dgSZfzQ-zJ2fqGM1-98">
          <mxGeometry y="26" width="330" height="22" as="geometry" />
        </mxCell>
        <mxCell id="OHE5dgSZfzQ-zJ2fqGM1-100" value="passanger key (FK)" style="text;align=left;verticalAlign=top;spacingLeft=4;spacingRight=4;overflow=hidden;rotatable=0;points=[[0,0.5],[1,0.5]];portConstraint=eastwest;rounded=0;shadow=0;html=0;" vertex="1" parent="OHE5dgSZfzQ-zJ2fqGM1-98">
          <mxGeometry y="48" width="330" height="26" as="geometry" />
        </mxCell>
        <mxCell id="OHE5dgSZfzQ-zJ2fqGM1-101" value="flight key (FK)" style="text;align=left;verticalAlign=top;spacingLeft=4;spacingRight=4;overflow=hidden;rotatable=0;points=[[0,0.5],[1,0.5]];portConstraint=eastwest;rounded=0;shadow=0;html=0;" vertex="1" parent="OHE5dgSZfzQ-zJ2fqGM1-98">
          <mxGeometry y="74" width="330" height="26" as="geometry" />
        </mxCell>
        <mxCell id="OHE5dgSZfzQ-zJ2fqGM1-102" value="interaction key (FK)" style="text;align=left;verticalAlign=top;spacingLeft=4;spacingRight=4;overflow=hidden;rotatable=0;points=[[0,0.5],[1,0.5]];portConstraint=eastwest;rounded=0;shadow=0;html=0;" vertex="1" parent="OHE5dgSZfzQ-zJ2fqGM1-98">
          <mxGeometry y="100" width="330" height="26" as="geometry" />
        </mxCell>
        <mxCell id="OHE5dgSZfzQ-zJ2fqGM1-103" value="channel key (FK)&#xa;" style="text;align=left;verticalAlign=top;spacingLeft=4;spacingRight=4;overflow=hidden;rotatable=0;points=[[0,0.5],[1,0.5]];portConstraint=eastwest;rounded=0;shadow=0;html=0;" vertex="1" parent="OHE5dgSZfzQ-zJ2fqGM1-98">
          <mxGeometry y="126" width="330" height="26" as="geometry" />
        </mxCell>
        <mxCell id="OHE5dgSZfzQ-zJ2fqGM1-104" value="employee key (FK)" style="text;align=left;verticalAlign=top;spacingLeft=4;spacingRight=4;overflow=hidden;rotatable=0;points=[[0,0.5],[1,0.5]];portConstraint=eastwest;" vertex="1" parent="OHE5dgSZfzQ-zJ2fqGM1-98">
          <mxGeometry y="152" width="330" height="22" as="geometry" />
        </mxCell>
        <mxCell id="OHE5dgSZfzQ-zJ2fqGM1-105" value="problem key (FK)" style="text;align=left;verticalAlign=top;spacingLeft=4;spacingRight=4;overflow=hidden;rotatable=0;points=[[0,0.5],[1,0.5]];portConstraint=eastwest;rounded=0;shadow=0;html=0;" vertex="1" parent="OHE5dgSZfzQ-zJ2fqGM1-98">
          <mxGeometry y="174" width="330" height="26" as="geometry" />
        </mxCell>
        <mxCell id="OHE5dgSZfzQ-zJ2fqGM1-106" value="description (DD)" style="text;align=left;verticalAlign=top;spacingLeft=4;spacingRight=4;overflow=hidden;rotatable=0;points=[[0,0.5],[1,0.5]];portConstraint=eastwest;" vertex="1" parent="OHE5dgSZfzQ-zJ2fqGM1-98">
          <mxGeometry y="200" width="330" height="26" as="geometry" />
        </mxCell>
        <mxCell id="OHE5dgSZfzQ-zJ2fqGM1-107" value="" style="line;html=1;strokeWidth=1;align=left;verticalAlign=middle;spacingTop=-1;spacingLeft=3;spacingRight=3;rotatable=0;labelPosition=right;points=[];portConstraint=eastwest;" vertex="1" parent="OHE5dgSZfzQ-zJ2fqGM1-98">
          <mxGeometry y="226" width="330" height="8" as="geometry" />
        </mxCell>
        <mxCell id="OHE5dgSZfzQ-zJ2fqGM1-108" value="feedback  rate" style="text;align=left;verticalAlign=top;spacingLeft=4;spacingRight=4;overflow=hidden;rotatable=0;points=[[0,0.5],[1,0.5]];portConstraint=eastwest;" vertex="1" parent="OHE5dgSZfzQ-zJ2fqGM1-98">
          <mxGeometry y="234" width="330" height="26" as="geometry" />
        </mxCell>
        <mxCell id="OHE5dgSZfzQ-zJ2fqGM1-109" value="Customer Service&amp;nbsp;" style="swimlane;fontStyle=0;childLayout=stackLayout;horizontal=1;startSize=26;fillColor=none;horizontalStack=0;resizeParent=1;resizeParentMax=0;resizeLast=0;collapsible=1;marginBottom=0;whiteSpace=wrap;html=1;" vertex="1" parent="OHE5dgSZfzQ-zJ2fqGM1-1">
          <mxGeometry x="-370" y="600" width="140" height="104" as="geometry" />
        </mxCell>
        <mxCell id="OHE5dgSZfzQ-zJ2fqGM1-110" value="&lt;span style=&quot;text-wrap: nowrap;&quot;&gt;Employee Key (PK)&lt;/span&gt;" style="text;strokeColor=none;fillColor=none;align=left;verticalAlign=top;spacingLeft=4;spacingRight=4;overflow=hidden;rotatable=0;points=[[0,0.5],[1,0.5]];portConstraint=eastwest;whiteSpace=wrap;html=1;" vertex="1" parent="OHE5dgSZfzQ-zJ2fqGM1-109">
          <mxGeometry y="26" width="140" height="26" as="geometry" />
        </mxCell>
        <mxCell id="OHE5dgSZfzQ-zJ2fqGM1-111" value="Employee id" style="text;strokeColor=none;fillColor=none;align=left;verticalAlign=top;spacingLeft=4;spacingRight=4;overflow=hidden;rotatable=0;points=[[0,0.5],[1,0.5]];portConstraint=eastwest;whiteSpace=wrap;html=1;" vertex="1" parent="OHE5dgSZfzQ-zJ2fqGM1-109">
          <mxGeometry y="52" width="140" height="26" as="geometry" />
        </mxCell>
        <mxCell id="OHE5dgSZfzQ-zJ2fqGM1-112" value="Employee Name" style="text;strokeColor=none;fillColor=none;align=left;verticalAlign=top;spacingLeft=4;spacingRight=4;overflow=hidden;rotatable=0;points=[[0,0.5],[1,0.5]];portConstraint=eastwest;whiteSpace=wrap;html=1;" vertex="1" parent="OHE5dgSZfzQ-zJ2fqGM1-109">
          <mxGeometry y="78" width="140" height="26" as="geometry" />
        </mxCell>
        <mxCell id="OHE5dgSZfzQ-zJ2fqGM1-113" value="interaction" style="swimlane;fontStyle=0;childLayout=stackLayout;horizontal=1;startSize=26;fillColor=none;horizontalStack=0;resizeParent=1;resizeParentMax=0;resizeLast=0;collapsible=1;marginBottom=0;whiteSpace=wrap;html=1;" vertex="1" parent="OHE5dgSZfzQ-zJ2fqGM1-1">
          <mxGeometry x="-370" y="890" width="140" height="130" as="geometry" />
        </mxCell>
        <mxCell id="OHE5dgSZfzQ-zJ2fqGM1-114" value="&lt;span style=&quot;text-wrap: nowrap;&quot;&gt;interaction key (PK)&lt;/span&gt;" style="text;strokeColor=none;fillColor=none;align=left;verticalAlign=top;spacingLeft=4;spacingRight=4;overflow=hidden;rotatable=0;points=[[0,0.5],[1,0.5]];portConstraint=eastwest;whiteSpace=wrap;html=1;" vertex="1" parent="OHE5dgSZfzQ-zJ2fqGM1-113">
          <mxGeometry y="26" width="140" height="26" as="geometry" />
        </mxCell>
        <mxCell id="OHE5dgSZfzQ-zJ2fqGM1-115" value="interaction id" style="text;strokeColor=none;fillColor=none;align=left;verticalAlign=top;spacingLeft=4;spacingRight=4;overflow=hidden;rotatable=0;points=[[0,0.5],[1,0.5]];portConstraint=eastwest;whiteSpace=wrap;html=1;" vertex="1" parent="OHE5dgSZfzQ-zJ2fqGM1-113">
          <mxGeometry y="52" width="140" height="26" as="geometry" />
        </mxCell>
        <mxCell id="OHE5dgSZfzQ-zJ2fqGM1-116" value="type" style="text;strokeColor=none;fillColor=none;align=left;verticalAlign=top;spacingLeft=4;spacingRight=4;overflow=hidden;rotatable=0;points=[[0,0.5],[1,0.5]];portConstraint=eastwest;whiteSpace=wrap;html=1;" vertex="1" parent="OHE5dgSZfzQ-zJ2fqGM1-113">
          <mxGeometry y="78" width="140" height="26" as="geometry" />
        </mxCell>
        <mxCell id="OHE5dgSZfzQ-zJ2fqGM1-117" value="time" style="text;strokeColor=none;fillColor=none;align=left;verticalAlign=top;spacingLeft=4;spacingRight=4;overflow=hidden;rotatable=0;points=[[0,0.5],[1,0.5]];portConstraint=eastwest;whiteSpace=wrap;html=1;" vertex="1" parent="OHE5dgSZfzQ-zJ2fqGM1-113">
          <mxGeometry y="104" width="140" height="26" as="geometry" />
        </mxCell>
        <mxCell id="OHE5dgSZfzQ-zJ2fqGM1-118" value="problem" style="swimlane;fontStyle=0;childLayout=stackLayout;horizontal=1;startSize=26;fillColor=none;horizontalStack=0;resizeParent=1;resizeParentMax=0;resizeLast=0;collapsible=1;marginBottom=0;whiteSpace=wrap;html=1;" vertex="1" parent="OHE5dgSZfzQ-zJ2fqGM1-1">
          <mxGeometry x="-370" y="740" width="140" height="130" as="geometry" />
        </mxCell>
        <mxCell id="OHE5dgSZfzQ-zJ2fqGM1-119" value="problem key (PK)" style="text;strokeColor=none;fillColor=none;align=left;verticalAlign=top;spacingLeft=4;spacingRight=4;overflow=hidden;rotatable=0;points=[[0,0.5],[1,0.5]];portConstraint=eastwest;whiteSpace=wrap;html=1;" vertex="1" parent="OHE5dgSZfzQ-zJ2fqGM1-118">
          <mxGeometry y="26" width="140" height="26" as="geometry" />
        </mxCell>
        <mxCell id="OHE5dgSZfzQ-zJ2fqGM1-120" value="problem id" style="text;strokeColor=none;fillColor=none;align=left;verticalAlign=top;spacingLeft=4;spacingRight=4;overflow=hidden;rotatable=0;points=[[0,0.5],[1,0.5]];portConstraint=eastwest;whiteSpace=wrap;html=1;" vertex="1" parent="OHE5dgSZfzQ-zJ2fqGM1-118">
          <mxGeometry y="52" width="140" height="26" as="geometry" />
        </mxCell>
        <mxCell id="OHE5dgSZfzQ-zJ2fqGM1-121" value="problem type" style="text;strokeColor=none;fillColor=none;align=left;verticalAlign=top;spacingLeft=4;spacingRight=4;overflow=hidden;rotatable=0;points=[[0,0.5],[1,0.5]];portConstraint=eastwest;whiteSpace=wrap;html=1;" vertex="1" parent="OHE5dgSZfzQ-zJ2fqGM1-118">
          <mxGeometry y="78" width="140" height="26" as="geometry" />
        </mxCell>
        <mxCell id="OHE5dgSZfzQ-zJ2fqGM1-122" value="problem seevrity" style="text;strokeColor=none;fillColor=none;align=left;verticalAlign=top;spacingLeft=4;spacingRight=4;overflow=hidden;rotatable=0;points=[[0,0.5],[1,0.5]];portConstraint=eastwest;whiteSpace=wrap;html=1;" vertex="1" parent="OHE5dgSZfzQ-zJ2fqGM1-118">
          <mxGeometry y="104" width="140" height="26" as="geometry" />
        </mxCell>
        <mxCell id="OHE5dgSZfzQ-zJ2fqGM1-123" value="channel" style="swimlane;fontStyle=0;childLayout=stackLayout;horizontal=1;startSize=26;fillColor=none;horizontalStack=0;resizeParent=1;resizeParentMax=0;resizeLast=0;collapsible=1;marginBottom=0;whiteSpace=wrap;html=1;" vertex="1" parent="OHE5dgSZfzQ-zJ2fqGM1-1">
          <mxGeometry x="-370" y="450" width="140" height="84" as="geometry">
            <mxRectangle x="500" y="410" width="80" height="30" as="alternateBounds" />
          </mxGeometry>
        </mxCell>
        <mxCell id="OHE5dgSZfzQ-zJ2fqGM1-124" value="channel key (PK)" style="text;strokeColor=none;fillColor=none;align=left;verticalAlign=top;spacingLeft=4;spacingRight=4;overflow=hidden;rotatable=0;points=[[0,0.5],[1,0.5]];portConstraint=eastwest;whiteSpace=wrap;html=1;" vertex="1" parent="OHE5dgSZfzQ-zJ2fqGM1-123">
          <mxGeometry y="26" width="140" height="32" as="geometry" />
        </mxCell>
        <mxCell id="OHE5dgSZfzQ-zJ2fqGM1-125" value="channel type" style="text;strokeColor=none;fillColor=none;align=left;verticalAlign=top;spacingLeft=4;spacingRight=4;overflow=hidden;rotatable=0;points=[[0,0.5],[1,0.5]];portConstraint=eastwest;whiteSpace=wrap;html=1;" vertex="1" parent="OHE5dgSZfzQ-zJ2fqGM1-123">
          <mxGeometry y="58" width="140" height="26" as="geometry" />
        </mxCell>
        <mxCell id="OHE5dgSZfzQ-zJ2fqGM1-126" value="Reservation Fact" style="swimlane;fontStyle=0;align=center;verticalAlign=top;childLayout=stackLayout;horizontal=1;startSize=26;horizontalStack=0;resizeParent=1;resizeLast=0;collapsible=1;marginBottom=0;rounded=0;shadow=0;strokeWidth=1;" vertex="1" parent="OHE5dgSZfzQ-zJ2fqGM1-1">
          <mxGeometry x="110" y="-540" width="319" height="450" as="geometry">
            <mxRectangle x="550" y="140" width="160" height="26" as="alternateBounds" />
          </mxGeometry>
        </mxCell>
        <mxCell id="OHE5dgSZfzQ-zJ2fqGM1-127" value="Date Key (FK) &#xa;" style="text;align=left;verticalAlign=top;spacingLeft=4;spacingRight=4;overflow=hidden;rotatable=0;points=[[0,0.5],[1,0.5]];portConstraint=eastwest;rounded=0;shadow=0;html=0;" vertex="1" parent="OHE5dgSZfzQ-zJ2fqGM1-126">
          <mxGeometry y="26" width="319" height="26" as="geometry" />
        </mxCell>
        <mxCell id="OHE5dgSZfzQ-zJ2fqGM1-128" value="Scheduled Departure Date Key (FK)&#xa;" style="text;align=left;verticalAlign=top;spacingLeft=4;spacingRight=4;overflow=hidden;rotatable=0;points=[[0,0.5],[1,0.5]];portConstraint=eastwest;rounded=0;shadow=0;html=0;" vertex="1" parent="OHE5dgSZfzQ-zJ2fqGM1-126">
          <mxGeometry y="52" width="319" height="26" as="geometry" />
        </mxCell>
        <mxCell id="OHE5dgSZfzQ-zJ2fqGM1-129" value="Scheduled Departure Time Key (FK) &#xa;" style="text;align=left;verticalAlign=top;spacingLeft=4;spacingRight=4;overflow=hidden;rotatable=0;points=[[0,0.5],[1,0.5]];portConstraint=eastwest;rounded=0;shadow=0;html=0;" vertex="1" parent="OHE5dgSZfzQ-zJ2fqGM1-126">
          <mxGeometry y="78" width="319" height="26" as="geometry" />
        </mxCell>
        <mxCell id="OHE5dgSZfzQ-zJ2fqGM1-130" value="Passenger Key (FK) &#xa;" style="text;align=left;verticalAlign=top;spacingLeft=4;spacingRight=4;overflow=hidden;rotatable=0;points=[[0,0.5],[1,0.5]];portConstraint=eastwest;rounded=0;shadow=0;html=0;" vertex="1" parent="OHE5dgSZfzQ-zJ2fqGM1-126">
          <mxGeometry y="104" width="319" height="26" as="geometry" />
        </mxCell>
        <mxCell id="OHE5dgSZfzQ-zJ2fqGM1-131" value="Trip Origin Airport Key (FK) &#xa;" style="text;align=left;verticalAlign=top;spacingLeft=4;spacingRight=4;overflow=hidden;rotatable=0;points=[[0,0.5],[1,0.5]];portConstraint=eastwest;rounded=0;shadow=0;html=0;" vertex="1" parent="OHE5dgSZfzQ-zJ2fqGM1-126">
          <mxGeometry y="130" width="319" height="26" as="geometry" />
        </mxCell>
        <mxCell id="OHE5dgSZfzQ-zJ2fqGM1-132" value="Trip Destination Airport Key (FK) &#xa;" style="text;align=left;verticalAlign=top;spacingLeft=4;spacingRight=4;overflow=hidden;rotatable=0;points=[[0,0.5],[1,0.5]];portConstraint=eastwest;rounded=0;shadow=0;html=0;" vertex="1" parent="OHE5dgSZfzQ-zJ2fqGM1-126">
          <mxGeometry y="156" width="319" height="26" as="geometry" />
        </mxCell>
        <mxCell id="OHE5dgSZfzQ-zJ2fqGM1-133" value="Aircraft Key (FK) &#xa;" style="text;align=left;verticalAlign=top;spacingLeft=4;spacingRight=4;overflow=hidden;rotatable=0;points=[[0,0.5],[1,0.5]];portConstraint=eastwest;rounded=0;shadow=0;html=0;" vertex="1" parent="OHE5dgSZfzQ-zJ2fqGM1-126">
          <mxGeometry y="182" width="319" height="26" as="geometry" />
        </mxCell>
        <mxCell id="OHE5dgSZfzQ-zJ2fqGM1-134" value="Class of Service Flown Key (FK) &#xa;" style="text;align=left;verticalAlign=top;spacingLeft=4;spacingRight=4;overflow=hidden;rotatable=0;points=[[0,0.5],[1,0.5]];portConstraint=eastwest;rounded=0;shadow=0;html=0;" vertex="1" parent="OHE5dgSZfzQ-zJ2fqGM1-126">
          <mxGeometry y="208" width="319" height="26" as="geometry" />
        </mxCell>
        <mxCell id="OHE5dgSZfzQ-zJ2fqGM1-135" value="Fare Basis Key (FK) &#xa;" style="text;align=left;verticalAlign=top;spacingLeft=4;spacingRight=4;overflow=hidden;rotatable=0;points=[[0,0.5],[1,0.5]];portConstraint=eastwest;rounded=0;shadow=0;html=0;" vertex="1" parent="OHE5dgSZfzQ-zJ2fqGM1-126">
          <mxGeometry y="234" width="319" height="26" as="geometry" />
        </mxCell>
        <mxCell id="OHE5dgSZfzQ-zJ2fqGM1-136" value="Booking Channel Key (FK) &#xa;" style="text;align=left;verticalAlign=top;spacingLeft=4;spacingRight=4;overflow=hidden;rotatable=0;points=[[0,0.5],[1,0.5]];portConstraint=eastwest;rounded=0;shadow=0;html=0;" vertex="1" parent="OHE5dgSZfzQ-zJ2fqGM1-126">
          <mxGeometry y="260" width="319" height="26" as="geometry" />
        </mxCell>
        <mxCell id="OHE5dgSZfzQ-zJ2fqGM1-137" value="Flight Number (FK) &#xa;" style="text;align=left;verticalAlign=top;spacingLeft=4;spacingRight=4;overflow=hidden;rotatable=0;points=[[0,0.5],[1,0.5]];portConstraint=eastwest;rounded=0;shadow=0;html=0;" vertex="1" parent="OHE5dgSZfzQ-zJ2fqGM1-126">
          <mxGeometry y="286" width="319" height="26" as="geometry" />
        </mxCell>
        <mxCell id="OHE5dgSZfzQ-zJ2fqGM1-138" value="Confirmation Number (DD) &#xa;" style="text;align=left;verticalAlign=top;spacingLeft=4;spacingRight=4;overflow=hidden;rotatable=0;points=[[0,0.5],[1,0.5]];portConstraint=eastwest;rounded=0;shadow=0;html=0;" vertex="1" parent="OHE5dgSZfzQ-zJ2fqGM1-126">
          <mxGeometry y="312" width="319" height="26" as="geometry" />
        </mxCell>
        <mxCell id="OHE5dgSZfzQ-zJ2fqGM1-139" value="Ticket Number (DD) &#xa;" style="text;align=left;verticalAlign=top;spacingLeft=4;spacingRight=4;overflow=hidden;rotatable=0;points=[[0,0.5],[1,0.5]];portConstraint=eastwest;rounded=0;shadow=0;html=0;" vertex="1" parent="OHE5dgSZfzQ-zJ2fqGM1-126">
          <mxGeometry y="338" width="319" height="26" as="geometry" />
        </mxCell>
        <mxCell id="OHE5dgSZfzQ-zJ2fqGM1-140" value="Cash" style="text;align=left;verticalAlign=top;spacingLeft=4;spacingRight=4;overflow=hidden;rotatable=0;points=[[0,0.5],[1,0.5]];portConstraint=eastwest;rounded=0;shadow=0;html=0;" vertex="1" parent="OHE5dgSZfzQ-zJ2fqGM1-126">
          <mxGeometry y="364" width="319" height="26" as="geometry" />
        </mxCell>
        <mxCell id="OHE5dgSZfzQ-zJ2fqGM1-141" value="Points" style="text;align=left;verticalAlign=top;spacingLeft=4;spacingRight=4;overflow=hidden;rotatable=0;points=[[0,0.5],[1,0.5]];portConstraint=eastwest;rounded=0;shadow=0;html=0;" vertex="1" parent="OHE5dgSZfzQ-zJ2fqGM1-126">
          <mxGeometry y="390" width="319" height="26" as="geometry" />
        </mxCell>
        <mxCell id="OHE5dgSZfzQ-zJ2fqGM1-142" value="Discount" style="text;align=left;verticalAlign=top;spacingLeft=4;spacingRight=4;overflow=hidden;rotatable=0;points=[[0,0.5],[1,0.5]];portConstraint=eastwest;rounded=0;shadow=0;html=0;" vertex="1" parent="OHE5dgSZfzQ-zJ2fqGM1-126">
          <mxGeometry y="416" width="319" height="26" as="geometry" />
        </mxCell>
        <mxCell id="OHE5dgSZfzQ-zJ2fqGM1-146" value="Date Dimension" style="swimlane;fontStyle=2;align=center;verticalAlign=top;childLayout=stackLayout;horizontal=1;startSize=26;horizontalStack=0;resizeParent=1;resizeLast=0;collapsible=1;marginBottom=0;rounded=0;shadow=0;strokeWidth=1;" vertex="1" parent="OHE5dgSZfzQ-zJ2fqGM1-1">
          <mxGeometry x="510" y="420" width="270" height="250" as="geometry">
            <mxRectangle x="230" y="140" width="160" height="26" as="alternateBounds" />
          </mxGeometry>
        </mxCell>
        <mxCell id="OHE5dgSZfzQ-zJ2fqGM1-147" value="" style="line;html=1;strokeWidth=1;align=left;verticalAlign=middle;spacingTop=-1;spacingLeft=3;spacingRight=3;rotatable=0;labelPosition=right;points=[];portConstraint=eastwest;" vertex="1" parent="OHE5dgSZfzQ-zJ2fqGM1-146">
          <mxGeometry y="26" width="270" height="8" as="geometry" />
        </mxCell>
        <mxCell id="OHE5dgSZfzQ-zJ2fqGM1-148" value="Date Key (PK)&#xa;" style="text;align=left;verticalAlign=top;spacingLeft=4;spacingRight=4;overflow=hidden;rotatable=0;points=[[0,0.5],[1,0.5]];portConstraint=eastwest;rounded=0;shadow=0;html=0;" vertex="1" parent="OHE5dgSZfzQ-zJ2fqGM1-146">
          <mxGeometry y="34" width="270" height="26" as="geometry" />
        </mxCell>
        <mxCell id="OHE5dgSZfzQ-zJ2fqGM1-149" value="Date&#xa;" style="text;align=left;verticalAlign=top;spacingLeft=4;spacingRight=4;overflow=hidden;rotatable=0;points=[[0,0.5],[1,0.5]];portConstraint=eastwest;rounded=0;shadow=0;html=0;" vertex="1" parent="OHE5dgSZfzQ-zJ2fqGM1-146">
          <mxGeometry y="60" width="270" height="26" as="geometry" />
        </mxCell>
        <mxCell id="OHE5dgSZfzQ-zJ2fqGM1-150" value="Day&#xa;" style="text;align=left;verticalAlign=top;spacingLeft=4;spacingRight=4;overflow=hidden;rotatable=0;points=[[0,0.5],[1,0.5]];portConstraint=eastwest;rounded=0;shadow=0;html=0;" vertex="1" parent="OHE5dgSZfzQ-zJ2fqGM1-146">
          <mxGeometry y="86" width="270" height="26" as="geometry" />
        </mxCell>
        <mxCell id="OHE5dgSZfzQ-zJ2fqGM1-151" value="Day of Week&#xa;" style="text;align=left;verticalAlign=top;spacingLeft=4;spacingRight=4;overflow=hidden;rotatable=0;points=[[0,0.5],[1,0.5]];portConstraint=eastwest;rounded=0;shadow=0;html=0;" vertex="1" parent="OHE5dgSZfzQ-zJ2fqGM1-146">
          <mxGeometry y="112" width="270" height="26" as="geometry" />
        </mxCell>
        <mxCell id="OHE5dgSZfzQ-zJ2fqGM1-152" value="Month&#xa;" style="text;align=left;verticalAlign=top;spacingLeft=4;spacingRight=4;overflow=hidden;rotatable=0;points=[[0,0.5],[1,0.5]];portConstraint=eastwest;rounded=0;shadow=0;html=0;" vertex="1" parent="OHE5dgSZfzQ-zJ2fqGM1-146">
          <mxGeometry y="138" width="270" height="26" as="geometry" />
        </mxCell>
        <mxCell id="OHE5dgSZfzQ-zJ2fqGM1-153" value="Quarter&#xa;" style="text;align=left;verticalAlign=top;spacingLeft=4;spacingRight=4;overflow=hidden;rotatable=0;points=[[0,0.5],[1,0.5]];portConstraint=eastwest;rounded=0;shadow=0;html=0;" vertex="1" parent="OHE5dgSZfzQ-zJ2fqGM1-146">
          <mxGeometry y="164" width="270" height="26" as="geometry" />
        </mxCell>
        <mxCell id="OHE5dgSZfzQ-zJ2fqGM1-154" value="Holiday Indicator&#xa;" style="text;align=left;verticalAlign=top;spacingLeft=4;spacingRight=4;overflow=hidden;rotatable=0;points=[[0,0.5],[1,0.5]];portConstraint=eastwest;rounded=0;shadow=0;html=0;" vertex="1" parent="OHE5dgSZfzQ-zJ2fqGM1-146">
          <mxGeometry y="190" width="270" height="26" as="geometry" />
        </mxCell>
        <mxCell id="OHE5dgSZfzQ-zJ2fqGM1-155" value="Season&#xa;" style="text;align=left;verticalAlign=top;spacingLeft=4;spacingRight=4;overflow=hidden;rotatable=0;points=[[0,0.5],[1,0.5]];portConstraint=eastwest;rounded=0;shadow=0;html=0;" vertex="1" parent="OHE5dgSZfzQ-zJ2fqGM1-146">
          <mxGeometry y="216" width="270" height="26" as="geometry" />
        </mxCell>
        <mxCell id="OHE5dgSZfzQ-zJ2fqGM1-157" value="Passenger" style="swimlane;fontStyle=2;align=center;verticalAlign=top;childLayout=stackLayout;horizontal=1;startSize=26;horizontalStack=0;resizeParent=1;resizeLast=0;collapsible=1;marginBottom=0;rounded=0;shadow=0;strokeWidth=1;" vertex="1" parent="OHE5dgSZfzQ-zJ2fqGM1-1">
          <mxGeometry x="565" y="20" width="160" height="320" as="geometry">
            <mxRectangle x="230" y="140" width="160" height="26" as="alternateBounds" />
          </mxGeometry>
        </mxCell>
        <mxCell id="OHE5dgSZfzQ-zJ2fqGM1-158" value="" style="line;html=1;strokeWidth=1;align=left;verticalAlign=middle;spacingTop=-1;spacingLeft=3;spacingRight=3;rotatable=0;labelPosition=right;points=[];portConstraint=eastwest;" vertex="1" parent="OHE5dgSZfzQ-zJ2fqGM1-157">
          <mxGeometry y="26" width="160" height="8" as="geometry" />
        </mxCell>
        <mxCell id="OHE5dgSZfzQ-zJ2fqGM1-159" value="Passenger Key (PK)&#xa;" style="text;align=left;verticalAlign=top;spacingLeft=4;spacingRight=4;overflow=hidden;rotatable=0;points=[[0,0.5],[1,0.5]];portConstraint=eastwest;rounded=0;shadow=0;html=0;" vertex="1" parent="OHE5dgSZfzQ-zJ2fqGM1-157">
          <mxGeometry y="34" width="160" height="26" as="geometry" />
        </mxCell>
        <mxCell id="OHE5dgSZfzQ-zJ2fqGM1-160" value="Passenger ID&#xa;" style="text;align=left;verticalAlign=top;spacingLeft=4;spacingRight=4;overflow=hidden;rotatable=0;points=[[0,0.5],[1,0.5]];portConstraint=eastwest;rounded=0;shadow=0;html=0;" vertex="1" parent="OHE5dgSZfzQ-zJ2fqGM1-157">
          <mxGeometry y="60" width="160" height="26" as="geometry" />
        </mxCell>
        <mxCell id="OHE5dgSZfzQ-zJ2fqGM1-161" value="First Name&#xa;" style="text;align=left;verticalAlign=top;spacingLeft=4;spacingRight=4;overflow=hidden;rotatable=0;points=[[0,0.5],[1,0.5]];portConstraint=eastwest;rounded=0;shadow=0;html=0;" vertex="1" parent="OHE5dgSZfzQ-zJ2fqGM1-157">
          <mxGeometry y="86" width="160" height="26" as="geometry" />
        </mxCell>
        <mxCell id="OHE5dgSZfzQ-zJ2fqGM1-162" value="Last Name&#xa;" style="text;align=left;verticalAlign=top;spacingLeft=4;spacingRight=4;overflow=hidden;rotatable=0;points=[[0,0.5],[1,0.5]];portConstraint=eastwest;rounded=0;shadow=0;html=0;" vertex="1" parent="OHE5dgSZfzQ-zJ2fqGM1-157">
          <mxGeometry y="112" width="160" height="26" as="geometry" />
        </mxCell>
        <mxCell id="OHE5dgSZfzQ-zJ2fqGM1-163" value="Date of Birth&#xa;" style="text;align=left;verticalAlign=top;spacingLeft=4;spacingRight=4;overflow=hidden;rotatable=0;points=[[0,0.5],[1,0.5]];portConstraint=eastwest;rounded=0;shadow=0;html=0;" vertex="1" parent="OHE5dgSZfzQ-zJ2fqGM1-157">
          <mxGeometry y="138" width="160" height="26" as="geometry" />
        </mxCell>
        <mxCell id="OHE5dgSZfzQ-zJ2fqGM1-164" value="Gender&#xa;" style="text;align=left;verticalAlign=top;spacingLeft=4;spacingRight=4;overflow=hidden;rotatable=0;points=[[0,0.5],[1,0.5]];portConstraint=eastwest;rounded=0;shadow=0;html=0;" vertex="1" parent="OHE5dgSZfzQ-zJ2fqGM1-157">
          <mxGeometry y="164" width="160" height="26" as="geometry" />
        </mxCell>
        <mxCell id="OHE5dgSZfzQ-zJ2fqGM1-165" value="Email Address&#xa;" style="text;align=left;verticalAlign=top;spacingLeft=4;spacingRight=4;overflow=hidden;rotatable=0;points=[[0,0.5],[1,0.5]];portConstraint=eastwest;rounded=0;shadow=0;html=0;" vertex="1" parent="OHE5dgSZfzQ-zJ2fqGM1-157">
          <mxGeometry y="190" width="160" height="26" as="geometry" />
        </mxCell>
        <mxCell id="OHE5dgSZfzQ-zJ2fqGM1-166" value="Address&#xa;" style="text;align=left;verticalAlign=top;spacingLeft=4;spacingRight=4;overflow=hidden;rotatable=0;points=[[0,0.5],[1,0.5]];portConstraint=eastwest;rounded=0;shadow=0;html=0;" vertex="1" parent="OHE5dgSZfzQ-zJ2fqGM1-157">
          <mxGeometry y="216" width="160" height="26" as="geometry" />
        </mxCell>
        <mxCell id="OHE5dgSZfzQ-zJ2fqGM1-167" value="Frequent Flyer Status&#xa;" style="text;align=left;verticalAlign=top;spacingLeft=4;spacingRight=4;overflow=hidden;rotatable=0;points=[[0,0.5],[1,0.5]];portConstraint=eastwest;rounded=0;shadow=0;html=0;" vertex="1" parent="OHE5dgSZfzQ-zJ2fqGM1-157">
          <mxGeometry y="242" width="160" height="26" as="geometry" />
        </mxCell>
        <mxCell id="OHE5dgSZfzQ-zJ2fqGM1-168" value="Lifetime Mileage&#xa;" style="text;align=left;verticalAlign=top;spacingLeft=4;spacingRight=4;overflow=hidden;rotatable=0;points=[[0,0.5],[1,0.5]];portConstraint=eastwest;rounded=0;shadow=0;html=0;" vertex="1" parent="OHE5dgSZfzQ-zJ2fqGM1-157">
          <mxGeometry y="268" width="160" height="26" as="geometry" />
        </mxCell>
        <mxCell id="OHE5dgSZfzQ-zJ2fqGM1-169" value="Points" style="text;align=left;verticalAlign=top;spacingLeft=4;spacingRight=4;overflow=hidden;rotatable=0;points=[[0,0.5],[1,0.5]];portConstraint=eastwest;rounded=0;shadow=0;html=0;" vertex="1" parent="OHE5dgSZfzQ-zJ2fqGM1-157">
          <mxGeometry y="294" width="160" height="26" as="geometry" />
        </mxCell>
        <mxCell id="OHE5dgSZfzQ-zJ2fqGM1-171" value="Class" style="swimlane;fontStyle=2;align=center;verticalAlign=top;childLayout=stackLayout;horizontal=1;startSize=26;horizontalStack=0;resizeParent=1;resizeLast=0;collapsible=1;marginBottom=0;rounded=0;shadow=0;strokeWidth=1;" vertex="1" parent="OHE5dgSZfzQ-zJ2fqGM1-1">
          <mxGeometry x="540" y="-236" width="210" height="190" as="geometry">
            <mxRectangle x="230" y="140" width="160" height="26" as="alternateBounds" />
          </mxGeometry>
        </mxCell>
        <mxCell id="OHE5dgSZfzQ-zJ2fqGM1-172" value="" style="line;html=1;strokeWidth=1;align=left;verticalAlign=middle;spacingTop=-1;spacingLeft=3;spacingRight=3;rotatable=0;labelPosition=right;points=[];portConstraint=eastwest;" vertex="1" parent="OHE5dgSZfzQ-zJ2fqGM1-171">
          <mxGeometry y="26" width="210" height="8" as="geometry" />
        </mxCell>
        <mxCell id="OHE5dgSZfzQ-zJ2fqGM1-173" value="Class Key (PK)&#xa;" style="text;align=left;verticalAlign=top;spacingLeft=4;spacingRight=4;overflow=hidden;rotatable=0;points=[[0,0.5],[1,0.5]];portConstraint=eastwest;rounded=0;shadow=0;html=0;" vertex="1" parent="OHE5dgSZfzQ-zJ2fqGM1-171">
          <mxGeometry y="34" width="210" height="26" as="geometry" />
        </mxCell>
        <mxCell id="OHE5dgSZfzQ-zJ2fqGM1-174" value="Class Name&#xa;" style="text;align=left;verticalAlign=top;spacingLeft=4;spacingRight=4;overflow=hidden;rotatable=0;points=[[0,0.5],[1,0.5]];portConstraint=eastwest;rounded=0;shadow=0;html=0;" vertex="1" parent="OHE5dgSZfzQ-zJ2fqGM1-171">
          <mxGeometry y="60" width="210" height="26" as="geometry" />
        </mxCell>
        <mxCell id="OHE5dgSZfzQ-zJ2fqGM1-175" value="Description&#xa;" style="text;align=left;verticalAlign=top;spacingLeft=4;spacingRight=4;overflow=hidden;rotatable=0;points=[[0,0.5],[1,0.5]];portConstraint=eastwest;rounded=0;shadow=0;html=0;" vertex="1" parent="OHE5dgSZfzQ-zJ2fqGM1-171">
          <mxGeometry y="86" width="210" height="26" as="geometry" />
        </mxCell>
        <mxCell id="OHE5dgSZfzQ-zJ2fqGM1-176" value="Priority Boarding&#xa;" style="text;align=left;verticalAlign=top;spacingLeft=4;spacingRight=4;overflow=hidden;rotatable=0;points=[[0,0.5],[1,0.5]];portConstraint=eastwest;rounded=0;shadow=0;html=0;" vertex="1" parent="OHE5dgSZfzQ-zJ2fqGM1-171">
          <mxGeometry y="112" width="210" height="26" as="geometry" />
        </mxCell>
        <mxCell id="OHE5dgSZfzQ-zJ2fqGM1-177" value="Free Baggage Allowance&#xa;" style="text;align=left;verticalAlign=top;spacingLeft=4;spacingRight=4;overflow=hidden;rotatable=0;points=[[0,0.5],[1,0.5]];portConstraint=eastwest;rounded=0;shadow=0;html=0;" vertex="1" parent="OHE5dgSZfzQ-zJ2fqGM1-171">
          <mxGeometry y="138" width="210" height="26" as="geometry" />
        </mxCell>
        <mxCell id="OHE5dgSZfzQ-zJ2fqGM1-178" value="Seat Selection Fee&#xa;" style="text;align=left;verticalAlign=top;spacingLeft=4;spacingRight=4;overflow=hidden;rotatable=0;points=[[0,0.5],[1,0.5]];portConstraint=eastwest;rounded=0;shadow=0;html=0;" vertex="1" parent="OHE5dgSZfzQ-zJ2fqGM1-171">
          <mxGeometry y="164" width="210" height="26" as="geometry" />
        </mxCell>
      </root>
    </mxGraphModel>
  </diagram>
  <diagram name="Copy of Page-1" id="lI9RkdqI3EnM2WhFqeWD">
    <mxGraphModel dx="4967" dy="3066" grid="1" gridSize="10" guides="1" tooltips="1" connect="1" arrows="1" fold="1" page="1" pageScale="1" pageWidth="827" pageHeight="1169" math="0" shadow="0">
      <root>
        <mxCell id="JWwbm2Qh-RJvI3wkCz8D-0" />
        <mxCell id="JWwbm2Qh-RJvI3wkCz8D-1" parent="JWwbm2Qh-RJvI3wkCz8D-0" />
        <mxCell id="JWwbm2Qh-RJvI3wkCz8D-2" style="edgeStyle=orthogonalEdgeStyle;rounded=0;orthogonalLoop=1;jettySize=auto;html=1;" edge="1" parent="JWwbm2Qh-RJvI3wkCz8D-1" source="JWwbm2Qh-RJvI3wkCz8D-146" target="JWwbm2Qh-RJvI3wkCz8D-33">
          <mxGeometry relative="1" as="geometry" />
        </mxCell>
        <mxCell id="JWwbm2Qh-RJvI3wkCz8D-3" style="edgeStyle=orthogonalEdgeStyle;rounded=0;orthogonalLoop=1;jettySize=auto;html=1;" edge="1" parent="JWwbm2Qh-RJvI3wkCz8D-1" source="JWwbm2Qh-RJvI3wkCz8D-146" target="JWwbm2Qh-RJvI3wkCz8D-32">
          <mxGeometry relative="1" as="geometry" />
        </mxCell>
        <mxCell id="JWwbm2Qh-RJvI3wkCz8D-4" style="edgeStyle=orthogonalEdgeStyle;rounded=0;orthogonalLoop=1;jettySize=auto;html=1;" edge="1" parent="JWwbm2Qh-RJvI3wkCz8D-1" source="JWwbm2Qh-RJvI3wkCz8D-54" target="JWwbm2Qh-RJvI3wkCz8D-34">
          <mxGeometry relative="1" as="geometry" />
        </mxCell>
        <mxCell id="JWwbm2Qh-RJvI3wkCz8D-5" style="edgeStyle=orthogonalEdgeStyle;rounded=0;orthogonalLoop=1;jettySize=auto;html=1;" edge="1" parent="JWwbm2Qh-RJvI3wkCz8D-1" source="JWwbm2Qh-RJvI3wkCz8D-54" target="JWwbm2Qh-RJvI3wkCz8D-35">
          <mxGeometry relative="1" as="geometry" />
        </mxCell>
        <mxCell id="JWwbm2Qh-RJvI3wkCz8D-6" style="edgeStyle=orthogonalEdgeStyle;rounded=0;orthogonalLoop=1;jettySize=auto;html=1;" edge="1" parent="JWwbm2Qh-RJvI3wkCz8D-1" source="JWwbm2Qh-RJvI3wkCz8D-157" target="JWwbm2Qh-RJvI3wkCz8D-36">
          <mxGeometry relative="1" as="geometry" />
        </mxCell>
        <mxCell id="JWwbm2Qh-RJvI3wkCz8D-7" style="edgeStyle=orthogonalEdgeStyle;rounded=0;orthogonalLoop=1;jettySize=auto;html=1;" edge="1" parent="JWwbm2Qh-RJvI3wkCz8D-1" source="JWwbm2Qh-RJvI3wkCz8D-157" target="JWwbm2Qh-RJvI3wkCz8D-100">
          <mxGeometry relative="1" as="geometry" />
        </mxCell>
        <mxCell id="JWwbm2Qh-RJvI3wkCz8D-8" style="edgeStyle=orthogonalEdgeStyle;rounded=0;orthogonalLoop=1;jettySize=auto;html=1;" edge="1" parent="JWwbm2Qh-RJvI3wkCz8D-1" source="JWwbm2Qh-RJvI3wkCz8D-61" target="JWwbm2Qh-RJvI3wkCz8D-37">
          <mxGeometry relative="1" as="geometry" />
        </mxCell>
        <mxCell id="JWwbm2Qh-RJvI3wkCz8D-9" style="edgeStyle=orthogonalEdgeStyle;rounded=0;orthogonalLoop=1;jettySize=auto;html=1;" edge="1" parent="JWwbm2Qh-RJvI3wkCz8D-1" source="JWwbm2Qh-RJvI3wkCz8D-157" target="JWwbm2Qh-RJvI3wkCz8D-38">
          <mxGeometry relative="1" as="geometry" />
        </mxCell>
        <mxCell id="JWwbm2Qh-RJvI3wkCz8D-10" style="edgeStyle=orthogonalEdgeStyle;rounded=0;orthogonalLoop=1;jettySize=auto;html=1;" edge="1" parent="JWwbm2Qh-RJvI3wkCz8D-1" source="JWwbm2Qh-RJvI3wkCz8D-72" target="JWwbm2Qh-RJvI3wkCz8D-39">
          <mxGeometry relative="1" as="geometry" />
        </mxCell>
        <mxCell id="JWwbm2Qh-RJvI3wkCz8D-11" style="edgeStyle=orthogonalEdgeStyle;rounded=0;orthogonalLoop=1;jettySize=auto;html=1;" edge="1" parent="JWwbm2Qh-RJvI3wkCz8D-1" source="JWwbm2Qh-RJvI3wkCz8D-171" target="JWwbm2Qh-RJvI3wkCz8D-40">
          <mxGeometry relative="1" as="geometry" />
        </mxCell>
        <mxCell id="JWwbm2Qh-RJvI3wkCz8D-12" style="edgeStyle=orthogonalEdgeStyle;rounded=0;orthogonalLoop=1;jettySize=auto;html=1;" edge="1" parent="JWwbm2Qh-RJvI3wkCz8D-1" source="JWwbm2Qh-RJvI3wkCz8D-171" target="JWwbm2Qh-RJvI3wkCz8D-134">
          <mxGeometry relative="1" as="geometry" />
        </mxCell>
        <mxCell id="JWwbm2Qh-RJvI3wkCz8D-13" style="edgeStyle=orthogonalEdgeStyle;rounded=0;orthogonalLoop=1;jettySize=auto;html=1;" edge="1" parent="JWwbm2Qh-RJvI3wkCz8D-1" source="JWwbm2Qh-RJvI3wkCz8D-157" target="JWwbm2Qh-RJvI3wkCz8D-41">
          <mxGeometry relative="1" as="geometry" />
        </mxCell>
        <mxCell id="JWwbm2Qh-RJvI3wkCz8D-14" style="edgeStyle=orthogonalEdgeStyle;rounded=0;orthogonalLoop=1;jettySize=auto;html=1;exitX=0.5;exitY=0;exitDx=0;exitDy=0;" edge="1" parent="JWwbm2Qh-RJvI3wkCz8D-1" source="JWwbm2Qh-RJvI3wkCz8D-91" target="JWwbm2Qh-RJvI3wkCz8D-43">
          <mxGeometry relative="1" as="geometry">
            <mxPoint x="-20" y="520" as="sourcePoint" />
          </mxGeometry>
        </mxCell>
        <mxCell id="JWwbm2Qh-RJvI3wkCz8D-15" style="edgeStyle=orthogonalEdgeStyle;rounded=0;orthogonalLoop=1;jettySize=auto;html=1;" edge="1" parent="JWwbm2Qh-RJvI3wkCz8D-1" source="JWwbm2Qh-RJvI3wkCz8D-110" target="JWwbm2Qh-RJvI3wkCz8D-104">
          <mxGeometry relative="1" as="geometry" />
        </mxCell>
        <mxCell id="JWwbm2Qh-RJvI3wkCz8D-16" style="edgeStyle=orthogonalEdgeStyle;rounded=0;orthogonalLoop=1;jettySize=auto;html=1;entryX=1;entryY=0.5;entryDx=0;entryDy=0;" edge="1" parent="JWwbm2Qh-RJvI3wkCz8D-1" source="JWwbm2Qh-RJvI3wkCz8D-114" target="JWwbm2Qh-RJvI3wkCz8D-102">
          <mxGeometry relative="1" as="geometry" />
        </mxCell>
        <mxCell id="JWwbm2Qh-RJvI3wkCz8D-17" style="edgeStyle=orthogonalEdgeStyle;rounded=0;orthogonalLoop=1;jettySize=auto;html=1;" edge="1" parent="JWwbm2Qh-RJvI3wkCz8D-1" source="JWwbm2Qh-RJvI3wkCz8D-92" target="JWwbm2Qh-RJvI3wkCz8D-101">
          <mxGeometry relative="1" as="geometry" />
        </mxCell>
        <mxCell id="JWwbm2Qh-RJvI3wkCz8D-18" style="edgeStyle=orthogonalEdgeStyle;rounded=0;orthogonalLoop=1;jettySize=auto;html=1;" edge="1" parent="JWwbm2Qh-RJvI3wkCz8D-1" source="JWwbm2Qh-RJvI3wkCz8D-119" target="JWwbm2Qh-RJvI3wkCz8D-105">
          <mxGeometry relative="1" as="geometry" />
        </mxCell>
        <mxCell id="JWwbm2Qh-RJvI3wkCz8D-19" style="edgeStyle=orthogonalEdgeStyle;rounded=0;orthogonalLoop=1;jettySize=auto;html=1;" edge="1" parent="JWwbm2Qh-RJvI3wkCz8D-1" source="JWwbm2Qh-RJvI3wkCz8D-124" target="JWwbm2Qh-RJvI3wkCz8D-103">
          <mxGeometry relative="1" as="geometry" />
        </mxCell>
        <mxCell id="JWwbm2Qh-RJvI3wkCz8D-20" style="edgeStyle=orthogonalEdgeStyle;rounded=0;orthogonalLoop=1;jettySize=auto;html=1;" edge="1" parent="JWwbm2Qh-RJvI3wkCz8D-1" source="JWwbm2Qh-RJvI3wkCz8D-124" target="JWwbm2Qh-RJvI3wkCz8D-42">
          <mxGeometry relative="1" as="geometry" />
        </mxCell>
        <mxCell id="JWwbm2Qh-RJvI3wkCz8D-21" style="edgeStyle=orthogonalEdgeStyle;rounded=0;orthogonalLoop=1;jettySize=auto;html=1;" edge="1" parent="JWwbm2Qh-RJvI3wkCz8D-1" source="JWwbm2Qh-RJvI3wkCz8D-148" target="JWwbm2Qh-RJvI3wkCz8D-99">
          <mxGeometry relative="1" as="geometry" />
        </mxCell>
        <mxCell id="JWwbm2Qh-RJvI3wkCz8D-22" style="edgeStyle=orthogonalEdgeStyle;rounded=0;orthogonalLoop=1;jettySize=auto;html=1;" edge="1" parent="JWwbm2Qh-RJvI3wkCz8D-1" source="JWwbm2Qh-RJvI3wkCz8D-57" target="JWwbm2Qh-RJvI3wkCz8D-129">
          <mxGeometry relative="1" as="geometry" />
        </mxCell>
        <mxCell id="JWwbm2Qh-RJvI3wkCz8D-23" style="edgeStyle=orthogonalEdgeStyle;rounded=0;orthogonalLoop=1;jettySize=auto;html=1;" edge="1" parent="JWwbm2Qh-RJvI3wkCz8D-1" source="JWwbm2Qh-RJvI3wkCz8D-146" target="JWwbm2Qh-RJvI3wkCz8D-130">
          <mxGeometry relative="1" as="geometry" />
        </mxCell>
        <mxCell id="JWwbm2Qh-RJvI3wkCz8D-24" style="edgeStyle=orthogonalEdgeStyle;rounded=0;orthogonalLoop=1;jettySize=auto;html=1;exitX=0;exitY=0.5;exitDx=0;exitDy=0;" edge="1" parent="JWwbm2Qh-RJvI3wkCz8D-1" source="JWwbm2Qh-RJvI3wkCz8D-148" target="JWwbm2Qh-RJvI3wkCz8D-128">
          <mxGeometry relative="1" as="geometry" />
        </mxCell>
        <mxCell id="JWwbm2Qh-RJvI3wkCz8D-25" style="edgeStyle=orthogonalEdgeStyle;rounded=0;orthogonalLoop=1;jettySize=auto;html=1;" edge="1" parent="JWwbm2Qh-RJvI3wkCz8D-1" source="JWwbm2Qh-RJvI3wkCz8D-63" target="JWwbm2Qh-RJvI3wkCz8D-131">
          <mxGeometry relative="1" as="geometry" />
        </mxCell>
        <mxCell id="JWwbm2Qh-RJvI3wkCz8D-26" style="edgeStyle=orthogonalEdgeStyle;rounded=0;orthogonalLoop=1;jettySize=auto;html=1;" edge="1" parent="JWwbm2Qh-RJvI3wkCz8D-1" source="JWwbm2Qh-RJvI3wkCz8D-64" target="JWwbm2Qh-RJvI3wkCz8D-132">
          <mxGeometry relative="1" as="geometry" />
        </mxCell>
        <mxCell id="JWwbm2Qh-RJvI3wkCz8D-27" style="edgeStyle=orthogonalEdgeStyle;rounded=0;orthogonalLoop=1;jettySize=auto;html=1;" edge="1" parent="JWwbm2Qh-RJvI3wkCz8D-1" source="JWwbm2Qh-RJvI3wkCz8D-75" target="JWwbm2Qh-RJvI3wkCz8D-133">
          <mxGeometry relative="1" as="geometry" />
        </mxCell>
        <mxCell id="JWwbm2Qh-RJvI3wkCz8D-28" style="edgeStyle=orthogonalEdgeStyle;rounded=0;orthogonalLoop=1;jettySize=auto;html=1;" edge="1" parent="JWwbm2Qh-RJvI3wkCz8D-1" source="JWwbm2Qh-RJvI3wkCz8D-85" target="JWwbm2Qh-RJvI3wkCz8D-135">
          <mxGeometry relative="1" as="geometry" />
        </mxCell>
        <mxCell id="JWwbm2Qh-RJvI3wkCz8D-29" style="edgeStyle=orthogonalEdgeStyle;rounded=0;orthogonalLoop=1;jettySize=auto;html=1;" edge="1" parent="JWwbm2Qh-RJvI3wkCz8D-1" source="JWwbm2Qh-RJvI3wkCz8D-124" target="JWwbm2Qh-RJvI3wkCz8D-136">
          <mxGeometry relative="1" as="geometry" />
        </mxCell>
        <mxCell id="JWwbm2Qh-RJvI3wkCz8D-30" style="edgeStyle=orthogonalEdgeStyle;rounded=0;orthogonalLoop=1;jettySize=auto;html=1;" edge="1" parent="JWwbm2Qh-RJvI3wkCz8D-1" source="JWwbm2Qh-RJvI3wkCz8D-92" target="JWwbm2Qh-RJvI3wkCz8D-137">
          <mxGeometry relative="1" as="geometry" />
        </mxCell>
        <mxCell id="JWwbm2Qh-RJvI3wkCz8D-31" value="Segment Flight Activity Fact" style="swimlane;fontStyle=0;align=center;verticalAlign=top;childLayout=stackLayout;horizontal=1;startSize=26;horizontalStack=0;resizeParent=1;resizeLast=0;collapsible=1;marginBottom=0;rounded=0;shadow=0;strokeWidth=1;" vertex="1" parent="JWwbm2Qh-RJvI3wkCz8D-1">
          <mxGeometry x="1940" y="30" width="319" height="620" as="geometry">
            <mxRectangle x="550" y="140" width="160" height="26" as="alternateBounds" />
          </mxGeometry>
        </mxCell>
        <mxCell id="JWwbm2Qh-RJvI3wkCz8D-32" value="Scheduled Departure Date Key (FK)&#xa;" style="text;align=left;verticalAlign=top;spacingLeft=4;spacingRight=4;overflow=hidden;rotatable=0;points=[[0,0.5],[1,0.5]];portConstraint=eastwest;rounded=0;shadow=0;html=0;" vertex="1" parent="JWwbm2Qh-RJvI3wkCz8D-31">
          <mxGeometry y="26" width="319" height="26" as="geometry" />
        </mxCell>
        <mxCell id="JWwbm2Qh-RJvI3wkCz8D-33" value="Actual Departure Date Key (FK) &#xa;" style="text;align=left;verticalAlign=top;spacingLeft=4;spacingRight=4;overflow=hidden;rotatable=0;points=[[0,0.5],[1,0.5]];portConstraint=eastwest;rounded=0;shadow=0;html=0;" vertex="1" parent="JWwbm2Qh-RJvI3wkCz8D-31">
          <mxGeometry y="52" width="319" height="26" as="geometry" />
        </mxCell>
        <mxCell id="JWwbm2Qh-RJvI3wkCz8D-34" value="Scheduled Departure Time Key (FK) &#xa;" style="text;align=left;verticalAlign=top;spacingLeft=4;spacingRight=4;overflow=hidden;rotatable=0;points=[[0,0.5],[1,0.5]];portConstraint=eastwest;rounded=0;shadow=0;html=0;" vertex="1" parent="JWwbm2Qh-RJvI3wkCz8D-31">
          <mxGeometry y="78" width="319" height="26" as="geometry" />
        </mxCell>
        <mxCell id="JWwbm2Qh-RJvI3wkCz8D-35" value="Actual Departure Time Key (FK) &#xa;" style="text;align=left;verticalAlign=top;spacingLeft=4;spacingRight=4;overflow=hidden;rotatable=0;points=[[0,0.5],[1,0.5]];portConstraint=eastwest;rounded=0;shadow=0;html=0;" vertex="1" parent="JWwbm2Qh-RJvI3wkCz8D-31">
          <mxGeometry y="104" width="319" height="26" as="geometry" />
        </mxCell>
        <mxCell id="JWwbm2Qh-RJvI3wkCz8D-36" value="Passenger Key (FK) &#xa;" style="text;align=left;verticalAlign=top;spacingLeft=4;spacingRight=4;overflow=hidden;rotatable=0;points=[[0,0.5],[1,0.5]];portConstraint=eastwest;rounded=0;shadow=0;html=0;" vertex="1" parent="JWwbm2Qh-RJvI3wkCz8D-31">
          <mxGeometry y="130" width="319" height="26" as="geometry" />
        </mxCell>
        <mxCell id="JWwbm2Qh-RJvI3wkCz8D-37" value="Segment Origin Airport Key (FK) &#xa;" style="text;align=left;verticalAlign=top;spacingLeft=4;spacingRight=4;overflow=hidden;rotatable=0;points=[[0,0.5],[1,0.5]];portConstraint=eastwest;rounded=0;shadow=0;html=0;" vertex="1" parent="JWwbm2Qh-RJvI3wkCz8D-31">
          <mxGeometry y="156" width="319" height="26" as="geometry" />
        </mxCell>
        <mxCell id="JWwbm2Qh-RJvI3wkCz8D-38" value="Segment Destination Airport Key (FK) &#xa;" style="text;align=left;verticalAlign=top;spacingLeft=4;spacingRight=4;overflow=hidden;rotatable=0;points=[[0,0.5],[1,0.5]];portConstraint=eastwest;rounded=0;shadow=0;html=0;" vertex="1" parent="JWwbm2Qh-RJvI3wkCz8D-31">
          <mxGeometry y="182" width="319" height="26" as="geometry" />
        </mxCell>
        <mxCell id="JWwbm2Qh-RJvI3wkCz8D-39" value="Aircraft Key (FK) &#xa;" style="text;align=left;verticalAlign=top;spacingLeft=4;spacingRight=4;overflow=hidden;rotatable=0;points=[[0,0.5],[1,0.5]];portConstraint=eastwest;rounded=0;shadow=0;html=0;" vertex="1" parent="JWwbm2Qh-RJvI3wkCz8D-31">
          <mxGeometry y="208" width="319" height="26" as="geometry" />
        </mxCell>
        <mxCell id="JWwbm2Qh-RJvI3wkCz8D-40" value="Class of Service Flown Key (FK) &#xa;" style="text;align=left;verticalAlign=top;spacingLeft=4;spacingRight=4;overflow=hidden;rotatable=0;points=[[0,0.5],[1,0.5]];portConstraint=eastwest;rounded=0;shadow=0;html=0;" vertex="1" parent="JWwbm2Qh-RJvI3wkCz8D-31">
          <mxGeometry y="234" width="319" height="26" as="geometry" />
        </mxCell>
        <mxCell id="JWwbm2Qh-RJvI3wkCz8D-41" value="Fare Basis Key (FK) &#xa;" style="text;align=left;verticalAlign=top;spacingLeft=4;spacingRight=4;overflow=hidden;rotatable=0;points=[[0,0.5],[1,0.5]];portConstraint=eastwest;rounded=0;shadow=0;html=0;" vertex="1" parent="JWwbm2Qh-RJvI3wkCz8D-31">
          <mxGeometry y="260" width="319" height="26" as="geometry" />
        </mxCell>
        <mxCell id="JWwbm2Qh-RJvI3wkCz8D-42" value="Booking Channel Key (FK) &#xa;" style="text;align=left;verticalAlign=top;spacingLeft=4;spacingRight=4;overflow=hidden;rotatable=0;points=[[0,0.5],[1,0.5]];portConstraint=eastwest;rounded=0;shadow=0;html=0;" vertex="1" parent="JWwbm2Qh-RJvI3wkCz8D-31">
          <mxGeometry y="286" width="319" height="26" as="geometry" />
        </mxCell>
        <mxCell id="JWwbm2Qh-RJvI3wkCz8D-43" value="Flight Number (FK,TRIP ORIGN AND DES) &#xa;" style="text;align=left;verticalAlign=top;spacingLeft=4;spacingRight=4;overflow=hidden;rotatable=0;points=[[0,0.5],[1,0.5]];portConstraint=eastwest;rounded=0;shadow=0;html=0;" vertex="1" parent="JWwbm2Qh-RJvI3wkCz8D-31">
          <mxGeometry y="312" width="319" height="26" as="geometry" />
        </mxCell>
        <mxCell id="JWwbm2Qh-RJvI3wkCz8D-44" value="Confirmation Number (DD) &#xa;" style="text;align=left;verticalAlign=top;spacingLeft=4;spacingRight=4;overflow=hidden;rotatable=0;points=[[0,0.5],[1,0.5]];portConstraint=eastwest;rounded=0;shadow=0;html=0;" vertex="1" parent="JWwbm2Qh-RJvI3wkCz8D-31">
          <mxGeometry y="338" width="319" height="26" as="geometry" />
        </mxCell>
        <mxCell id="JWwbm2Qh-RJvI3wkCz8D-45" value="Ticket Number (DD) &#xa;" style="text;align=left;verticalAlign=top;spacingLeft=4;spacingRight=4;overflow=hidden;rotatable=0;points=[[0,0.5],[1,0.5]];portConstraint=eastwest;rounded=0;shadow=0;html=0;" vertex="1" parent="JWwbm2Qh-RJvI3wkCz8D-31">
          <mxGeometry y="364" width="319" height="26" as="geometry" />
        </mxCell>
        <mxCell id="JWwbm2Qh-RJvI3wkCz8D-46" value="Segment Number (DD) &#xa;" style="text;align=left;verticalAlign=top;spacingLeft=4;spacingRight=4;overflow=hidden;rotatable=0;points=[[0,0.5],[1,0.5]];portConstraint=eastwest;rounded=0;shadow=0;html=0;" vertex="1" parent="JWwbm2Qh-RJvI3wkCz8D-31">
          <mxGeometry y="390" width="319" height="26" as="geometry" />
        </mxCell>
        <mxCell id="JWwbm2Qh-RJvI3wkCz8D-47" value="Flight Number (DD) &#xa;" style="text;align=left;verticalAlign=top;spacingLeft=4;spacingRight=4;overflow=hidden;rotatable=0;points=[[0,0.5],[1,0.5]];portConstraint=eastwest;rounded=0;shadow=0;html=0;" vertex="1" parent="JWwbm2Qh-RJvI3wkCz8D-31">
          <mxGeometry y="416" width="319" height="26" as="geometry" />
        </mxCell>
        <mxCell id="JWwbm2Qh-RJvI3wkCz8D-48" value="Flight Duration&#xa;" style="text;align=left;verticalAlign=top;spacingLeft=4;spacingRight=4;overflow=hidden;rotatable=0;points=[[0,0.5],[1,0.5]];portConstraint=eastwest;rounded=0;shadow=0;html=0;" vertex="1" parent="JWwbm2Qh-RJvI3wkCz8D-31">
          <mxGeometry y="442" width="319" height="26" as="geometry" />
        </mxCell>
        <mxCell id="JWwbm2Qh-RJvI3wkCz8D-49" value="Flight Cost&#xa;" style="text;align=left;verticalAlign=top;spacingLeft=4;spacingRight=4;overflow=hidden;rotatable=0;points=[[0,0.5],[1,0.5]];portConstraint=eastwest;rounded=0;shadow=0;html=0;" vertex="1" parent="JWwbm2Qh-RJvI3wkCz8D-31">
          <mxGeometry y="468" width="319" height="26" as="geometry" />
        </mxCell>
        <mxCell id="JWwbm2Qh-RJvI3wkCz8D-50" value="Flight Revenue&#xa;" style="text;align=left;verticalAlign=top;spacingLeft=4;spacingRight=4;overflow=hidden;rotatable=0;points=[[0,0.5],[1,0.5]];portConstraint=eastwest;rounded=0;shadow=0;html=0;" vertex="1" parent="JWwbm2Qh-RJvI3wkCz8D-31">
          <mxGeometry y="494" width="319" height="26" as="geometry" />
        </mxCell>
        <mxCell id="JWwbm2Qh-RJvI3wkCz8D-51" value="Flight Miles&#xa;" style="text;align=left;verticalAlign=top;spacingLeft=4;spacingRight=4;overflow=hidden;rotatable=0;points=[[0,0.5],[1,0.5]];portConstraint=eastwest;rounded=0;shadow=0;html=0;" vertex="1" parent="JWwbm2Qh-RJvI3wkCz8D-31">
          <mxGeometry y="520" width="319" height="26" as="geometry" />
        </mxCell>
        <mxCell id="JWwbm2Qh-RJvI3wkCz8D-52" value="Flight Profit&#xa;" style="text;align=left;verticalAlign=top;spacingLeft=4;spacingRight=4;overflow=hidden;rotatable=0;points=[[0,0.5],[1,0.5]];portConstraint=eastwest;rounded=0;shadow=0;html=0;" vertex="1" parent="JWwbm2Qh-RJvI3wkCz8D-31">
          <mxGeometry y="546" width="319" height="26" as="geometry" />
        </mxCell>
        <mxCell id="JWwbm2Qh-RJvI3wkCz8D-53" value="Flight Points Earned " style="text;align=left;verticalAlign=top;spacingLeft=4;spacingRight=4;overflow=hidden;rotatable=0;points=[[0,0.5],[1,0.5]];portConstraint=eastwest;rounded=0;shadow=0;html=0;" vertex="1" parent="JWwbm2Qh-RJvI3wkCz8D-31">
          <mxGeometry y="572" width="319" height="26" as="geometry" />
        </mxCell>
        <mxCell id="JWwbm2Qh-RJvI3wkCz8D-54" value="Time" style="swimlane;fontStyle=2;align=center;verticalAlign=top;childLayout=stackLayout;horizontal=1;startSize=26;horizontalStack=0;resizeParent=1;resizeLast=0;collapsible=1;marginBottom=0;rounded=0;shadow=0;strokeWidth=1;" vertex="1" parent="JWwbm2Qh-RJvI3wkCz8D-1">
          <mxGeometry x="-80" y="-100" width="160" height="226" as="geometry">
            <mxRectangle x="230" y="140" width="160" height="26" as="alternateBounds" />
          </mxGeometry>
        </mxCell>
        <mxCell id="JWwbm2Qh-RJvI3wkCz8D-55" value="" style="line;html=1;strokeWidth=1;align=left;verticalAlign=middle;spacingTop=-1;spacingLeft=3;spacingRight=3;rotatable=0;labelPosition=right;points=[];portConstraint=eastwest;" vertex="1" parent="JWwbm2Qh-RJvI3wkCz8D-54">
          <mxGeometry y="26" width="160" height="8" as="geometry" />
        </mxCell>
        <mxCell id="JWwbm2Qh-RJvI3wkCz8D-56" value="Time Key (PK)&#xa;" style="text;align=left;verticalAlign=top;spacingLeft=4;spacingRight=4;overflow=hidden;rotatable=0;points=[[0,0.5],[1,0.5]];portConstraint=eastwest;rounded=0;shadow=0;html=0;" vertex="1" parent="JWwbm2Qh-RJvI3wkCz8D-54">
          <mxGeometry y="34" width="160" height="26" as="geometry" />
        </mxCell>
        <mxCell id="JWwbm2Qh-RJvI3wkCz8D-57" value="Time&#xa;" style="text;align=left;verticalAlign=top;spacingLeft=4;spacingRight=4;overflow=hidden;rotatable=0;points=[[0,0.5],[1,0.5]];portConstraint=eastwest;rounded=0;shadow=0;html=0;" vertex="1" parent="JWwbm2Qh-RJvI3wkCz8D-54">
          <mxGeometry y="60" width="160" height="30" as="geometry" />
        </mxCell>
        <mxCell id="JWwbm2Qh-RJvI3wkCz8D-58" value="Hour&#xa;" style="text;align=left;verticalAlign=top;spacingLeft=4;spacingRight=4;overflow=hidden;rotatable=0;points=[[0,0.5],[1,0.5]];portConstraint=eastwest;rounded=0;shadow=0;html=0;" vertex="1" parent="JWwbm2Qh-RJvI3wkCz8D-54">
          <mxGeometry y="90" width="160" height="30" as="geometry" />
        </mxCell>
        <mxCell id="JWwbm2Qh-RJvI3wkCz8D-59" value="Minute&#xa;" style="text;align=left;verticalAlign=top;spacingLeft=4;spacingRight=4;overflow=hidden;rotatable=0;points=[[0,0.5],[1,0.5]];portConstraint=eastwest;rounded=0;shadow=0;html=0;" vertex="1" parent="JWwbm2Qh-RJvI3wkCz8D-54">
          <mxGeometry y="120" width="160" height="30" as="geometry" />
        </mxCell>
        <mxCell id="JWwbm2Qh-RJvI3wkCz8D-60" value="Hour of Day&#xa;" style="text;align=left;verticalAlign=top;spacingLeft=4;spacingRight=4;overflow=hidden;rotatable=0;points=[[0,0.5],[1,0.5]];portConstraint=eastwest;rounded=0;shadow=0;html=0;" vertex="1" parent="JWwbm2Qh-RJvI3wkCz8D-54">
          <mxGeometry y="150" width="160" height="30" as="geometry" />
        </mxCell>
        <mxCell id="JWwbm2Qh-RJvI3wkCz8D-61" value="Airport" style="swimlane;fontStyle=2;align=center;verticalAlign=top;childLayout=stackLayout;horizontal=1;startSize=26;horizontalStack=0;resizeParent=1;resizeLast=0;collapsible=1;marginBottom=0;rounded=0;shadow=0;strokeWidth=1;" vertex="1" parent="JWwbm2Qh-RJvI3wkCz8D-1">
          <mxGeometry x="1300" y="-720" width="160" height="268" as="geometry">
            <mxRectangle x="230" y="140" width="160" height="26" as="alternateBounds" />
          </mxGeometry>
        </mxCell>
        <mxCell id="JWwbm2Qh-RJvI3wkCz8D-62" value="" style="line;html=1;strokeWidth=1;align=left;verticalAlign=middle;spacingTop=-1;spacingLeft=3;spacingRight=3;rotatable=0;labelPosition=right;points=[];portConstraint=eastwest;" vertex="1" parent="JWwbm2Qh-RJvI3wkCz8D-61">
          <mxGeometry y="26" width="160" height="8" as="geometry" />
        </mxCell>
        <mxCell id="JWwbm2Qh-RJvI3wkCz8D-63" value="Airport Key (PK)&#xa;" style="text;align=left;verticalAlign=top;spacingLeft=4;spacingRight=4;overflow=hidden;rotatable=0;points=[[0,0.5],[1,0.5]];portConstraint=eastwest;rounded=0;shadow=0;html=0;" vertex="1" parent="JWwbm2Qh-RJvI3wkCz8D-61">
          <mxGeometry y="34" width="160" height="26" as="geometry" />
        </mxCell>
        <mxCell id="JWwbm2Qh-RJvI3wkCz8D-64" value="Airport Code&#xa;" style="text;align=left;verticalAlign=top;spacingLeft=4;spacingRight=4;overflow=hidden;rotatable=0;points=[[0,0.5],[1,0.5]];portConstraint=eastwest;rounded=0;shadow=0;html=0;" vertex="1" parent="JWwbm2Qh-RJvI3wkCz8D-61">
          <mxGeometry y="60" width="160" height="26" as="geometry" />
        </mxCell>
        <mxCell id="JWwbm2Qh-RJvI3wkCz8D-65" value="Airport Name&#xa;" style="text;align=left;verticalAlign=top;spacingLeft=4;spacingRight=4;overflow=hidden;rotatable=0;points=[[0,0.5],[1,0.5]];portConstraint=eastwest;rounded=0;shadow=0;html=0;" vertex="1" parent="JWwbm2Qh-RJvI3wkCz8D-61">
          <mxGeometry y="86" width="160" height="26" as="geometry" />
        </mxCell>
        <mxCell id="JWwbm2Qh-RJvI3wkCz8D-66" value="City&#xa;" style="text;align=left;verticalAlign=top;spacingLeft=4;spacingRight=4;overflow=hidden;rotatable=0;points=[[0,0.5],[1,0.5]];portConstraint=eastwest;rounded=0;shadow=0;html=0;" vertex="1" parent="JWwbm2Qh-RJvI3wkCz8D-61">
          <mxGeometry y="112" width="160" height="26" as="geometry" />
        </mxCell>
        <mxCell id="JWwbm2Qh-RJvI3wkCz8D-67" value="Country&#xa;" style="text;align=left;verticalAlign=top;spacingLeft=4;spacingRight=4;overflow=hidden;rotatable=0;points=[[0,0.5],[1,0.5]];portConstraint=eastwest;rounded=0;shadow=0;html=0;" vertex="1" parent="JWwbm2Qh-RJvI3wkCz8D-61">
          <mxGeometry y="138" width="160" height="26" as="geometry" />
        </mxCell>
        <mxCell id="JWwbm2Qh-RJvI3wkCz8D-68" value="Timezone&#xa;" style="text;align=left;verticalAlign=top;spacingLeft=4;spacingRight=4;overflow=hidden;rotatable=0;points=[[0,0.5],[1,0.5]];portConstraint=eastwest;rounded=0;shadow=0;html=0;" vertex="1" parent="JWwbm2Qh-RJvI3wkCz8D-61">
          <mxGeometry y="164" width="160" height="26" as="geometry" />
        </mxCell>
        <mxCell id="JWwbm2Qh-RJvI3wkCz8D-69" value="Latitude&#xa;" style="text;align=left;verticalAlign=top;spacingLeft=4;spacingRight=4;overflow=hidden;rotatable=0;points=[[0,0.5],[1,0.5]];portConstraint=eastwest;rounded=0;shadow=0;html=0;" vertex="1" parent="JWwbm2Qh-RJvI3wkCz8D-61">
          <mxGeometry y="190" width="160" height="26" as="geometry" />
        </mxCell>
        <mxCell id="JWwbm2Qh-RJvI3wkCz8D-70" value="Longitude&#xa;" style="text;align=left;verticalAlign=top;spacingLeft=4;spacingRight=4;overflow=hidden;rotatable=0;points=[[0,0.5],[1,0.5]];portConstraint=eastwest;rounded=0;shadow=0;html=0;" vertex="1" parent="JWwbm2Qh-RJvI3wkCz8D-61">
          <mxGeometry y="216" width="160" height="26" as="geometry" />
        </mxCell>
        <mxCell id="JWwbm2Qh-RJvI3wkCz8D-71" value="Airport Type&#xa;" style="text;align=left;verticalAlign=top;spacingLeft=4;spacingRight=4;overflow=hidden;rotatable=0;points=[[0,0.5],[1,0.5]];portConstraint=eastwest;rounded=0;shadow=0;html=0;" vertex="1" parent="JWwbm2Qh-RJvI3wkCz8D-61">
          <mxGeometry y="242" width="160" height="26" as="geometry" />
        </mxCell>
        <mxCell id="JWwbm2Qh-RJvI3wkCz8D-72" value="Aircraft" style="swimlane;fontStyle=2;align=center;verticalAlign=top;childLayout=stackLayout;horizontal=1;startSize=26;horizontalStack=0;resizeParent=1;resizeLast=0;collapsible=1;marginBottom=0;rounded=0;shadow=0;strokeWidth=1;" vertex="1" parent="JWwbm2Qh-RJvI3wkCz8D-1">
          <mxGeometry x="-433" y="-220" width="160" height="304" as="geometry">
            <mxRectangle x="230" y="140" width="160" height="26" as="alternateBounds" />
          </mxGeometry>
        </mxCell>
        <mxCell id="JWwbm2Qh-RJvI3wkCz8D-73" value="" style="line;html=1;strokeWidth=1;align=left;verticalAlign=middle;spacingTop=-1;spacingLeft=3;spacingRight=3;rotatable=0;labelPosition=right;points=[];portConstraint=eastwest;" vertex="1" parent="JWwbm2Qh-RJvI3wkCz8D-72">
          <mxGeometry y="26" width="160" height="8" as="geometry" />
        </mxCell>
        <mxCell id="JWwbm2Qh-RJvI3wkCz8D-74" value="Aircraft Key (PK)&#xa;" style="text;align=left;verticalAlign=top;spacingLeft=4;spacingRight=4;overflow=hidden;rotatable=0;points=[[0,0.5],[1,0.5]];portConstraint=eastwest;rounded=0;shadow=0;html=0;" vertex="1" parent="JWwbm2Qh-RJvI3wkCz8D-72">
          <mxGeometry y="34" width="160" height="30" as="geometry" />
        </mxCell>
        <mxCell id="JWwbm2Qh-RJvI3wkCz8D-75" value="Aircraft Code&#xa;" style="text;align=left;verticalAlign=top;spacingLeft=4;spacingRight=4;overflow=hidden;rotatable=0;points=[[0,0.5],[1,0.5]];portConstraint=eastwest;rounded=0;shadow=0;html=0;" vertex="1" parent="JWwbm2Qh-RJvI3wkCz8D-72">
          <mxGeometry y="64" width="160" height="30" as="geometry" />
        </mxCell>
        <mxCell id="JWwbm2Qh-RJvI3wkCz8D-76" value="Aircraft Type&#xa;" style="text;align=left;verticalAlign=top;spacingLeft=4;spacingRight=4;overflow=hidden;rotatable=0;points=[[0,0.5],[1,0.5]];portConstraint=eastwest;rounded=0;shadow=0;html=0;" vertex="1" parent="JWwbm2Qh-RJvI3wkCz8D-72">
          <mxGeometry y="94" width="160" height="30" as="geometry" />
        </mxCell>
        <mxCell id="JWwbm2Qh-RJvI3wkCz8D-77" value="Manufacturer&#xa;" style="text;align=left;verticalAlign=top;spacingLeft=4;spacingRight=4;overflow=hidden;rotatable=0;points=[[0,0.5],[1,0.5]];portConstraint=eastwest;rounded=0;shadow=0;html=0;" vertex="1" parent="JWwbm2Qh-RJvI3wkCz8D-72">
          <mxGeometry y="124" width="160" height="30" as="geometry" />
        </mxCell>
        <mxCell id="JWwbm2Qh-RJvI3wkCz8D-78" value="Model&#xa;" style="text;align=left;verticalAlign=top;spacingLeft=4;spacingRight=4;overflow=hidden;rotatable=0;points=[[0,0.5],[1,0.5]];portConstraint=eastwest;rounded=0;shadow=0;html=0;" vertex="1" parent="JWwbm2Qh-RJvI3wkCz8D-72">
          <mxGeometry y="154" width="160" height="30" as="geometry" />
        </mxCell>
        <mxCell id="JWwbm2Qh-RJvI3wkCz8D-79" value="Year of Manufacture&#xa;" style="text;align=left;verticalAlign=top;spacingLeft=4;spacingRight=4;overflow=hidden;rotatable=0;points=[[0,0.5],[1,0.5]];portConstraint=eastwest;rounded=0;shadow=0;html=0;" vertex="1" parent="JWwbm2Qh-RJvI3wkCz8D-72">
          <mxGeometry y="184" width="160" height="30" as="geometry" />
        </mxCell>
        <mxCell id="JWwbm2Qh-RJvI3wkCz8D-80" value="Seating Capacity&#xa;" style="text;align=left;verticalAlign=top;spacingLeft=4;spacingRight=4;overflow=hidden;rotatable=0;points=[[0,0.5],[1,0.5]];portConstraint=eastwest;rounded=0;shadow=0;html=0;" vertex="1" parent="JWwbm2Qh-RJvI3wkCz8D-72">
          <mxGeometry y="214" width="160" height="30" as="geometry" />
        </mxCell>
        <mxCell id="JWwbm2Qh-RJvI3wkCz8D-81" value="Maximum Range&#xa;" style="text;align=left;verticalAlign=top;spacingLeft=4;spacingRight=4;overflow=hidden;rotatable=0;points=[[0,0.5],[1,0.5]];portConstraint=eastwest;rounded=0;shadow=0;html=0;" vertex="1" parent="JWwbm2Qh-RJvI3wkCz8D-72">
          <mxGeometry y="244" width="160" height="30" as="geometry" />
        </mxCell>
        <mxCell id="JWwbm2Qh-RJvI3wkCz8D-82" value="Operating Weight&#xa;" style="text;align=left;verticalAlign=top;spacingLeft=4;spacingRight=4;overflow=hidden;rotatable=0;points=[[0,0.5],[1,0.5]];portConstraint=eastwest;rounded=0;shadow=0;html=0;" vertex="1" parent="JWwbm2Qh-RJvI3wkCz8D-72">
          <mxGeometry y="274" width="160" height="30" as="geometry" />
        </mxCell>
        <mxCell id="JWwbm2Qh-RJvI3wkCz8D-83" value="Fare basis" style="swimlane;fontStyle=2;align=center;verticalAlign=top;childLayout=stackLayout;horizontal=1;startSize=26;horizontalStack=0;resizeParent=1;resizeLast=0;collapsible=1;marginBottom=0;rounded=0;shadow=0;strokeWidth=1;" vertex="1" parent="JWwbm2Qh-RJvI3wkCz8D-1">
          <mxGeometry x="1500" y="490" width="160" height="190" as="geometry">
            <mxRectangle x="230" y="140" width="160" height="26" as="alternateBounds" />
          </mxGeometry>
        </mxCell>
        <mxCell id="JWwbm2Qh-RJvI3wkCz8D-84" value="" style="line;html=1;strokeWidth=1;align=left;verticalAlign=middle;spacingTop=-1;spacingLeft=3;spacingRight=3;rotatable=0;labelPosition=right;points=[];portConstraint=eastwest;" vertex="1" parent="JWwbm2Qh-RJvI3wkCz8D-83">
          <mxGeometry y="26" width="160" height="8" as="geometry" />
        </mxCell>
        <mxCell id="JWwbm2Qh-RJvI3wkCz8D-85" value="Fare Basis Key (PK)&#xa;" style="text;align=left;verticalAlign=top;spacingLeft=4;spacingRight=4;overflow=hidden;rotatable=0;points=[[0,0.5],[1,0.5]];portConstraint=eastwest;rounded=0;shadow=0;html=0;" vertex="1" parent="JWwbm2Qh-RJvI3wkCz8D-83">
          <mxGeometry y="34" width="160" height="26" as="geometry" />
        </mxCell>
        <mxCell id="JWwbm2Qh-RJvI3wkCz8D-86" value="Fare Basis Code&#xa;" style="text;align=left;verticalAlign=top;spacingLeft=4;spacingRight=4;overflow=hidden;rotatable=0;points=[[0,0.5],[1,0.5]];portConstraint=eastwest;rounded=0;shadow=0;html=0;" vertex="1" parent="JWwbm2Qh-RJvI3wkCz8D-83">
          <mxGeometry y="60" width="160" height="26" as="geometry" />
        </mxCell>
        <mxCell id="JWwbm2Qh-RJvI3wkCz8D-87" value="Fare Description&#xa;" style="text;align=left;verticalAlign=top;spacingLeft=4;spacingRight=4;overflow=hidden;rotatable=0;points=[[0,0.5],[1,0.5]];portConstraint=eastwest;rounded=0;shadow=0;html=0;" vertex="1" parent="JWwbm2Qh-RJvI3wkCz8D-83">
          <mxGeometry y="86" width="160" height="26" as="geometry" />
        </mxCell>
        <mxCell id="JWwbm2Qh-RJvI3wkCz8D-88" value="Fare Type&#xa;" style="text;align=left;verticalAlign=top;spacingLeft=4;spacingRight=4;overflow=hidden;rotatable=0;points=[[0,0.5],[1,0.5]];portConstraint=eastwest;rounded=0;shadow=0;html=0;" vertex="1" parent="JWwbm2Qh-RJvI3wkCz8D-83">
          <mxGeometry y="112" width="160" height="26" as="geometry" />
        </mxCell>
        <mxCell id="JWwbm2Qh-RJvI3wkCz8D-89" value="Restrictions&#xa;" style="text;align=left;verticalAlign=top;spacingLeft=4;spacingRight=4;overflow=hidden;rotatable=0;points=[[0,0.5],[1,0.5]];portConstraint=eastwest;rounded=0;shadow=0;html=0;" vertex="1" parent="JWwbm2Qh-RJvI3wkCz8D-83">
          <mxGeometry y="138" width="160" height="26" as="geometry" />
        </mxCell>
        <mxCell id="JWwbm2Qh-RJvI3wkCz8D-90" value="Discount Percentage&#xa;" style="text;align=left;verticalAlign=top;spacingLeft=4;spacingRight=4;overflow=hidden;rotatable=0;points=[[0,0.5],[1,0.5]];portConstraint=eastwest;rounded=0;shadow=0;html=0;" vertex="1" parent="JWwbm2Qh-RJvI3wkCz8D-83">
          <mxGeometry y="164" width="160" height="26" as="geometry" />
        </mxCell>
        <mxCell id="JWwbm2Qh-RJvI3wkCz8D-91" value="flight" style="swimlane;fontStyle=0;childLayout=stackLayout;horizontal=1;startSize=26;fillColor=none;horizontalStack=0;resizeParent=1;resizeParentMax=0;resizeLast=0;collapsible=1;marginBottom=0;whiteSpace=wrap;html=1;" vertex="1" parent="JWwbm2Qh-RJvI3wkCz8D-1">
          <mxGeometry x="-470" y="340" width="170" height="182" as="geometry" />
        </mxCell>
        <mxCell id="JWwbm2Qh-RJvI3wkCz8D-92" value="Flight id (PK)" style="text;strokeColor=none;fillColor=none;align=left;verticalAlign=top;spacingLeft=4;spacingRight=4;overflow=hidden;rotatable=0;points=[[0,0.5],[1,0.5]];portConstraint=eastwest;whiteSpace=wrap;html=1;" vertex="1" parent="JWwbm2Qh-RJvI3wkCz8D-91">
          <mxGeometry y="26" width="170" height="26" as="geometry" />
        </mxCell>
        <mxCell id="JWwbm2Qh-RJvI3wkCz8D-93" value="Departure city" style="text;strokeColor=none;fillColor=none;align=left;verticalAlign=top;spacingLeft=4;spacingRight=4;overflow=hidden;rotatable=0;points=[[0,0.5],[1,0.5]];portConstraint=eastwest;whiteSpace=wrap;html=1;" vertex="1" parent="JWwbm2Qh-RJvI3wkCz8D-91">
          <mxGeometry y="52" width="170" height="26" as="geometry" />
        </mxCell>
        <mxCell id="JWwbm2Qh-RJvI3wkCz8D-94" value="Arrival city" style="text;strokeColor=none;fillColor=none;align=left;verticalAlign=top;spacingLeft=4;spacingRight=4;overflow=hidden;rotatable=0;points=[[0,0.5],[1,0.5]];portConstraint=eastwest;whiteSpace=wrap;html=1;" vertex="1" parent="JWwbm2Qh-RJvI3wkCz8D-91">
          <mxGeometry y="78" width="170" height="26" as="geometry" />
        </mxCell>
        <mxCell id="JWwbm2Qh-RJvI3wkCz8D-95" value="Departure Date and Time" style="text;strokeColor=none;fillColor=none;align=left;verticalAlign=top;spacingLeft=4;spacingRight=4;overflow=hidden;rotatable=0;points=[[0,0.5],[1,0.5]];portConstraint=eastwest;whiteSpace=wrap;html=1;" vertex="1" parent="JWwbm2Qh-RJvI3wkCz8D-91">
          <mxGeometry y="104" width="170" height="26" as="geometry" />
        </mxCell>
        <mxCell id="JWwbm2Qh-RJvI3wkCz8D-96" value="Arrival Date and Time" style="text;strokeColor=none;fillColor=none;align=left;verticalAlign=top;spacingLeft=4;spacingRight=4;overflow=hidden;rotatable=0;points=[[0,0.5],[1,0.5]];portConstraint=eastwest;whiteSpace=wrap;html=1;" vertex="1" parent="JWwbm2Qh-RJvI3wkCz8D-91">
          <mxGeometry y="130" width="170" height="26" as="geometry" />
        </mxCell>
        <mxCell id="JWwbm2Qh-RJvI3wkCz8D-97" value="Aircraft Type" style="text;strokeColor=none;fillColor=none;align=left;verticalAlign=top;spacingLeft=4;spacingRight=4;overflow=hidden;rotatable=0;points=[[0,0.5],[1,0.5]];portConstraint=eastwest;whiteSpace=wrap;html=1;" vertex="1" parent="JWwbm2Qh-RJvI3wkCz8D-91">
          <mxGeometry y="156" width="170" height="26" as="geometry" />
        </mxCell>
        <mxCell id="JWwbm2Qh-RJvI3wkCz8D-98" value="Customer Care" style="swimlane;fontStyle=0;align=center;verticalAlign=top;childLayout=stackLayout;horizontal=1;startSize=26;horizontalStack=0;resizeParent=1;resizeLast=0;collapsible=1;marginBottom=0;rounded=0;shadow=0;strokeWidth=1;" vertex="1" parent="JWwbm2Qh-RJvI3wkCz8D-1">
          <mxGeometry x="1950" y="720" width="330" height="280" as="geometry">
            <mxRectangle x="550" y="140" width="160" height="26" as="alternateBounds" />
          </mxGeometry>
        </mxCell>
        <mxCell id="JWwbm2Qh-RJvI3wkCz8D-99" value="date key (FK)" style="text;align=left;verticalAlign=top;spacingLeft=4;spacingRight=4;overflow=hidden;rotatable=0;points=[[0,0.5],[1,0.5]];portConstraint=eastwest;" vertex="1" parent="JWwbm2Qh-RJvI3wkCz8D-98">
          <mxGeometry y="26" width="330" height="22" as="geometry" />
        </mxCell>
        <mxCell id="JWwbm2Qh-RJvI3wkCz8D-100" value="passanger key (FK)" style="text;align=left;verticalAlign=top;spacingLeft=4;spacingRight=4;overflow=hidden;rotatable=0;points=[[0,0.5],[1,0.5]];portConstraint=eastwest;rounded=0;shadow=0;html=0;" vertex="1" parent="JWwbm2Qh-RJvI3wkCz8D-98">
          <mxGeometry y="48" width="330" height="26" as="geometry" />
        </mxCell>
        <mxCell id="JWwbm2Qh-RJvI3wkCz8D-101" value="flight key (FK)" style="text;align=left;verticalAlign=top;spacingLeft=4;spacingRight=4;overflow=hidden;rotatable=0;points=[[0,0.5],[1,0.5]];portConstraint=eastwest;rounded=0;shadow=0;html=0;" vertex="1" parent="JWwbm2Qh-RJvI3wkCz8D-98">
          <mxGeometry y="74" width="330" height="26" as="geometry" />
        </mxCell>
        <mxCell id="JWwbm2Qh-RJvI3wkCz8D-102" value="interaction key (FK)" style="text;align=left;verticalAlign=top;spacingLeft=4;spacingRight=4;overflow=hidden;rotatable=0;points=[[0,0.5],[1,0.5]];portConstraint=eastwest;rounded=0;shadow=0;html=0;" vertex="1" parent="JWwbm2Qh-RJvI3wkCz8D-98">
          <mxGeometry y="100" width="330" height="26" as="geometry" />
        </mxCell>
        <mxCell id="JWwbm2Qh-RJvI3wkCz8D-103" value="channel key (FK)&#xa;" style="text;align=left;verticalAlign=top;spacingLeft=4;spacingRight=4;overflow=hidden;rotatable=0;points=[[0,0.5],[1,0.5]];portConstraint=eastwest;rounded=0;shadow=0;html=0;" vertex="1" parent="JWwbm2Qh-RJvI3wkCz8D-98">
          <mxGeometry y="126" width="330" height="26" as="geometry" />
        </mxCell>
        <mxCell id="JWwbm2Qh-RJvI3wkCz8D-104" value="employee key (FK)" style="text;align=left;verticalAlign=top;spacingLeft=4;spacingRight=4;overflow=hidden;rotatable=0;points=[[0,0.5],[1,0.5]];portConstraint=eastwest;" vertex="1" parent="JWwbm2Qh-RJvI3wkCz8D-98">
          <mxGeometry y="152" width="330" height="22" as="geometry" />
        </mxCell>
        <mxCell id="JWwbm2Qh-RJvI3wkCz8D-105" value="problem key (FK)" style="text;align=left;verticalAlign=top;spacingLeft=4;spacingRight=4;overflow=hidden;rotatable=0;points=[[0,0.5],[1,0.5]];portConstraint=eastwest;rounded=0;shadow=0;html=0;" vertex="1" parent="JWwbm2Qh-RJvI3wkCz8D-98">
          <mxGeometry y="174" width="330" height="26" as="geometry" />
        </mxCell>
        <mxCell id="JWwbm2Qh-RJvI3wkCz8D-106" value="description (DD)" style="text;align=left;verticalAlign=top;spacingLeft=4;spacingRight=4;overflow=hidden;rotatable=0;points=[[0,0.5],[1,0.5]];portConstraint=eastwest;" vertex="1" parent="JWwbm2Qh-RJvI3wkCz8D-98">
          <mxGeometry y="200" width="330" height="26" as="geometry" />
        </mxCell>
        <mxCell id="JWwbm2Qh-RJvI3wkCz8D-107" value="" style="line;html=1;strokeWidth=1;align=left;verticalAlign=middle;spacingTop=-1;spacingLeft=3;spacingRight=3;rotatable=0;labelPosition=right;points=[];portConstraint=eastwest;" vertex="1" parent="JWwbm2Qh-RJvI3wkCz8D-98">
          <mxGeometry y="226" width="330" height="8" as="geometry" />
        </mxCell>
        <mxCell id="JWwbm2Qh-RJvI3wkCz8D-108" value="feedback  rate" style="text;align=left;verticalAlign=top;spacingLeft=4;spacingRight=4;overflow=hidden;rotatable=0;points=[[0,0.5],[1,0.5]];portConstraint=eastwest;" vertex="1" parent="JWwbm2Qh-RJvI3wkCz8D-98">
          <mxGeometry y="234" width="330" height="26" as="geometry" />
        </mxCell>
        <mxCell id="JWwbm2Qh-RJvI3wkCz8D-109" value="Customer Service&amp;nbsp;" style="swimlane;fontStyle=0;childLayout=stackLayout;horizontal=1;startSize=26;fillColor=none;horizontalStack=0;resizeParent=1;resizeParentMax=0;resizeLast=0;collapsible=1;marginBottom=0;whiteSpace=wrap;html=1;" vertex="1" parent="JWwbm2Qh-RJvI3wkCz8D-1">
          <mxGeometry x="-413" y="970" width="140" height="104" as="geometry" />
        </mxCell>
        <mxCell id="JWwbm2Qh-RJvI3wkCz8D-110" value="&lt;span style=&quot;text-wrap: nowrap;&quot;&gt;Employee Key (PK)&lt;/span&gt;" style="text;strokeColor=none;fillColor=none;align=left;verticalAlign=top;spacingLeft=4;spacingRight=4;overflow=hidden;rotatable=0;points=[[0,0.5],[1,0.5]];portConstraint=eastwest;whiteSpace=wrap;html=1;" vertex="1" parent="JWwbm2Qh-RJvI3wkCz8D-109">
          <mxGeometry y="26" width="140" height="26" as="geometry" />
        </mxCell>
        <mxCell id="JWwbm2Qh-RJvI3wkCz8D-111" value="Employee id" style="text;strokeColor=none;fillColor=none;align=left;verticalAlign=top;spacingLeft=4;spacingRight=4;overflow=hidden;rotatable=0;points=[[0,0.5],[1,0.5]];portConstraint=eastwest;whiteSpace=wrap;html=1;" vertex="1" parent="JWwbm2Qh-RJvI3wkCz8D-109">
          <mxGeometry y="52" width="140" height="26" as="geometry" />
        </mxCell>
        <mxCell id="JWwbm2Qh-RJvI3wkCz8D-112" value="Employee Name" style="text;strokeColor=none;fillColor=none;align=left;verticalAlign=top;spacingLeft=4;spacingRight=4;overflow=hidden;rotatable=0;points=[[0,0.5],[1,0.5]];portConstraint=eastwest;whiteSpace=wrap;html=1;" vertex="1" parent="JWwbm2Qh-RJvI3wkCz8D-109">
          <mxGeometry y="78" width="140" height="26" as="geometry" />
        </mxCell>
        <mxCell id="JWwbm2Qh-RJvI3wkCz8D-113" value="interaction" style="swimlane;fontStyle=0;childLayout=stackLayout;horizontal=1;startSize=26;fillColor=none;horizontalStack=0;resizeParent=1;resizeParentMax=0;resizeLast=0;collapsible=1;marginBottom=0;whiteSpace=wrap;html=1;" vertex="1" parent="JWwbm2Qh-RJvI3wkCz8D-1">
          <mxGeometry x="750" y="900" width="140" height="130" as="geometry" />
        </mxCell>
        <mxCell id="JWwbm2Qh-RJvI3wkCz8D-114" value="&lt;span style=&quot;text-wrap: nowrap;&quot;&gt;interaction key (PK)&lt;/span&gt;" style="text;strokeColor=none;fillColor=none;align=left;verticalAlign=top;spacingLeft=4;spacingRight=4;overflow=hidden;rotatable=0;points=[[0,0.5],[1,0.5]];portConstraint=eastwest;whiteSpace=wrap;html=1;" vertex="1" parent="JWwbm2Qh-RJvI3wkCz8D-113">
          <mxGeometry y="26" width="140" height="26" as="geometry" />
        </mxCell>
        <mxCell id="JWwbm2Qh-RJvI3wkCz8D-115" value="interaction id" style="text;strokeColor=none;fillColor=none;align=left;verticalAlign=top;spacingLeft=4;spacingRight=4;overflow=hidden;rotatable=0;points=[[0,0.5],[1,0.5]];portConstraint=eastwest;whiteSpace=wrap;html=1;" vertex="1" parent="JWwbm2Qh-RJvI3wkCz8D-113">
          <mxGeometry y="52" width="140" height="26" as="geometry" />
        </mxCell>
        <mxCell id="JWwbm2Qh-RJvI3wkCz8D-116" value="type" style="text;strokeColor=none;fillColor=none;align=left;verticalAlign=top;spacingLeft=4;spacingRight=4;overflow=hidden;rotatable=0;points=[[0,0.5],[1,0.5]];portConstraint=eastwest;whiteSpace=wrap;html=1;" vertex="1" parent="JWwbm2Qh-RJvI3wkCz8D-113">
          <mxGeometry y="78" width="140" height="26" as="geometry" />
        </mxCell>
        <mxCell id="JWwbm2Qh-RJvI3wkCz8D-117" value="time" style="text;strokeColor=none;fillColor=none;align=left;verticalAlign=top;spacingLeft=4;spacingRight=4;overflow=hidden;rotatable=0;points=[[0,0.5],[1,0.5]];portConstraint=eastwest;whiteSpace=wrap;html=1;" vertex="1" parent="JWwbm2Qh-RJvI3wkCz8D-113">
          <mxGeometry y="104" width="140" height="26" as="geometry" />
        </mxCell>
        <mxCell id="JWwbm2Qh-RJvI3wkCz8D-118" value="problem" style="swimlane;fontStyle=0;childLayout=stackLayout;horizontal=1;startSize=26;fillColor=none;horizontalStack=0;resizeParent=1;resizeParentMax=0;resizeLast=0;collapsible=1;marginBottom=0;whiteSpace=wrap;html=1;" vertex="1" parent="JWwbm2Qh-RJvI3wkCz8D-1">
          <mxGeometry x="530" y="980" width="140" height="130" as="geometry" />
        </mxCell>
        <mxCell id="JWwbm2Qh-RJvI3wkCz8D-119" value="problem key (PK)" style="text;strokeColor=none;fillColor=none;align=left;verticalAlign=top;spacingLeft=4;spacingRight=4;overflow=hidden;rotatable=0;points=[[0,0.5],[1,0.5]];portConstraint=eastwest;whiteSpace=wrap;html=1;" vertex="1" parent="JWwbm2Qh-RJvI3wkCz8D-118">
          <mxGeometry y="26" width="140" height="26" as="geometry" />
        </mxCell>
        <mxCell id="JWwbm2Qh-RJvI3wkCz8D-120" value="problem id" style="text;strokeColor=none;fillColor=none;align=left;verticalAlign=top;spacingLeft=4;spacingRight=4;overflow=hidden;rotatable=0;points=[[0,0.5],[1,0.5]];portConstraint=eastwest;whiteSpace=wrap;html=1;" vertex="1" parent="JWwbm2Qh-RJvI3wkCz8D-118">
          <mxGeometry y="52" width="140" height="26" as="geometry" />
        </mxCell>
        <mxCell id="JWwbm2Qh-RJvI3wkCz8D-121" value="problem type" style="text;strokeColor=none;fillColor=none;align=left;verticalAlign=top;spacingLeft=4;spacingRight=4;overflow=hidden;rotatable=0;points=[[0,0.5],[1,0.5]];portConstraint=eastwest;whiteSpace=wrap;html=1;" vertex="1" parent="JWwbm2Qh-RJvI3wkCz8D-118">
          <mxGeometry y="78" width="140" height="26" as="geometry" />
        </mxCell>
        <mxCell id="JWwbm2Qh-RJvI3wkCz8D-122" value="problem seevrity" style="text;strokeColor=none;fillColor=none;align=left;verticalAlign=top;spacingLeft=4;spacingRight=4;overflow=hidden;rotatable=0;points=[[0,0.5],[1,0.5]];portConstraint=eastwest;whiteSpace=wrap;html=1;" vertex="1" parent="JWwbm2Qh-RJvI3wkCz8D-118">
          <mxGeometry y="104" width="140" height="26" as="geometry" />
        </mxCell>
        <mxCell id="JWwbm2Qh-RJvI3wkCz8D-123" value="channel" style="swimlane;fontStyle=0;childLayout=stackLayout;horizontal=1;startSize=26;fillColor=none;horizontalStack=0;resizeParent=1;resizeParentMax=0;resizeLast=0;collapsible=1;marginBottom=0;whiteSpace=wrap;html=1;" vertex="1" parent="JWwbm2Qh-RJvI3wkCz8D-1">
          <mxGeometry x="-490" y="673" width="140" height="84" as="geometry">
            <mxRectangle x="500" y="410" width="80" height="30" as="alternateBounds" />
          </mxGeometry>
        </mxCell>
        <mxCell id="JWwbm2Qh-RJvI3wkCz8D-124" value="channel key (PK)" style="text;strokeColor=none;fillColor=none;align=left;verticalAlign=top;spacingLeft=4;spacingRight=4;overflow=hidden;rotatable=0;points=[[0,0.5],[1,0.5]];portConstraint=eastwest;whiteSpace=wrap;html=1;" vertex="1" parent="JWwbm2Qh-RJvI3wkCz8D-123">
          <mxGeometry y="26" width="140" height="32" as="geometry" />
        </mxCell>
        <mxCell id="JWwbm2Qh-RJvI3wkCz8D-125" value="channel type" style="text;strokeColor=none;fillColor=none;align=left;verticalAlign=top;spacingLeft=4;spacingRight=4;overflow=hidden;rotatable=0;points=[[0,0.5],[1,0.5]];portConstraint=eastwest;whiteSpace=wrap;html=1;" vertex="1" parent="JWwbm2Qh-RJvI3wkCz8D-123">
          <mxGeometry y="58" width="140" height="26" as="geometry" />
        </mxCell>
        <mxCell id="JWwbm2Qh-RJvI3wkCz8D-126" value="Reservation Fact" style="swimlane;fontStyle=0;align=center;verticalAlign=top;childLayout=stackLayout;horizontal=1;startSize=26;horizontalStack=0;resizeParent=1;resizeLast=0;collapsible=1;marginBottom=0;rounded=0;shadow=0;strokeWidth=1;" vertex="1" parent="JWwbm2Qh-RJvI3wkCz8D-1">
          <mxGeometry x="1950" y="-500" width="319" height="450" as="geometry">
            <mxRectangle x="550" y="140" width="160" height="26" as="alternateBounds" />
          </mxGeometry>
        </mxCell>
        <mxCell id="JWwbm2Qh-RJvI3wkCz8D-127" value="Date Key (FK) &#xa;" style="text;align=left;verticalAlign=top;spacingLeft=4;spacingRight=4;overflow=hidden;rotatable=0;points=[[0,0.5],[1,0.5]];portConstraint=eastwest;rounded=0;shadow=0;html=0;" vertex="1" parent="JWwbm2Qh-RJvI3wkCz8D-126">
          <mxGeometry y="26" width="319" height="26" as="geometry" />
        </mxCell>
        <mxCell id="JWwbm2Qh-RJvI3wkCz8D-128" value="Scheduled Departure Date Key (FK)&#xa;" style="text;align=left;verticalAlign=top;spacingLeft=4;spacingRight=4;overflow=hidden;rotatable=0;points=[[0,0.5],[1,0.5]];portConstraint=eastwest;rounded=0;shadow=0;html=0;" vertex="1" parent="JWwbm2Qh-RJvI3wkCz8D-126">
          <mxGeometry y="52" width="319" height="26" as="geometry" />
        </mxCell>
        <mxCell id="JWwbm2Qh-RJvI3wkCz8D-129" value="Scheduled Departure Time Key (FK) &#xa;" style="text;align=left;verticalAlign=top;spacingLeft=4;spacingRight=4;overflow=hidden;rotatable=0;points=[[0,0.5],[1,0.5]];portConstraint=eastwest;rounded=0;shadow=0;html=0;" vertex="1" parent="JWwbm2Qh-RJvI3wkCz8D-126">
          <mxGeometry y="78" width="319" height="26" as="geometry" />
        </mxCell>
        <mxCell id="JWwbm2Qh-RJvI3wkCz8D-130" value="Passenger Key (FK) &#xa;" style="text;align=left;verticalAlign=top;spacingLeft=4;spacingRight=4;overflow=hidden;rotatable=0;points=[[0,0.5],[1,0.5]];portConstraint=eastwest;rounded=0;shadow=0;html=0;" vertex="1" parent="JWwbm2Qh-RJvI3wkCz8D-126">
          <mxGeometry y="104" width="319" height="26" as="geometry" />
        </mxCell>
        <mxCell id="JWwbm2Qh-RJvI3wkCz8D-131" value="Trip Origin Airport Key (FK) &#xa;" style="text;align=left;verticalAlign=top;spacingLeft=4;spacingRight=4;overflow=hidden;rotatable=0;points=[[0,0.5],[1,0.5]];portConstraint=eastwest;rounded=0;shadow=0;html=0;" vertex="1" parent="JWwbm2Qh-RJvI3wkCz8D-126">
          <mxGeometry y="130" width="319" height="26" as="geometry" />
        </mxCell>
        <mxCell id="JWwbm2Qh-RJvI3wkCz8D-132" value="Trip Destination Airport Key (FK) &#xa;" style="text;align=left;verticalAlign=top;spacingLeft=4;spacingRight=4;overflow=hidden;rotatable=0;points=[[0,0.5],[1,0.5]];portConstraint=eastwest;rounded=0;shadow=0;html=0;" vertex="1" parent="JWwbm2Qh-RJvI3wkCz8D-126">
          <mxGeometry y="156" width="319" height="26" as="geometry" />
        </mxCell>
        <mxCell id="JWwbm2Qh-RJvI3wkCz8D-133" value="Aircraft Key (FK) &#xa;" style="text;align=left;verticalAlign=top;spacingLeft=4;spacingRight=4;overflow=hidden;rotatable=0;points=[[0,0.5],[1,0.5]];portConstraint=eastwest;rounded=0;shadow=0;html=0;" vertex="1" parent="JWwbm2Qh-RJvI3wkCz8D-126">
          <mxGeometry y="182" width="319" height="26" as="geometry" />
        </mxCell>
        <mxCell id="JWwbm2Qh-RJvI3wkCz8D-134" value="Class of Service Flown Key (FK) &#xa;" style="text;align=left;verticalAlign=top;spacingLeft=4;spacingRight=4;overflow=hidden;rotatable=0;points=[[0,0.5],[1,0.5]];portConstraint=eastwest;rounded=0;shadow=0;html=0;" vertex="1" parent="JWwbm2Qh-RJvI3wkCz8D-126">
          <mxGeometry y="208" width="319" height="26" as="geometry" />
        </mxCell>
        <mxCell id="JWwbm2Qh-RJvI3wkCz8D-135" value="Fare Basis Key (FK) &#xa;" style="text;align=left;verticalAlign=top;spacingLeft=4;spacingRight=4;overflow=hidden;rotatable=0;points=[[0,0.5],[1,0.5]];portConstraint=eastwest;rounded=0;shadow=0;html=0;" vertex="1" parent="JWwbm2Qh-RJvI3wkCz8D-126">
          <mxGeometry y="234" width="319" height="26" as="geometry" />
        </mxCell>
        <mxCell id="JWwbm2Qh-RJvI3wkCz8D-136" value="Booking Channel Key (FK) &#xa;" style="text;align=left;verticalAlign=top;spacingLeft=4;spacingRight=4;overflow=hidden;rotatable=0;points=[[0,0.5],[1,0.5]];portConstraint=eastwest;rounded=0;shadow=0;html=0;" vertex="1" parent="JWwbm2Qh-RJvI3wkCz8D-126">
          <mxGeometry y="260" width="319" height="26" as="geometry" />
        </mxCell>
        <mxCell id="JWwbm2Qh-RJvI3wkCz8D-137" value="Flight Number (FK) &#xa;" style="text;align=left;verticalAlign=top;spacingLeft=4;spacingRight=4;overflow=hidden;rotatable=0;points=[[0,0.5],[1,0.5]];portConstraint=eastwest;rounded=0;shadow=0;html=0;" vertex="1" parent="JWwbm2Qh-RJvI3wkCz8D-126">
          <mxGeometry y="286" width="319" height="26" as="geometry" />
        </mxCell>
        <mxCell id="JWwbm2Qh-RJvI3wkCz8D-138" value="Confirmation Number (DD) &#xa;" style="text;align=left;verticalAlign=top;spacingLeft=4;spacingRight=4;overflow=hidden;rotatable=0;points=[[0,0.5],[1,0.5]];portConstraint=eastwest;rounded=0;shadow=0;html=0;" vertex="1" parent="JWwbm2Qh-RJvI3wkCz8D-126">
          <mxGeometry y="312" width="319" height="26" as="geometry" />
        </mxCell>
        <mxCell id="JWwbm2Qh-RJvI3wkCz8D-139" value="Ticket Number (DD) &#xa;" style="text;align=left;verticalAlign=top;spacingLeft=4;spacingRight=4;overflow=hidden;rotatable=0;points=[[0,0.5],[1,0.5]];portConstraint=eastwest;rounded=0;shadow=0;html=0;" vertex="1" parent="JWwbm2Qh-RJvI3wkCz8D-126">
          <mxGeometry y="338" width="319" height="26" as="geometry" />
        </mxCell>
        <mxCell id="JWwbm2Qh-RJvI3wkCz8D-140" value="Cash" style="text;align=left;verticalAlign=top;spacingLeft=4;spacingRight=4;overflow=hidden;rotatable=0;points=[[0,0.5],[1,0.5]];portConstraint=eastwest;rounded=0;shadow=0;html=0;" vertex="1" parent="JWwbm2Qh-RJvI3wkCz8D-126">
          <mxGeometry y="364" width="319" height="26" as="geometry" />
        </mxCell>
        <mxCell id="JWwbm2Qh-RJvI3wkCz8D-141" value="Points" style="text;align=left;verticalAlign=top;spacingLeft=4;spacingRight=4;overflow=hidden;rotatable=0;points=[[0,0.5],[1,0.5]];portConstraint=eastwest;rounded=0;shadow=0;html=0;" vertex="1" parent="JWwbm2Qh-RJvI3wkCz8D-126">
          <mxGeometry y="390" width="319" height="26" as="geometry" />
        </mxCell>
        <mxCell id="JWwbm2Qh-RJvI3wkCz8D-142" value="Discount" style="text;align=left;verticalAlign=top;spacingLeft=4;spacingRight=4;overflow=hidden;rotatable=0;points=[[0,0.5],[1,0.5]];portConstraint=eastwest;rounded=0;shadow=0;html=0;" vertex="1" parent="JWwbm2Qh-RJvI3wkCz8D-126">
          <mxGeometry y="416" width="319" height="26" as="geometry" />
        </mxCell>
        <mxCell id="JWwbm2Qh-RJvI3wkCz8D-143" style="edgeStyle=orthogonalEdgeStyle;rounded=0;orthogonalLoop=1;jettySize=auto;html=1;" edge="1" parent="JWwbm2Qh-RJvI3wkCz8D-1" source="JWwbm2Qh-RJvI3wkCz8D-171" target="JWwbm2Qh-RJvI3wkCz8D-127">
          <mxGeometry relative="1" as="geometry" />
        </mxCell>
        <mxCell id="JWwbm2Qh-RJvI3wkCz8D-146" value="Date Dimension" style="swimlane;fontStyle=2;align=center;verticalAlign=top;childLayout=stackLayout;horizontal=1;startSize=26;horizontalStack=0;resizeParent=1;resizeLast=0;collapsible=1;marginBottom=0;rounded=0;shadow=0;strokeWidth=1;" vertex="1" parent="JWwbm2Qh-RJvI3wkCz8D-1">
          <mxGeometry x="1350" y="-193" width="270" height="250" as="geometry">
            <mxRectangle x="230" y="140" width="160" height="26" as="alternateBounds" />
          </mxGeometry>
        </mxCell>
        <mxCell id="JWwbm2Qh-RJvI3wkCz8D-147" value="" style="line;html=1;strokeWidth=1;align=left;verticalAlign=middle;spacingTop=-1;spacingLeft=3;spacingRight=3;rotatable=0;labelPosition=right;points=[];portConstraint=eastwest;" vertex="1" parent="JWwbm2Qh-RJvI3wkCz8D-146">
          <mxGeometry y="26" width="270" height="8" as="geometry" />
        </mxCell>
        <mxCell id="JWwbm2Qh-RJvI3wkCz8D-148" value="Date Key (PK)&#xa;" style="text;align=left;verticalAlign=top;spacingLeft=4;spacingRight=4;overflow=hidden;rotatable=0;points=[[0,0.5],[1,0.5]];portConstraint=eastwest;rounded=0;shadow=0;html=0;" vertex="1" parent="JWwbm2Qh-RJvI3wkCz8D-146">
          <mxGeometry y="34" width="270" height="26" as="geometry" />
        </mxCell>
        <mxCell id="JWwbm2Qh-RJvI3wkCz8D-149" value="Date&#xa;" style="text;align=left;verticalAlign=top;spacingLeft=4;spacingRight=4;overflow=hidden;rotatable=0;points=[[0,0.5],[1,0.5]];portConstraint=eastwest;rounded=0;shadow=0;html=0;" vertex="1" parent="JWwbm2Qh-RJvI3wkCz8D-146">
          <mxGeometry y="60" width="270" height="26" as="geometry" />
        </mxCell>
        <mxCell id="JWwbm2Qh-RJvI3wkCz8D-150" value="Day&#xa;" style="text;align=left;verticalAlign=top;spacingLeft=4;spacingRight=4;overflow=hidden;rotatable=0;points=[[0,0.5],[1,0.5]];portConstraint=eastwest;rounded=0;shadow=0;html=0;" vertex="1" parent="JWwbm2Qh-RJvI3wkCz8D-146">
          <mxGeometry y="86" width="270" height="26" as="geometry" />
        </mxCell>
        <mxCell id="JWwbm2Qh-RJvI3wkCz8D-151" value="Day of Week&#xa;" style="text;align=left;verticalAlign=top;spacingLeft=4;spacingRight=4;overflow=hidden;rotatable=0;points=[[0,0.5],[1,0.5]];portConstraint=eastwest;rounded=0;shadow=0;html=0;" vertex="1" parent="JWwbm2Qh-RJvI3wkCz8D-146">
          <mxGeometry y="112" width="270" height="26" as="geometry" />
        </mxCell>
        <mxCell id="JWwbm2Qh-RJvI3wkCz8D-152" value="Month&#xa;" style="text;align=left;verticalAlign=top;spacingLeft=4;spacingRight=4;overflow=hidden;rotatable=0;points=[[0,0.5],[1,0.5]];portConstraint=eastwest;rounded=0;shadow=0;html=0;" vertex="1" parent="JWwbm2Qh-RJvI3wkCz8D-146">
          <mxGeometry y="138" width="270" height="26" as="geometry" />
        </mxCell>
        <mxCell id="JWwbm2Qh-RJvI3wkCz8D-153" value="Quarter&#xa;" style="text;align=left;verticalAlign=top;spacingLeft=4;spacingRight=4;overflow=hidden;rotatable=0;points=[[0,0.5],[1,0.5]];portConstraint=eastwest;rounded=0;shadow=0;html=0;" vertex="1" parent="JWwbm2Qh-RJvI3wkCz8D-146">
          <mxGeometry y="164" width="270" height="26" as="geometry" />
        </mxCell>
        <mxCell id="JWwbm2Qh-RJvI3wkCz8D-154" value="Holiday Indicator&#xa;" style="text;align=left;verticalAlign=top;spacingLeft=4;spacingRight=4;overflow=hidden;rotatable=0;points=[[0,0.5],[1,0.5]];portConstraint=eastwest;rounded=0;shadow=0;html=0;" vertex="1" parent="JWwbm2Qh-RJvI3wkCz8D-146">
          <mxGeometry y="190" width="270" height="26" as="geometry" />
        </mxCell>
        <mxCell id="JWwbm2Qh-RJvI3wkCz8D-155" value="Season&#xa;" style="text;align=left;verticalAlign=top;spacingLeft=4;spacingRight=4;overflow=hidden;rotatable=0;points=[[0,0.5],[1,0.5]];portConstraint=eastwest;rounded=0;shadow=0;html=0;" vertex="1" parent="JWwbm2Qh-RJvI3wkCz8D-146">
          <mxGeometry y="216" width="270" height="26" as="geometry" />
        </mxCell>
        <mxCell id="JWwbm2Qh-RJvI3wkCz8D-156" value="" style="edgeStyle=orthogonalEdgeStyle;rounded=0;orthogonalLoop=1;jettySize=auto;html=1;" edge="1" parent="JWwbm2Qh-RJvI3wkCz8D-1" source="JWwbm2Qh-RJvI3wkCz8D-61" target="JWwbm2Qh-RJvI3wkCz8D-157">
          <mxGeometry relative="1" as="geometry">
            <mxPoint x="1380" y="-452" as="sourcePoint" />
            <mxPoint x="429" y="155" as="targetPoint" />
          </mxGeometry>
        </mxCell>
        <mxCell id="JWwbm2Qh-RJvI3wkCz8D-157" value="Passenger" style="swimlane;fontStyle=2;align=center;verticalAlign=top;childLayout=stackLayout;horizontal=1;startSize=26;horizontalStack=0;resizeParent=1;resizeLast=0;collapsible=1;marginBottom=0;rounded=0;shadow=0;strokeWidth=1;" vertex="1" parent="JWwbm2Qh-RJvI3wkCz8D-1">
          <mxGeometry x="1170" y="390" width="160" height="320" as="geometry">
            <mxRectangle x="230" y="140" width="160" height="26" as="alternateBounds" />
          </mxGeometry>
        </mxCell>
        <mxCell id="JWwbm2Qh-RJvI3wkCz8D-158" value="" style="line;html=1;strokeWidth=1;align=left;verticalAlign=middle;spacingTop=-1;spacingLeft=3;spacingRight=3;rotatable=0;labelPosition=right;points=[];portConstraint=eastwest;" vertex="1" parent="JWwbm2Qh-RJvI3wkCz8D-157">
          <mxGeometry y="26" width="160" height="8" as="geometry" />
        </mxCell>
        <mxCell id="JWwbm2Qh-RJvI3wkCz8D-159" value="Passenger Key (PK)&#xa;" style="text;align=left;verticalAlign=top;spacingLeft=4;spacingRight=4;overflow=hidden;rotatable=0;points=[[0,0.5],[1,0.5]];portConstraint=eastwest;rounded=0;shadow=0;html=0;" vertex="1" parent="JWwbm2Qh-RJvI3wkCz8D-157">
          <mxGeometry y="34" width="160" height="26" as="geometry" />
        </mxCell>
        <mxCell id="JWwbm2Qh-RJvI3wkCz8D-160" value="Passenger ID&#xa;" style="text;align=left;verticalAlign=top;spacingLeft=4;spacingRight=4;overflow=hidden;rotatable=0;points=[[0,0.5],[1,0.5]];portConstraint=eastwest;rounded=0;shadow=0;html=0;" vertex="1" parent="JWwbm2Qh-RJvI3wkCz8D-157">
          <mxGeometry y="60" width="160" height="26" as="geometry" />
        </mxCell>
        <mxCell id="JWwbm2Qh-RJvI3wkCz8D-161" value="First Name&#xa;" style="text;align=left;verticalAlign=top;spacingLeft=4;spacingRight=4;overflow=hidden;rotatable=0;points=[[0,0.5],[1,0.5]];portConstraint=eastwest;rounded=0;shadow=0;html=0;" vertex="1" parent="JWwbm2Qh-RJvI3wkCz8D-157">
          <mxGeometry y="86" width="160" height="26" as="geometry" />
        </mxCell>
        <mxCell id="JWwbm2Qh-RJvI3wkCz8D-162" value="Last Name&#xa;" style="text;align=left;verticalAlign=top;spacingLeft=4;spacingRight=4;overflow=hidden;rotatable=0;points=[[0,0.5],[1,0.5]];portConstraint=eastwest;rounded=0;shadow=0;html=0;" vertex="1" parent="JWwbm2Qh-RJvI3wkCz8D-157">
          <mxGeometry y="112" width="160" height="26" as="geometry" />
        </mxCell>
        <mxCell id="JWwbm2Qh-RJvI3wkCz8D-163" value="Date of Birth&#xa;" style="text;align=left;verticalAlign=top;spacingLeft=4;spacingRight=4;overflow=hidden;rotatable=0;points=[[0,0.5],[1,0.5]];portConstraint=eastwest;rounded=0;shadow=0;html=0;" vertex="1" parent="JWwbm2Qh-RJvI3wkCz8D-157">
          <mxGeometry y="138" width="160" height="26" as="geometry" />
        </mxCell>
        <mxCell id="JWwbm2Qh-RJvI3wkCz8D-164" value="Gender&#xa;" style="text;align=left;verticalAlign=top;spacingLeft=4;spacingRight=4;overflow=hidden;rotatable=0;points=[[0,0.5],[1,0.5]];portConstraint=eastwest;rounded=0;shadow=0;html=0;" vertex="1" parent="JWwbm2Qh-RJvI3wkCz8D-157">
          <mxGeometry y="164" width="160" height="26" as="geometry" />
        </mxCell>
        <mxCell id="JWwbm2Qh-RJvI3wkCz8D-165" value="Email Address&#xa;" style="text;align=left;verticalAlign=top;spacingLeft=4;spacingRight=4;overflow=hidden;rotatable=0;points=[[0,0.5],[1,0.5]];portConstraint=eastwest;rounded=0;shadow=0;html=0;" vertex="1" parent="JWwbm2Qh-RJvI3wkCz8D-157">
          <mxGeometry y="190" width="160" height="26" as="geometry" />
        </mxCell>
        <mxCell id="JWwbm2Qh-RJvI3wkCz8D-166" value="Address&#xa;" style="text;align=left;verticalAlign=top;spacingLeft=4;spacingRight=4;overflow=hidden;rotatable=0;points=[[0,0.5],[1,0.5]];portConstraint=eastwest;rounded=0;shadow=0;html=0;" vertex="1" parent="JWwbm2Qh-RJvI3wkCz8D-157">
          <mxGeometry y="216" width="160" height="26" as="geometry" />
        </mxCell>
        <mxCell id="JWwbm2Qh-RJvI3wkCz8D-167" value="Frequent Flyer Status&#xa;" style="text;align=left;verticalAlign=top;spacingLeft=4;spacingRight=4;overflow=hidden;rotatable=0;points=[[0,0.5],[1,0.5]];portConstraint=eastwest;rounded=0;shadow=0;html=0;" vertex="1" parent="JWwbm2Qh-RJvI3wkCz8D-157">
          <mxGeometry y="242" width="160" height="26" as="geometry" />
        </mxCell>
        <mxCell id="JWwbm2Qh-RJvI3wkCz8D-168" value="Lifetime Mileage&#xa;" style="text;align=left;verticalAlign=top;spacingLeft=4;spacingRight=4;overflow=hidden;rotatable=0;points=[[0,0.5],[1,0.5]];portConstraint=eastwest;rounded=0;shadow=0;html=0;" vertex="1" parent="JWwbm2Qh-RJvI3wkCz8D-157">
          <mxGeometry y="268" width="160" height="26" as="geometry" />
        </mxCell>
        <mxCell id="JWwbm2Qh-RJvI3wkCz8D-169" value="Points" style="text;align=left;verticalAlign=top;spacingLeft=4;spacingRight=4;overflow=hidden;rotatable=0;points=[[0,0.5],[1,0.5]];portConstraint=eastwest;rounded=0;shadow=0;html=0;" vertex="1" parent="JWwbm2Qh-RJvI3wkCz8D-157">
          <mxGeometry y="294" width="160" height="26" as="geometry" />
        </mxCell>
        <mxCell id="JWwbm2Qh-RJvI3wkCz8D-170" value="" style="edgeStyle=orthogonalEdgeStyle;rounded=0;orthogonalLoop=1;jettySize=auto;html=1;" edge="1" parent="JWwbm2Qh-RJvI3wkCz8D-1" source="JWwbm2Qh-RJvI3wkCz8D-148" target="JWwbm2Qh-RJvI3wkCz8D-171">
          <mxGeometry relative="1" as="geometry">
            <mxPoint x="685" y="377" as="sourcePoint" />
            <mxPoint x="429" y="-501" as="targetPoint" />
          </mxGeometry>
        </mxCell>
        <mxCell id="JWwbm2Qh-RJvI3wkCz8D-171" value="Class" style="swimlane;fontStyle=2;align=center;verticalAlign=top;childLayout=stackLayout;horizontal=1;startSize=26;horizontalStack=0;resizeParent=1;resizeLast=0;collapsible=1;marginBottom=0;rounded=0;shadow=0;strokeWidth=1;" vertex="1" parent="JWwbm2Qh-RJvI3wkCz8D-1">
          <mxGeometry x="540" y="-236" width="210" height="190" as="geometry">
            <mxRectangle x="230" y="140" width="160" height="26" as="alternateBounds" />
          </mxGeometry>
        </mxCell>
        <mxCell id="JWwbm2Qh-RJvI3wkCz8D-172" value="" style="line;html=1;strokeWidth=1;align=left;verticalAlign=middle;spacingTop=-1;spacingLeft=3;spacingRight=3;rotatable=0;labelPosition=right;points=[];portConstraint=eastwest;" vertex="1" parent="JWwbm2Qh-RJvI3wkCz8D-171">
          <mxGeometry y="26" width="210" height="8" as="geometry" />
        </mxCell>
        <mxCell id="JWwbm2Qh-RJvI3wkCz8D-173" value="Class Key (PK)&#xa;" style="text;align=left;verticalAlign=top;spacingLeft=4;spacingRight=4;overflow=hidden;rotatable=0;points=[[0,0.5],[1,0.5]];portConstraint=eastwest;rounded=0;shadow=0;html=0;" vertex="1" parent="JWwbm2Qh-RJvI3wkCz8D-171">
          <mxGeometry y="34" width="210" height="26" as="geometry" />
        </mxCell>
        <mxCell id="JWwbm2Qh-RJvI3wkCz8D-174" value="Class Name&#xa;" style="text;align=left;verticalAlign=top;spacingLeft=4;spacingRight=4;overflow=hidden;rotatable=0;points=[[0,0.5],[1,0.5]];portConstraint=eastwest;rounded=0;shadow=0;html=0;" vertex="1" parent="JWwbm2Qh-RJvI3wkCz8D-171">
          <mxGeometry y="60" width="210" height="26" as="geometry" />
        </mxCell>
        <mxCell id="JWwbm2Qh-RJvI3wkCz8D-175" value="Description&#xa;" style="text;align=left;verticalAlign=top;spacingLeft=4;spacingRight=4;overflow=hidden;rotatable=0;points=[[0,0.5],[1,0.5]];portConstraint=eastwest;rounded=0;shadow=0;html=0;" vertex="1" parent="JWwbm2Qh-RJvI3wkCz8D-171">
          <mxGeometry y="86" width="210" height="26" as="geometry" />
        </mxCell>
        <mxCell id="JWwbm2Qh-RJvI3wkCz8D-176" value="Priority Boarding&#xa;" style="text;align=left;verticalAlign=top;spacingLeft=4;spacingRight=4;overflow=hidden;rotatable=0;points=[[0,0.5],[1,0.5]];portConstraint=eastwest;rounded=0;shadow=0;html=0;" vertex="1" parent="JWwbm2Qh-RJvI3wkCz8D-171">
          <mxGeometry y="112" width="210" height="26" as="geometry" />
        </mxCell>
        <mxCell id="JWwbm2Qh-RJvI3wkCz8D-177" value="Free Baggage Allowance&#xa;" style="text;align=left;verticalAlign=top;spacingLeft=4;spacingRight=4;overflow=hidden;rotatable=0;points=[[0,0.5],[1,0.5]];portConstraint=eastwest;rounded=0;shadow=0;html=0;" vertex="1" parent="JWwbm2Qh-RJvI3wkCz8D-171">
          <mxGeometry y="138" width="210" height="26" as="geometry" />
        </mxCell>
        <mxCell id="JWwbm2Qh-RJvI3wkCz8D-178" value="Seat Selection Fee&#xa;" style="text;align=left;verticalAlign=top;spacingLeft=4;spacingRight=4;overflow=hidden;rotatable=0;points=[[0,0.5],[1,0.5]];portConstraint=eastwest;rounded=0;shadow=0;html=0;" vertex="1" parent="JWwbm2Qh-RJvI3wkCz8D-171">
          <mxGeometry y="164" width="210" height="26" as="geometry" />
        </mxCell>
      </root>
    </mxGraphModel>
  </diagram>
</mxfile>
